<?xml version="1.0" encoding="UTF-8" standalone="no"?>
<svg
   xmlns:dc="http://purl.org/dc/elements/1.1/"
   xmlns:cc="http://creativecommons.org/ns#"
   xmlns:rdf="http://www.w3.org/1999/02/22-rdf-syntax-ns#"
   xmlns:svg="http://www.w3.org/2000/svg"
   xmlns="http://www.w3.org/2000/svg"
   xmlns:sodipodi="http://sodipodi.sourceforge.net/DTD/sodipodi-0.dtd"
   xmlns:inkscape="http://www.inkscape.org/namespaces/inkscape"
   width="297mm"
   height="210mm"
   viewBox="0 0 297 210"
   version="1.1"
   id="svg8"
   inkscape:version="1.0.2-2 (e86c870879, 2021-01-15)"
   sodipodi:docname="acampamento.svg">
  <defs
     id="defs2">
    <pattern
       id="EMFhbasepattern"
       patternUnits="userSpaceOnUse"
       width="6"
       height="6"
       x="0"
       y="0" />
    <pattern
       id="EMFhbasepattern-0"
       patternUnits="userSpaceOnUse"
       width="6"
       height="6"
       x="0"
       y="0" />
    <pattern
       id="EMFhbasepattern-07"
       patternUnits="userSpaceOnUse"
       width="6"
       height="6"
       x="0"
       y="0" />
    <pattern
       id="EMFhbasepattern-5"
       patternUnits="userSpaceOnUse"
       width="6"
       height="6"
       x="0"
       y="0" />
    <pattern
       id="EMFhbasepattern-01"
       patternUnits="userSpaceOnUse"
       width="6"
       height="6"
       x="0"
       y="0" />
    <pattern
       id="EMFhbasepattern-1"
       patternUnits="userSpaceOnUse"
       width="6"
       height="6"
       x="0"
       y="0" />
    <pattern
       id="EMFhbasepattern-2"
       patternUnits="userSpaceOnUse"
       width="6"
       height="6"
       x="0"
       y="0" />
    <pattern
       id="EMFhbasepattern-3"
       patternUnits="userSpaceOnUse"
       width="6"
       height="6"
       x="0"
       y="0" />
    <pattern
       id="EMFhbasepattern-21"
       patternUnits="userSpaceOnUse"
       width="6"
       height="6"
       x="0"
       y="0" />
    <pattern
       id="EMFhbasepattern-51"
       patternUnits="userSpaceOnUse"
       width="6"
       height="6"
       x="0"
       y="0" />
    <pattern
       id="EMFhbasepattern-7"
       patternUnits="userSpaceOnUse"
       width="6"
       height="6"
       x="0"
       y="0" />
    <pattern
       id="EMFhbasepattern-6"
       patternUnits="userSpaceOnUse"
       width="6"
       height="6"
       x="0"
       y="0" />
  </defs>
  <sodipodi:namedview
     id="base"
     pagecolor="#ffffff"
     bordercolor="#666666"
     borderopacity="1.0"
     inkscape:pageopacity="0.0"
     inkscape:pageshadow="2"
     inkscape:zoom="0.7"
     inkscape:cx="471.18622"
     inkscape:cy="243.33583"
     inkscape:document-units="mm"
     inkscape:current-layer="layer1"
     inkscape:document-rotation="0"
     showgrid="false"
     inkscape:window-width="1680"
     inkscape:window-height="987"
     inkscape:window-x="-8"
     inkscape:window-y="-8"
     inkscape:window-maximized="1" />
  <metadata
     id="metadata5">
    <rdf:RDF>
      <cc:Work
         rdf:about="">
        <dc:format>image/svg+xml</dc:format>
        <dc:type
           rdf:resource="http://purl.org/dc/dcmitype/StillImage" />
        <dc:title></dc:title>
      </cc:Work>
    </rdf:RDF>
  </metadata>
  <g
     inkscape:label="Layer 1"
     inkscape:groupmode="layer"
     id="layer1">
    <path
       style="fill:#00004c;fill-opacity:1;fill-rule:evenodd;stroke:none;stroke-width:1.19746"
       d="m 105.38389,3.1239485 1.3455,0.8192776 h -4.4505 z"
       id="path208579" />
    <path
       style="fill:#00004c;fill-opacity:1;fill-rule:evenodd;stroke:none;stroke-width:1.19746"
       d="M 102.27889,3.9432261 119.4599,11.26854 h -19.40626 z"
       id="path208581" />
    <path
       style="fill:#00004c;fill-opacity:1;fill-rule:evenodd;stroke:none;stroke-width:1.19746"
       d="m 102.27889,3.9432261 h 4.4505 L 119.4599,11.26854 Z"
       id="path208583" />
    <path
       style="fill:#00004c;fill-opacity:1;fill-rule:evenodd;stroke:none;stroke-width:1.19746"
       d="m 100.05364,11.26854 37.93267,10.74701 H 95.706663 Z"
       id="path208585" />
    <path
       style="fill:#00004c;fill-opacity:1;fill-rule:evenodd;stroke:none;stroke-width:1.19746"
       d="m 100.05364,11.26854 h 19.40626 l 18.52641,10.74701 z"
       id="path208587" />
    <path
       style="fill:#00004c;fill-opacity:1;fill-rule:evenodd;stroke:none;stroke-width:1.19746"
       d="M 95.706663,22.01555 156.35746,32.617981 H 89.962445 Z"
       id="path208589" />
    <path
       style="fill:#00004c;fill-opacity:1;fill-rule:evenodd;stroke:none;stroke-width:1.19746"
       d="m 95.706663,22.01555 h 42.279647 l 18.37115,10.602431 z"
       id="path208591" />
    <path
       style="fill:#00004c;fill-opacity:1;fill-rule:evenodd;stroke:none;stroke-width:1.19746"
       d="M 89.962445,32.617981 176.0741,43.991493 H 82.044734 Z"
       id="path208593" />
    <path
       style="fill:#00004c;fill-opacity:1;fill-rule:evenodd;stroke:none;stroke-width:1.19746"
       d="M 89.962445,32.617981 H 156.35746 L 176.0741,43.991493 Z"
       id="path208595" />
    <path
       style="fill:#00004c;fill-opacity:1;fill-rule:evenodd;stroke:none;stroke-width:1.19746"
       d="M 82.044734,43.991493 193.30676,53.967416 H 73.092034 Z"
       id="path208597" />
    <path
       style="fill:#00004c;fill-opacity:1;fill-rule:evenodd;stroke:none;stroke-width:1.19746"
       d="M 82.044734,43.991493 H 176.0741 l 17.23266,9.975923 z"
       id="path208599" />
    <path
       style="fill:#00004c;fill-opacity:1;fill-rule:evenodd;stroke:none;stroke-width:1.19746"
       d="M 73.092034,53.967416 205.77844,61.196349 H 64.967329 Z"
       id="path208601" />
    <path
       style="fill:#00004c;fill-opacity:1;fill-rule:evenodd;stroke:none;stroke-width:1.19746"
       d="M 73.092034,53.967416 H 193.30676 l 12.47168,7.228933 z"
       id="path208603" />
    <path
       style="fill:#00004c;fill-opacity:1;fill-rule:evenodd;stroke:none;stroke-width:1.19746"
       d="M 64.967329,61.196349 206.91694,63.268641 H 62.690337 Z"
       id="path208605" />
    <path
       style="fill:#00004c;fill-opacity:1;fill-rule:evenodd;stroke:none;stroke-width:1.19746"
       d="M 64.967329,61.196349 H 205.77844 l 1.1385,2.072292 z"
       id="path208607" />
    <path
       style="fill:#00004c;fill-opacity:1;fill-rule:evenodd;stroke:none;stroke-width:1.19746"
       d="M 62.690337,63.268641 211.31566,71.413234 H 50.94315 Z"
       id="path208609" />
    <path
       style="fill:#00004c;fill-opacity:1;fill-rule:evenodd;stroke:none;stroke-width:1.19746"
       d="M 62.690337,63.268641 H 206.91694 l 4.39872,8.144593 z"
       id="path208611" />
    <path
       style="fill:#00004c;fill-opacity:1;fill-rule:evenodd;stroke:none;stroke-width:1.19746"
       d="m 50.94315,71.413234 162.339,3.566272 H 44.577938 Z"
       id="path208613" />
    <path
       style="fill:#00004c;fill-opacity:1;fill-rule:evenodd;stroke:none;stroke-width:1.19746"
       d="m 50.94315,71.413234 h 160.37251 l 1.96649,3.566272 z"
       id="path208615" />
    <path
       style="fill:#00004c;fill-opacity:1;fill-rule:evenodd;stroke:none;stroke-width:1.19746"
       d="M 44.577938,74.979506 213.90315,76.087942 H 42.559697 Z"
       id="path208617" />
    <path
       style="fill:#00004c;fill-opacity:1;fill-rule:evenodd;stroke:none;stroke-width:1.19746"
       d="M 44.577938,74.979506 H 213.28215 l 0.621,1.108436 z"
       id="path208619" />
    <path
       style="fill:#00004c;fill-opacity:1;fill-rule:evenodd;stroke:none;stroke-width:1.19746"
       d="M 42.559697,76.087942 218.56063,83.943377 H 45.975179 Z"
       id="path208621" />
    <path
       style="fill:#00004c;fill-opacity:1;fill-rule:evenodd;stroke:none;stroke-width:1.19746"
       d="M 42.559697,76.087942 H 213.90315 l 4.65748,7.855435 z"
       id="path208623" />
    <path
       style="fill:#00004c;fill-opacity:1;fill-rule:evenodd;stroke:none;stroke-width:1.19746"
       d="M 45.975179,83.943377 224.9776,93.148214 H 50.011656 Z"
       id="path208625" />
    <path
       style="fill:#00004c;fill-opacity:1;fill-rule:evenodd;stroke:none;stroke-width:1.19746"
       d="M 45.975179,83.943377 H 218.56063 l 6.41697,9.204837 z"
       id="path208627" />
    <path
       style="fill:#00004c;fill-opacity:1;fill-rule:evenodd;stroke:none;stroke-width:1.19746"
       d="M 50.011656,93.148214 229.63506,98.690379 H 52.443896 Z"
       id="path208629" />
    <path
       style="fill:#00004c;fill-opacity:1;fill-rule:evenodd;stroke:none;stroke-width:1.19746"
       d="M 50.011656,93.148214 H 224.9776 l 4.65746,5.542165 z"
       id="path208631" />
    <path
       style="fill:#00004c;fill-opacity:1;fill-rule:evenodd;stroke:none;stroke-width:1.19746"
       d="M 52.443896,98.690379 232.94706,102.64219 H 55.704126 Z"
       id="path208633" />
    <path
       style="fill:#00004c;fill-opacity:1;fill-rule:evenodd;stroke:none;stroke-width:1.19746"
       d="M 52.443896,98.690379 H 229.63506 l 3.312,3.951811 z"
       id="path208635" />
    <path
       style="fill:#00004c;fill-opacity:1;fill-rule:evenodd;stroke:none;stroke-width:1.19746"
       d="m 55.704126,102.64219 184.746624,7.61447 H 62.017595 Z"
       id="path208637" />
    <path
       style="fill:#00004c;fill-opacity:1;fill-rule:evenodd;stroke:none;stroke-width:1.19746"
       d="M 55.704126,102.64219 H 232.94706 l 7.50369,7.61447 z"
       id="path208639" />
    <path
       style="fill:#00004c;fill-opacity:1;fill-rule:evenodd;stroke:none;stroke-width:1.19746"
       d="m 62.017595,110.25666 185.885125,6.60243 H 67.451312 Z"
       id="path208641" />
    <path
       style="fill:#00004c;fill-opacity:1;fill-rule:evenodd;stroke:none;stroke-width:1.19746"
       d="M 62.017595,110.25666 H 240.45075 l 7.45197,6.60243 z"
       id="path208643" />
    <path
       style="fill:#00004c;fill-opacity:1;fill-rule:evenodd;stroke:none;stroke-width:1.19746"
       d="m 67.451312,116.85909 188.783108,6.31326 H 72.678035 Z"
       id="path208645" />
    <path
       style="fill:#00004c;fill-opacity:1;fill-rule:evenodd;stroke:none;stroke-width:1.19746"
       d="M 67.451312,116.85909 H 247.90272 l 8.3317,6.31326 z"
       id="path208647" />
    <path
       style="fill:#00004c;fill-opacity:1;fill-rule:evenodd;stroke:none;stroke-width:1.19746"
       d="m 72.678035,123.17235 194.216835,6.89157 H 78.370505 Z"
       id="path208649" />
    <path
       style="fill:#00004c;fill-opacity:1;fill-rule:evenodd;stroke:none;stroke-width:1.19746"
       d="M 72.678035,123.17235 H 256.23442 l 10.66045,6.89157 z"
       id="path208651" />
    <path
       style="fill:#00004c;fill-opacity:1;fill-rule:evenodd;stroke:none;stroke-width:1.19746"
       d="m 78.370505,130.06392 195.510575,3.85543 H 81.578992 Z"
       id="path208653" />
    <path
       style="fill:#00004c;fill-opacity:1;fill-rule:evenodd;stroke:none;stroke-width:1.19746"
       d="M 78.370505,130.06392 H 266.89487 l 6.98621,3.85543 z"
       id="path208655" />
    <path
       style="fill:#00004c;fill-opacity:1;fill-rule:evenodd;stroke:none;stroke-width:1.19746"
       d="M 81.578992,133.91935 273.88108,150.49771 H 95.344415 Z"
       id="path208657" />
    <path
       style="fill:#00004c;fill-opacity:1;fill-rule:evenodd;stroke:none;stroke-width:1.19746"
       d="M 81.578992,133.91935 H 273.88108 v 16.57836 z"
       id="path208659" />
    <path
       style="fill:#00004c;fill-opacity:1;fill-rule:evenodd;stroke:none;stroke-width:1.19746"
       d="M 95.344415,150.49771 270.8796,152.71457 H 97.155656 Z"
       id="path208661" />
    <path
       style="fill:#00004c;fill-opacity:1;fill-rule:evenodd;stroke:none;stroke-width:1.19746"
       d="M 95.344415,150.49771 H 273.88108 l -3.00148,2.21686 z"
       id="path208663" />
    <path
       style="fill:#00004c;fill-opacity:1;fill-rule:evenodd;stroke:none;stroke-width:1.19746"
       d="m 120.7019,181.19655 h 18.1124 l -13.04093,2.79519 z"
       id="path208665" />
    <path
       style="fill:#00004c;fill-opacity:1;fill-rule:evenodd;stroke:none;stroke-width:1.19746"
       d="M 97.155656,152.71457 138.8143,181.19655 H 120.7019 Z"
       id="path208667" />
    <path
       style="fill:#00004c;fill-opacity:1;fill-rule:evenodd;stroke:none;stroke-width:1.19746"
       d="M 97.155656,152.71457 H 270.8796 l -132.0653,28.48198 z"
       id="path208669" />
    <path
       style="fill:none;stroke:#00004c;stroke-width:0.0498226px;stroke-linecap:round;stroke-linejoin:round;stroke-miterlimit:4;stroke-dasharray:none;stroke-opacity:1"
       d="M 205.77844,61.196349 105.38389,3.1239485 l -3.105,0.8192776 -2.22525,7.3253139 -4.346977,10.74701 -5.744218,10.602431 -7.917711,11.373512 -8.9527,9.975923 -10.401697,9.301225 -11.747187,8.144593 -8.383453,4.674708 9.884199,22.602437 68.258004,82.506171 5.07147,2.79519 145.10623,-31.27717 3.00148,-2.21686 v -16.57836 l -6.98621,-3.85543 -10.66045,-6.89157 -8.3317,-6.31326 -7.45197,-6.60243 -7.50369,-7.61447 -7.96946,-9.493976 -6.41697,-9.204837 -5.27848,-8.963871 z"
       id="path208671" />
    <path
       style="fill:none;stroke:#00134c;stroke-width:0.0498226px;stroke-linecap:round;stroke-linejoin:round;stroke-miterlimit:4;stroke-dasharray:none;stroke-opacity:1"
       d="M 205.77844,61.196349 105.38389,3.1239485 l -3.105,0.8192776 -2.22525,7.3253139 -4.346977,10.74701 -5.744218,10.602431 -7.917711,11.373512 -8.9527,9.975923 -10.401697,9.301225 -11.747187,8.144593 -8.383453,4.674708"
       id="path208673" />
    <path
       style="fill:none;stroke:#00134c;stroke-width:0.0498226px;stroke-linecap:round;stroke-linejoin:round;stroke-miterlimit:4;stroke-dasharray:none;stroke-opacity:1"
       d="m 42.559697,76.087942 9.884199,22.602437 68.258004,82.506171 5.07147,2.79519 145.10623,-31.27717 3.00148,-2.21686 v -16.57836 l -6.98621,-3.85543 -10.66045,-6.89157 -8.3317,-6.31326 -7.45197,-6.60243 -7.50369,-7.61447 -7.96946,-9.493976 -6.41697,-9.204837 -5.27848,-8.963871 -7.50371,-13.783157"
       id="path208675" />
    <path
       style="fill:none;stroke:#00134c;stroke-width:0.0498226px;stroke-linecap:round;stroke-linejoin:round;stroke-miterlimit:4;stroke-dasharray:none;stroke-opacity:1"
       d="m 42.559697,76.087942 h 0.103514"
       id="path208677" />
    <path
       style="fill:none;stroke:#00134c;stroke-width:0.0498226px;stroke-linecap:round;stroke-linejoin:round;stroke-miterlimit:4;stroke-dasharray:none;stroke-opacity:1"
       d="m 205.77844,61.196349 h 0.10352"
       id="path208679" />
    <path
       style="fill:none;stroke:#ffff00;stroke-width:0.0498226px;stroke-linecap:round;stroke-linejoin:round;stroke-miterlimit:4;stroke-dasharray:none;stroke-opacity:1"
       d="M 120.7019,181.19655 52.443896,98.690379 42.559697,76.087942"
       id="path208681" />
    <path
       style="fill:none;stroke:#ffff00;stroke-width:0.0498226px;stroke-linecap:round;stroke-linejoin:round;stroke-miterlimit:4;stroke-dasharray:none;stroke-opacity:1"
       d="m 205.77844,61.196349 -6.26171,20.819315 -10.60869,16.819295 -17.12917,22.216901 -12.78218,13.49401 -14.74867,12.19279 -14.80042,10.02411 -8.38345,5.63857 -0.36225,18.79521 5.07147,2.79519 145.10623,-31.27717 3.00148,-2.21686 v -16.57836 l -6.98621,-3.85543 -10.66046,-6.89157 -8.33169,-6.31326 -7.45197,-6.60243 -7.5037,-7.61447 -7.96946,-9.493976 -6.41697,-9.204837 -5.27847,-8.963871 z"
       id="path208683" />
    <path
       style="fill:none;stroke:#ffff00;stroke-width:0.0498226px;stroke-linecap:round;stroke-linejoin:round;stroke-miterlimit:4;stroke-dasharray:none;stroke-opacity:1"
       d="m 205.77844,61.196349 h 0.10352"
       id="path208685" />
    <path
       style="fill:none;stroke:#ffff00;stroke-width:0.0498226px;stroke-linecap:round;stroke-linejoin:round;stroke-miterlimit:4;stroke-dasharray:none;stroke-opacity:1"
       d="m 121.06415,162.40134 -78.504453,-86.313398 8.383453,-4.674708 11.747187,-8.144593 10.401697,-9.301225 8.9527,-9.975923 7.917711,-11.373512 5.744218,-10.602431 4.346977,-10.74701 2.22525,-7.3253139 3.105,-0.8192776 99.15256,57.1085395"
       id="path208687" />
    <path
       style="fill:none;stroke:#a57c52;stroke-width:0.0498226px;stroke-linecap:round;stroke-linejoin:round;stroke-miterlimit:4;stroke-dasharray:none;stroke-opacity:1"
       d="m 232.06731,208.6183 -3.93298,-4.14458 7.86595,-16.43378 5.01973,3.08435 z"
       id="path208689" />
    <path
       style="fill:none;stroke:#212830;stroke-width:0.0498226px;stroke-linecap:round;stroke-linejoin:round;stroke-miterlimit:4;stroke-dasharray:none;stroke-opacity:1"
       d="m 232.06731,196.23274 -5.12323,-12.241 -3.00148,-12.67472 -3.05324,-16.96389 -4.19173,-22.45787 -3.10498,-21.92775 -1.91474,-11.373511 -2.06999,-14.60243 -3.82948,-22.79522"
       id="path208691" />
    <path
       style="fill:none;stroke:#212830;stroke-width:0.0498226px;stroke-linecap:round;stroke-linejoin:round;stroke-miterlimit:4;stroke-dasharray:none;stroke-opacity:1"
       d="m 76.766264,163.70255 4.760976,-0.57832 6.054717,-1.68674 5.226723,-2.36146 4.657476,-2.93976 3.674234,-3.18073 2.43225,-2.60241 2.898,-4.00001"
       id="path208693" />
    <path
       style="fill:none;stroke:#a57c52;stroke-width:0.0498226px;stroke-linecap:round;stroke-linejoin:round;stroke-miterlimit:4;stroke-dasharray:none;stroke-opacity:1"
       d="m 73.764781,157.67844 -4.812723,2.12048 5.330218,10.60244 5.537223,-0.67471 z"
       id="path208695" />
    <path
       style="fill:none;stroke:#212830;stroke-width:0.0498226px;stroke-linecap:round;stroke-linejoin:round;stroke-miterlimit:4;stroke-dasharray:none;stroke-opacity:1"
       d="m 52.133396,136.61816 4.709224,-0.57832 6.10647,-1.68674 5.226721,-2.36146 4.657476,-2.93976 3.674229,-3.18072 2.432236,-2.60242 2.846235,-4.00001"
       id="path208697" />
    <path
       style="fill:none;stroke:#a57c52;stroke-width:0.0498226px;stroke-linecap:round;stroke-linejoin:round;stroke-miterlimit:4;stroke-dasharray:none;stroke-opacity:1"
       d="m 49.131914,130.59405 -4.812724,2.12048 5.278471,10.60244 5.537218,-0.6747 z"
       id="path208699" />
    <path
       style="fill:none;stroke:#212830;stroke-width:0.0498226px;stroke-linecap:round;stroke-linejoin:round;stroke-miterlimit:4;stroke-dasharray:none;stroke-opacity:1"
       d="m 29.260015,111.46148 4.709229,-0.6265 6.106465,-1.63856 5.226723,-2.36145 4.657476,-2.98796 3.67423,-3.13254 2.380488,-2.602398 2.897982,-4.000001"
       id="path208701" />
    <path
       style="fill:none;stroke:#a57c52;stroke-width:0.0498226px;stroke-linecap:round;stroke-linejoin:round;stroke-miterlimit:4;stroke-dasharray:none;stroke-opacity:1"
       d="m 26.206783,105.43738 -4.812731,2.07229 5.330226,10.65062 5.537225,-0.6747 z"
       id="path208703" />
    <path
       style="fill:none;stroke:#a57c52;stroke-width:0.0498226px;stroke-linecap:round;stroke-linejoin:round;stroke-miterlimit:4;stroke-dasharray:none;stroke-opacity:1"
       d="m 204.53645,54.304765 h 2.53574 V 179.46161 h -2.53574 z"
       id="path208705" />
    <path
       style="fill:#a57c52;fill-opacity:1;fill-rule:evenodd;stroke:none;stroke-width:1.19746"
       d="m 236.00028,188.03994 5.01973,3.08435 h -6.52046 z"
       id="path208707" />
    <path
       style="fill:#a57c52;fill-opacity:1;fill-rule:evenodd;stroke:none;stroke-width:1.19746"
       d="m 228.13433,204.47372 h 6.10646 l -2.17348,4.14458 z"
       id="path208709" />
    <path
       style="fill:#a57c52;fill-opacity:1;fill-rule:evenodd;stroke:none;stroke-width:1.19746"
       d="m 234.49955,191.12429 -0.25874,13.34943 h -6.10646 z"
       id="path208711" />
    <path
       style="fill:#a57c52;fill-opacity:1;fill-rule:evenodd;stroke:none;stroke-width:1.19746"
       d="m 234.49955,191.12429 h 6.52046 l -6.77922,13.34943 z"
       id="path208713" />
    <path
       style="fill:none;stroke:#a57c52;stroke-width:0.0498226px;stroke-linecap:round;stroke-linejoin:round;stroke-miterlimit:4;stroke-dasharray:none;stroke-opacity:1"
       d="m 232.06731,208.6183 -3.93298,-4.14458 7.86595,-16.43378 5.01973,3.08435 z"
       id="path208715" />
    <path
       style="fill:#a57c52;fill-opacity:1;fill-rule:evenodd;stroke:none;stroke-width:1.19746"
       d="m 73.764781,157.67844 1.034994,2.12048 h -5.847717 z"
       id="path208717" />
    <path
       style="fill:#a57c52;fill-opacity:1;fill-rule:evenodd;stroke:none;stroke-width:1.19746"
       d="m 73.920029,169.72665 h 5.89947 l -5.537223,0.67471 z"
       id="path208719" />
    <path
       style="fill:#a57c52;fill-opacity:1;fill-rule:evenodd;stroke:none;stroke-width:1.19746"
       d="m 68.952058,159.79892 10.867441,9.92773 h -5.89947 z"
       id="path208721" />
    <path
       style="fill:#a57c52;fill-opacity:1;fill-rule:evenodd;stroke:none;stroke-width:1.19746"
       d="m 68.952058,159.79892 h 5.847717 l 5.019724,9.92773 z"
       id="path208723" />
    <path
       style="fill:none;stroke:#a57c52;stroke-width:0.0498226px;stroke-linecap:round;stroke-linejoin:round;stroke-miterlimit:4;stroke-dasharray:none;stroke-opacity:1"
       d="m 73.764781,157.67844 -4.812723,2.12048 5.330218,10.60244 5.537223,-0.67471 z"
       id="path208725" />
    <path
       style="fill:#a57c52;fill-opacity:1;fill-rule:evenodd;stroke:none;stroke-width:1.19746"
       d="m 49.131914,130.59405 1.034994,2.12048 H 44.31919 Z"
       id="path208727" />
    <path
       style="fill:#a57c52;fill-opacity:1;fill-rule:evenodd;stroke:none;stroke-width:1.19746"
       d="m 49.287161,142.64227 h 5.847718 l -5.537218,0.6747 z"
       id="path208729" />
    <path
       style="fill:#a57c52;fill-opacity:1;fill-rule:evenodd;stroke:none;stroke-width:1.19746"
       d="m 44.31919,132.71453 10.815689,9.92774 h -5.847718 z"
       id="path208731" />
    <path
       style="fill:#a57c52;fill-opacity:1;fill-rule:evenodd;stroke:none;stroke-width:1.19746"
       d="m 44.31919,132.71453 h 5.847718 l 4.967971,9.92774 z"
       id="path208733" />
    <path
       style="fill:none;stroke:#a57c52;stroke-width:0.0498226px;stroke-linecap:round;stroke-linejoin:round;stroke-miterlimit:4;stroke-dasharray:none;stroke-opacity:1"
       d="m 49.131914,130.59405 -4.812724,2.12048 5.278471,10.60244 5.537218,-0.6747 z"
       id="path208735" />
    <path
       style="fill:#a57c52;fill-opacity:1;fill-rule:evenodd;stroke:none;stroke-width:1.19746"
       d="m 26.206783,105.43738 1.086743,2.07229 h -5.899474 z"
       id="path208737" />
    <path
       style="fill:#a57c52;fill-opacity:1;fill-rule:evenodd;stroke:none;stroke-width:1.19746"
       d="m 26.413783,117.48559 h 5.84772 l -5.537225,0.6747 z"
       id="path208739" />
    <path
       style="fill:#a57c52;fill-opacity:1;fill-rule:evenodd;stroke:none;stroke-width:1.19746"
       d="m 21.394052,107.50967 10.867451,9.97592 h -5.84772 z"
       id="path208741" />
    <path
       style="fill:#a57c52;fill-opacity:1;fill-rule:evenodd;stroke:none;stroke-width:1.19746"
       d="m 21.394052,107.50967 h 5.899474 l 4.967977,9.97592 z"
       id="path208743" />
    <path
       style="fill:none;stroke:#a57c52;stroke-width:0.0498226px;stroke-linecap:round;stroke-linejoin:round;stroke-miterlimit:4;stroke-dasharray:none;stroke-opacity:1"
       d="m 26.206783,105.43738 -4.812731,2.07229 5.330226,10.65062 5.537225,-0.6747 z"
       id="path208745" />
    <path
       style="fill:#a57c52;fill-opacity:1;fill-rule:evenodd;stroke:none;stroke-width:1.19746"
       d="m 204.53645,54.304765 2.53574,125.156845 h -2.53574 z"
       id="path208747" />
    <path
       style="fill:#a57c52;fill-opacity:1;fill-rule:evenodd;stroke:none;stroke-width:1.19746"
       d="m 204.53645,54.304765 h 2.53574 V 179.46161 Z"
       id="path208749" />
    <path
       style="fill:none;stroke:#a57c52;stroke-width:0.0498226px;stroke-linecap:round;stroke-linejoin:round;stroke-miterlimit:4;stroke-dasharray:none;stroke-opacity:1"
       d="m 204.53645,54.304765 h 2.53574 V 179.46161 h -2.53574 z"
       id="path208751" />
  </g>
</svg>
