<?xml version="1.0" encoding="UTF-8" standalone="no"?>
<svg
   xmlns:dc="http://purl.org/dc/elements/1.1/"
   xmlns:cc="http://creativecommons.org/ns#"
   xmlns:rdf="http://www.w3.org/1999/02/22-rdf-syntax-ns#"
   xmlns:svg="http://www.w3.org/2000/svg"
   xmlns="http://www.w3.org/2000/svg"
   xmlns:sodipodi="http://sodipodi.sourceforge.net/DTD/sodipodi-0.dtd"
   xmlns:inkscape="http://www.inkscape.org/namespaces/inkscape"
   width="297mm"
   height="210mm"
   viewBox="0 0 297 210"
   version="1.1"
   id="svg8"
   inkscape:version="1.0.2-2 (e86c870879, 2021-01-15)"
   sodipodi:docname="banco_areia.svg">
  <defs
     id="defs2">
    <pattern
       id="EMFhbasepattern"
       patternUnits="userSpaceOnUse"
       width="6"
       height="6"
       x="0"
       y="0" />
    <pattern
       id="EMFhbasepattern-6"
       patternUnits="userSpaceOnUse"
       width="6"
       height="6"
       x="0"
       y="0" />
    <pattern
       id="EMFhbasepattern-0"
       patternUnits="userSpaceOnUse"
       width="6"
       height="6"
       x="0"
       y="0" />
    <pattern
       id="EMFhbasepattern-1"
       patternUnits="userSpaceOnUse"
       width="6"
       height="6"
       x="0"
       y="0" />
  </defs>
  <sodipodi:namedview
     id="base"
     pagecolor="#ffffff"
     bordercolor="#666666"
     borderopacity="1.0"
     inkscape:pageopacity="0.0"
     inkscape:pageshadow="2"
     inkscape:zoom="0.7"
     inkscape:cx="541.17226"
     inkscape:cy="380.88873"
     inkscape:document-units="mm"
     inkscape:current-layer="layer1"
     inkscape:document-rotation="0"
     showgrid="false"
     inkscape:window-width="1680"
     inkscape:window-height="987"
     inkscape:window-x="-8"
     inkscape:window-y="-8"
     inkscape:window-maximized="1" />
  <metadata
     id="metadata5">
    <rdf:RDF>
      <cc:Work
         rdf:about="">
        <dc:format>image/svg+xml</dc:format>
        <dc:type
           rdf:resource="http://purl.org/dc/dcmitype/StillImage" />
        <dc:title></dc:title>
      </cc:Work>
    </rdf:RDF>
  </metadata>
  <g
     inkscape:label="Layer 1"
     inkscape:groupmode="layer"
     id="layer1">
    <path
       style="fill:none;stroke:#ffdf7f;stroke-width:0.0461867px;stroke-linecap:round;stroke-linejoin:round;stroke-miterlimit:4;stroke-dasharray:none;stroke-opacity:1"
       d="m 247.27229,91.197589 -3.53008,3.413764 -18.13169,10.507857 -13.3982,9.44112 -18.89385,9.44113 -15.76498,9.44107 -23.62737,3.14703 -22.06288,-5.28059 -17.32942,-12.58814 -9.42685,-23.042698 -3.16905,-26.243084 -3.169045,-20.962448 12.676145,27.256504 11.63316,11.147998 19.93685,10.507912 17.16893,2.4536 h 20.45835 l 24.14883,-5.547321 22.74487,-9.281061 19.73628,-13.868318 z"
       id="path4603" />
    <path
       style="fill:none;stroke:#0052a5;stroke-width:0.0461867px;stroke-linecap:round;stroke-linejoin:round;stroke-miterlimit:4;stroke-dasharray:none;stroke-opacity:1"
       d="m 247.27229,91.197589 -3.53008,3.413764 -18.13169,10.507857 -13.3982,9.44112 -18.89385,9.44113 -15.76498,9.44107 -23.62737,3.14703 -22.06288,-5.28059 L 114.53382,118.72083 105.10697,95.678132 101.93792,69.435048 98.768875,48.4726 97.003857,38.871478 95.63997,26.443349 93.15286,10.654832 91.227375,2.1738375 91.067079,1.9071547 H 48.305133 V 21.482782 l 3.530078,4.960582 3.93121,3.947128 0.481385,5.44064 1.484219,13.334895 2.005711,10.881279 2.727803,17.815421 4.252128,35.257473 18.372372,44.85855 33.335021,24.21621 33.93678,8.05424 35.66165,-4.74721 20.53856,-12.2681 20.0973,-10.02786 14.32085,-10.08117 4.29223,-2.50695 z"
       id="path4605" />
    <path
       style="fill:none;stroke:#212830;stroke-width:0.0461867px;stroke-linecap:round;stroke-linejoin:round;stroke-miterlimit:4;stroke-dasharray:none;stroke-opacity:1"
       d="M 48.304991,1.9071396 H 247.27229 V 206.35774 H 48.304991 Z"
       id="path4607" />
    <path
       style="fill:none;stroke:#ffdf7f;stroke-width:0.0461867px;stroke-linecap:round;stroke-linejoin:round;stroke-miterlimit:4;stroke-dasharray:none;stroke-opacity:1"
       d="m 247.27229,91.197589 -3.53008,3.413764 -18.13169,10.507857 -13.3982,9.44112 -18.89385,9.44113 -15.76498,9.44107 -23.62737,3.14703 -22.06288,-5.28059 -17.32942,-12.58814 -9.42685,-23.042698 -3.16905,-26.243084 -3.169045,-20.962448 12.676145,27.256504 11.63316,11.147998 19.93685,10.507912 17.16893,2.4536 h 20.45835 l 24.14883,-5.547321 22.74487,-9.281061 19.73628,-13.868318"
       id="path4609" />
    <path
       style="fill:none;stroke:#ffdf7f;stroke-width:0.0461867px;stroke-linecap:round;stroke-linejoin:round;stroke-miterlimit:4;stroke-dasharray:none;stroke-opacity:1"
       d="M 247.27229,71.141914 V 91.197589"
       id="path4611" />
    <path
       style="fill:#ffdf7f;fill-opacity:1;fill-rule:evenodd;stroke:none;stroke-width:1.1098"
       d="m 98.768875,48.4726 9.747795,20.962448 h -6.57875 z"
       id="path4613" />
    <path
       style="fill:#ffdf7f;fill-opacity:1;fill-rule:evenodd;stroke:none;stroke-width:1.1098"
       d="m 98.768875,48.4726 9.747795,20.962448 v 0 z"
       id="path4615" />
    <path
       style="fill:#ffdf7f;fill-opacity:1;fill-rule:evenodd;stroke:none;stroke-width:1.1098"
       d="m 247.27229,71.141914 v 4.58719 h -6.57876 z"
       id="path4617" />
    <path
       style="fill:#ffdf7f;fill-opacity:1;fill-rule:evenodd;stroke:none;stroke-width:1.1098"
       d="m 101.93792,69.435048 9.5071,6.294056 h -8.74494 z"
       id="path4619" />
    <path
       style="fill:#ffdf7f;fill-opacity:1;fill-rule:evenodd;stroke:none;stroke-width:1.1098"
       d="m 101.93792,69.435048 h 6.57875 l 2.92835,6.294056 z"
       id="path4621" />
    <path
       style="fill:#ffdf7f;fill-opacity:1;fill-rule:evenodd;stroke:none;stroke-width:1.1098"
       d="m 240.69353,75.729104 6.57876,9.281128 h -19.73628 z"
       id="path4623" />
    <path
       style="fill:#ffdf7f;fill-opacity:1;fill-rule:evenodd;stroke:none;stroke-width:1.1098"
       d="m 240.69353,75.729104 h 6.57876 v 9.281128 z"
       id="path4625" />
    <path
       style="fill:#ffdf7f;fill-opacity:1;fill-rule:evenodd;stroke:none;stroke-width:1.1098"
       d="m 102.70008,75.729104 20.3781,11.147998 h -19.05433 z"
       id="path4627" />
    <path
       style="fill:#ffdf7f;fill-opacity:1;fill-rule:evenodd;stroke:none;stroke-width:1.1098"
       d="m 102.70008,75.729104 h 8.74494 l 11.63316,11.147998 z"
       id="path4629" />
    <path
       style="fill:#ffdf7f;fill-opacity:1;fill-rule:evenodd;stroke:none;stroke-width:1.1098"
       d="m 227.53601,85.010232 19.73628,6.187357 h -34.85938 z"
       id="path4631" />
    <path
       style="fill:#ffdf7f;fill-opacity:1;fill-rule:evenodd;stroke:none;stroke-width:1.1098"
       d="m 227.53601,85.010232 h 19.73628 v 6.187357 z"
       id="path4633" />
    <path
       style="fill:#ffdf7f;fill-opacity:1;fill-rule:evenodd;stroke:none;stroke-width:1.1098"
       d="m 212.41291,91.197589 31.69032,3.093704 h -39.31209 z"
       id="path4635" />
    <path
       style="fill:#ffdf7f;fill-opacity:1;fill-rule:evenodd;stroke:none;stroke-width:1.1098"
       d="m 212.41291,91.197589 h 34.85938 l -3.16906,3.093704 z"
       id="path4637" />
    <path
       style="fill:#ffdf7f;fill-opacity:1;fill-rule:evenodd;stroke:none;stroke-width:1.1098"
       d="m 204.79114,94.291293 38.95107,0.320195 h -40.43528 z"
       id="path4639" />
    <path
       style="fill:#ffdf7f;fill-opacity:1;fill-rule:evenodd;stroke:none;stroke-width:1.1098"
       d="m 204.79114,94.291293 h 39.31209 l -0.36102,0.320195 z"
       id="path4641" />
    <path
       style="fill:#ffdf7f;fill-opacity:1;fill-rule:evenodd;stroke:none;stroke-width:1.1098"
       d="m 104.02385,86.877102 35.78202,8.80103 h -34.6989 z"
       id="path4643" />
    <path
       style="fill:#ffdf7f;fill-opacity:1;fill-rule:evenodd;stroke:none;stroke-width:1.1098"
       d="m 104.02385,86.877102 h 19.05433 l 16.72769,8.80103 z"
       id="path4645" />
    <path
       style="fill:#ffdf7f;fill-opacity:1;fill-rule:evenodd;stroke:none;stroke-width:1.1098"
       d="m 105.10697,95.678132 37.90806,1.706882 h -37.22612 z"
       id="path4647" />
    <path
       style="fill:#ffdf7f;fill-opacity:1;fill-rule:evenodd;stroke:none;stroke-width:1.1098"
       d="m 105.10697,95.678132 h 34.6989 l 3.20916,1.706882 z"
       id="path4649" />
    <path
       style="fill:#ffdf7f;fill-opacity:1;fill-rule:evenodd;stroke:none;stroke-width:1.1098"
       d="m 203.30693,94.611353 31.40956,5.227261 h -54.07418 z"
       id="path4651" />
    <path
       style="fill:#ffdf7f;fill-opacity:1;fill-rule:evenodd;stroke:none;stroke-width:1.1098"
       d="m 203.30693,94.611353 h 40.43528 l -9.02572,5.227261 z"
       id="path4653" />
    <path
       style="fill:#ffdf7f;fill-opacity:1;fill-rule:evenodd;stroke:none;stroke-width:1.1098"
       d="m 105.78891,97.385014 54.39505,2.4536 h -53.3922 z"
       id="path4655" />
    <path
       style="fill:#ffdf7f;fill-opacity:1;fill-rule:evenodd;stroke:none;stroke-width:1.1098"
       d="m 105.78891,97.385014 h 37.22612 l 17.16893,2.4536 z"
       id="path4657" />
    <path
       style="fill:#ffdf7f;fill-opacity:1;fill-rule:evenodd;stroke:none;stroke-width:1.1098"
       d="m 106.79176,99.838614 118.81876,5.280596 h -116.6526 z"
       id="path4659" />
    <path
       style="fill:#ffdf7f;fill-opacity:1;fill-rule:evenodd;stroke:none;stroke-width:1.1098"
       d="m 106.79176,99.838614 h 127.92473 l -9.10597,5.280596 z"
       id="path4661" />
    <path
       style="fill:#ffdf7f;fill-opacity:1;fill-rule:evenodd;stroke:none;stroke-width:1.1098"
       d="m 108.95792,105.11921 103.2544,9.44112 h -99.40341 z"
       id="path4663" />
    <path
       style="fill:#ffdf7f;fill-opacity:1;fill-rule:evenodd;stroke:none;stroke-width:1.1098"
       d="m 108.95792,105.11921 h 116.6526 l -13.3982,9.44112 z"
       id="path4665" />
    <path
       style="fill:#ffdf7f;fill-opacity:1;fill-rule:evenodd;stroke:none;stroke-width:1.1098"
       d="m 112.80891,114.56033 91.01953,4.1605 h -89.29462 z"
       id="path4667" />
    <path
       style="fill:#ffdf7f;fill-opacity:1;fill-rule:evenodd;stroke:none;stroke-width:1.1098"
       d="m 112.80891,114.56033 h 99.40341 l -8.38388,4.1605 z"
       id="path4669" />
    <path
       style="fill:#ffdf7f;fill-opacity:1;fill-rule:evenodd;stroke:none;stroke-width:1.1098"
       d="m 114.53382,118.72083 78.78465,5.28063 H 121.7544 Z"
       id="path4671" />
    <path
       style="fill:#ffdf7f;fill-opacity:1;fill-rule:evenodd;stroke:none;stroke-width:1.1098"
       d="m 114.53382,118.72083 h 89.29462 l -10.50997,5.28063 z"
       id="path4673" />
    <path
       style="fill:#ffdf7f;fill-opacity:1;fill-rule:evenodd;stroke:none;stroke-width:1.1098"
       d="m 121.7544,124.00146 59.28905,7.30751 h -49.18021 z"
       id="path4675" />
    <path
       style="fill:#ffdf7f;fill-opacity:1;fill-rule:evenodd;stroke:none;stroke-width:1.1098"
       d="m 121.7544,124.00146 h 71.56407 l -12.27502,7.30751 z"
       id="path4677" />
    <path
       style="fill:#ffdf7f;fill-opacity:1;fill-rule:evenodd;stroke:none;stroke-width:1.1098"
       d="m 140.6884,133.44253 h 36.86509 l -23.62737,3.14703 z"
       id="path4679" />
    <path
       style="fill:#ffdf7f;fill-opacity:1;fill-rule:evenodd;stroke:none;stroke-width:1.1098"
       d="m 131.86324,131.30897 45.69025,2.13356 H 140.6884 Z"
       id="path4681" />
    <path
       style="fill:#ffdf7f;fill-opacity:1;fill-rule:evenodd;stroke:none;stroke-width:1.1098"
       d="m 131.86324,131.30897 h 49.18021 l -3.48996,2.13356 z"
       id="path4683" />
    <path
       style="fill:none;stroke:#ffdf7f;stroke-width:0.0461867px;stroke-linecap:round;stroke-linejoin:round;stroke-miterlimit:4;stroke-dasharray:none;stroke-opacity:1"
       d="m 247.27229,91.197589 -3.53008,3.413764 -18.13169,10.507857 -13.3982,9.44112 -18.89385,9.44113 -15.76498,9.44107 -23.62737,3.14703 -22.06288,-5.28059 -17.32942,-12.58814 -9.42685,-23.042698 -3.16905,-26.243084 -3.169045,-20.962448 12.676145,27.256504 11.63316,11.147998 19.93685,10.507912 17.16893,2.4536 h 20.45835 l 24.14883,-5.547321 22.74487,-9.281061 19.73628,-13.868318 z"
       id="path4685" />
    <path
       style="fill:none;stroke:#0052a5;stroke-width:0.0461867px;stroke-linecap:round;stroke-linejoin:round;stroke-miterlimit:4;stroke-dasharray:none;stroke-opacity:1"
       d="m 247.27229,91.197589 -3.53008,3.413764 -18.13169,10.507857 -13.3982,9.44112 -18.89385,9.44113 -15.76498,9.44107 -23.62737,3.14703 -22.06288,-5.28059 L 114.53382,118.72083 105.10697,95.678132 101.93792,69.435048 98.768875,48.4726 97.003857,38.871478 95.63997,26.443349 93.15286,10.654832 91.227375,2.1738375 91.067079,1.9071547 H 48.305133 V 21.482782 l 3.530078,4.960582 3.93121,3.947128 0.481385,5.44064 1.484219,13.334895 2.005711,10.881279 2.727803,17.815421 4.252128,35.257473 18.372372,44.85855 33.335021,24.21621 33.93678,8.05424 35.66165,-4.74721 20.53856,-12.2681 20.0973,-10.02786 14.32085,-10.08117 4.29223,-2.50695"
       id="path4687" />
    <path
       style="fill:none;stroke:#0052a5;stroke-width:0.0461867px;stroke-linecap:round;stroke-linejoin:round;stroke-miterlimit:4;stroke-dasharray:none;stroke-opacity:1"
       d="M 247.27229,150.61791 V 91.197589"
       id="path4689" />
    <path
       style="fill:#0052a5;fill-opacity:1;fill-rule:evenodd;stroke:none;stroke-width:1.1098"
       d="M 48.304991,1.9071396 91.227375,2.1738223 H 48.304991 Z"
       id="path4691" />
    <path
       style="fill:#0052a5;fill-opacity:1;fill-rule:evenodd;stroke:none;stroke-width:1.1098"
       d="M 48.304991,1.9071396 H 91.066923 L 91.22722,2.1738223 Z"
       id="path4693" />
    <path
       style="fill:#0052a5;fill-opacity:1;fill-rule:evenodd;stroke:none;stroke-width:1.1098"
       d="M 48.304991,2.1738375 93.15286,10.654832 H 48.304991 Z"
       id="path4695" />
    <path
       style="fill:#0052a5;fill-opacity:1;fill-rule:evenodd;stroke:none;stroke-width:1.1098"
       d="M 48.304991,2.1738375 H 91.227375 L 93.15286,10.654832 Z"
       id="path4697" />
    <path
       style="fill:#0052a5;fill-opacity:1;fill-rule:evenodd;stroke:none;stroke-width:1.1098"
       d="M 48.304991,10.654832 94.837666,21.482767 H 48.304991 Z"
       id="path4699" />
    <path
       style="fill:#0052a5;fill-opacity:1;fill-rule:evenodd;stroke:none;stroke-width:1.1098"
       d="M 48.304991,10.654832 H 93.15286 l 1.684806,10.827935 z"
       id="path4701" />
    <path
       style="fill:#0052a5;fill-opacity:1;fill-rule:evenodd;stroke:none;stroke-width:1.1098"
       d="M 48.304991,21.482767 95.63997,26.443349 H 51.835055 Z"
       id="path4703" />
    <path
       style="fill:#0052a5;fill-opacity:1;fill-rule:evenodd;stroke:none;stroke-width:1.1098"
       d="m 48.304991,21.482767 h 46.532675 l 0.802304,4.960582 z"
       id="path4705" />
    <path
       style="fill:#0052a5;fill-opacity:1;fill-rule:evenodd;stroke:none;stroke-width:1.1098"
       d="M 51.835055,26.443349 H 95.63997 Z"
       id="path4707" />
    <path
       style="fill:#0052a5;fill-opacity:1;fill-rule:evenodd;stroke:none;stroke-width:1.1098"
       d="M 51.835055,26.443349 H 95.63997 v 0 z"
       id="path4709" />
    <path
       style="fill:#0052a5;fill-opacity:1;fill-rule:evenodd;stroke:none;stroke-width:1.1098"
       d="m 51.835055,26.443349 44.246166,3.947126 H 55.766265 Z"
       id="path4711" />
    <path
       style="fill:#0052a5;fill-opacity:1;fill-rule:evenodd;stroke:none;stroke-width:1.1098"
       d="M 51.835055,26.443349 H 95.63997 l 0.441251,3.947126 z"
       id="path4713" />
    <path
       style="fill:#0052a5;fill-opacity:1;fill-rule:evenodd;stroke:none;stroke-width:1.1098"
       d="m 55.766265,30.390475 40.916674,5.44064 H 56.247664 Z"
       id="path4715" />
    <path
       style="fill:#0052a5;fill-opacity:1;fill-rule:evenodd;stroke:none;stroke-width:1.1098"
       d="m 55.766265,30.390475 h 40.314956 l 0.601718,5.44064 z"
       id="path4717" />
    <path
       style="fill:#0052a5;fill-opacity:1;fill-rule:evenodd;stroke:none;stroke-width:1.1098"
       d="m 56.247664,35.831115 40.756193,3.040363 H 56.608689 Z"
       id="path4719" />
    <path
       style="fill:#0052a5;fill-opacity:1;fill-rule:evenodd;stroke:none;stroke-width:1.1098"
       d="m 56.247664,35.831115 h 40.435275 l 0.320947,3.040363 z"
       id="path4721" />
    <path
       style="fill:#0052a5;fill-opacity:1;fill-rule:evenodd;stroke:none;stroke-width:1.1098"
       d="M 56.608689,38.871478 98.768875,48.4726 H 57.691763 Z"
       id="path4723" />
    <path
       style="fill:#0052a5;fill-opacity:1;fill-rule:evenodd;stroke:none;stroke-width:1.1098"
       d="M 56.608689,38.871478 H 97.003857 L 98.768875,48.4726 Z"
       id="path4725" />
    <path
       style="fill:#0052a5;fill-opacity:1;fill-rule:evenodd;stroke:none;stroke-width:1.1098"
       d="m 57.691763,48.4726 41.197473,0.69341 H 57.731869 Z"
       id="path4727" />
    <path
       style="fill:#0052a5;fill-opacity:1;fill-rule:evenodd;stroke:none;stroke-width:1.1098"
       d="m 57.691763,48.4726 h 41.077112 l 0.120177,0.69341 z"
       id="path4729" />
    <path
       style="fill:#0052a5;fill-opacity:1;fill-rule:evenodd;stroke:none;stroke-width:1.1098"
       d="M 57.731869,49.16601 100.53392,60.047289 H 59.737594 Z"
       id="path4731" />
    <path
       style="fill:#0052a5;fill-opacity:1;fill-rule:evenodd;stroke:none;stroke-width:1.1098"
       d="m 57.731869,49.16601 h 41.157367 l 1.644684,10.881279 z"
       id="path4733" />
    <path
       style="fill:#0052a5;fill-opacity:1;fill-rule:evenodd;stroke:none;stroke-width:1.1098"
       d="m 59.737594,60.047289 42.200326,9.387759 H 61.181722 Z"
       id="path4735" />
    <path
       style="fill:#0052a5;fill-opacity:1;fill-rule:evenodd;stroke:none;stroke-width:1.1098"
       d="m 59.737594,60.047289 h 40.796326 l 1.404,9.387759 z"
       id="path4737" />
    <path
       style="fill:#0052a5;fill-opacity:1;fill-rule:evenodd;stroke:none;stroke-width:1.1098"
       d="M 61.181722,69.435048 102.94078,77.86271 H 62.465397 Z"
       id="path4739" />
    <path
       style="fill:#0052a5;fill-opacity:1;fill-rule:evenodd;stroke:none;stroke-width:1.1098"
       d="m 61.181722,69.435048 h 40.756198 l 1.00286,8.427662 z"
       id="path4741" />
    <path
       style="fill:#0052a5;fill-opacity:1;fill-rule:evenodd;stroke:none;stroke-width:1.1098"
       d="m 247.27229,91.197589 v 3.413764 h -3.53008 z"
       id="path4743" />
    <path
       style="fill:#0052a5;fill-opacity:1;fill-rule:evenodd;stroke:none;stroke-width:1.1098"
       d="M 62.465397,77.86271 105.10697,95.678132 H 64.59144 Z"
       id="path4745" />
    <path
       style="fill:#0052a5;fill-opacity:1;fill-rule:evenodd;stroke:none;stroke-width:1.1098"
       d="m 62.465397,77.86271 h 40.475383 l 2.16619,17.815422 z"
       id="path4747" />
    <path
       style="fill:#0052a5;fill-opacity:1;fill-rule:evenodd;stroke:none;stroke-width:1.1098"
       d="m 243.74221,94.611353 3.53008,10.507857 h -21.66177 z"
       id="path4749" />
    <path
       style="fill:#0052a5;fill-opacity:1;fill-rule:evenodd;stroke:none;stroke-width:1.1098"
       d="m 243.74221,94.611353 h 3.53008 v 10.507857 z"
       id="path4751" />
    <path
       style="fill:#0052a5;fill-opacity:1;fill-rule:evenodd;stroke:none;stroke-width:1.1098"
       d="M 64.59144,95.678132 112.2473,113.12019 H 66.717511 Z"
       id="path4753" />
    <path
       style="fill:#0052a5;fill-opacity:1;fill-rule:evenodd;stroke:none;stroke-width:1.1098"
       d="m 64.59144,95.678132 h 40.51553 l 7.14033,17.442058 z"
       id="path4755" />
    <path
       style="fill:#0052a5;fill-opacity:1;fill-rule:evenodd;stroke:none;stroke-width:1.1098"
       d="m 225.61052,105.11921 21.66177,9.44112 h -35.05997 z"
       id="path4757" />
    <path
       style="fill:#0052a5;fill-opacity:1;fill-rule:evenodd;stroke:none;stroke-width:1.1098"
       d="m 225.61052,105.11921 h 21.66177 v 9.44112 z"
       id="path4759" />
    <path
       style="fill:#0052a5;fill-opacity:1;fill-rule:evenodd;stroke:none;stroke-width:1.1098"
       d="m 66.717511,113.12019 47.816309,5.60064 H 69.004035 Z"
       id="path4761" />
    <path
       style="fill:#0052a5;fill-opacity:1;fill-rule:evenodd;stroke:none;stroke-width:1.1098"
       d="M 66.717511,113.12019 H 112.2473 l 2.28652,5.60064 z"
       id="path4763" />
    <path
       style="fill:#0052a5;fill-opacity:1;fill-rule:evenodd;stroke:none;stroke-width:1.1098"
       d="m 212.21232,114.56033 35.05997,9.44113 h -53.95382 z"
       id="path4765" />
    <path
       style="fill:#0052a5;fill-opacity:1;fill-rule:evenodd;stroke:none;stroke-width:1.1098"
       d="m 212.21232,114.56033 h 35.05997 v 9.44113 z"
       id="path4767" />
    <path
       style="fill:#0052a5;fill-opacity:1;fill-rule:evenodd;stroke:none;stroke-width:1.1098"
       d="m 69.004035,118.72083 62.859205,12.58814 H 74.178757 Z"
       id="path4769" />
    <path
       style="fill:#0052a5;fill-opacity:1;fill-rule:evenodd;stroke:none;stroke-width:1.1098"
       d="m 69.004035,118.72083 h 45.529785 l 17.32942,12.58814 z"
       id="path4771" />
    <path
       style="fill:#0052a5;fill-opacity:1;fill-rule:evenodd;stroke:none;stroke-width:1.1098"
       d="m 193.31847,124.00146 53.95382,9.44107 h -69.7188 z"
       id="path4773" />
    <path
       style="fill:#0052a5;fill-opacity:1;fill-rule:evenodd;stroke:none;stroke-width:1.1098"
       d="m 193.31847,124.00146 h 53.95382 v 9.44107 z"
       id="path4775" />
    <path
       style="fill:#0052a5;fill-opacity:1;fill-rule:evenodd;stroke:none;stroke-width:1.1098"
       d="m 177.55349,133.44253 69.7188,3.14703 h -93.34617 z"
       id="path4777" />
    <path
       style="fill:#0052a5;fill-opacity:1;fill-rule:evenodd;stroke:none;stroke-width:1.1098"
       d="m 177.55349,133.44253 h 69.7188 v 3.14703 z"
       id="path4779" />
    <path
       style="fill:#0052a5;fill-opacity:1;fill-rule:evenodd;stroke:none;stroke-width:1.1098"
       d="m 74.178757,131.30897 79.747363,5.28059 H 76.304842 Z"
       id="path4781" />
    <path
       style="fill:#0052a5;fill-opacity:1;fill-rule:evenodd;stroke:none;stroke-width:1.1098"
       d="m 74.178757,131.30897 h 57.684483 l 22.06288,5.28059 z"
       id="path4783" />
    <path
       style="fill:#0052a5;fill-opacity:1;fill-rule:evenodd;stroke:none;stroke-width:1.1098"
       d="M 76.304842,136.58956 247.27229,150.61791 H 82.041175 Z"
       id="path4785" />
    <path
       style="fill:#0052a5;fill-opacity:1;fill-rule:evenodd;stroke:none;stroke-width:1.1098"
       d="M 76.304842,136.58956 H 247.27229 v 14.02835 z"
       id="path4787" />
    <path
       style="fill:#0052a5;fill-opacity:1;fill-rule:evenodd;stroke:none;stroke-width:1.1098"
       d="m 82.041175,150.61791 160.938865,2.50693 H 83.084144 Z"
       id="path4789" />
    <path
       style="fill:#0052a5;fill-opacity:1;fill-rule:evenodd;stroke:none;stroke-width:1.1098"
       d="M 82.041175,150.61791 H 247.27229 l -4.29225,2.50693 z"
       id="path4791" />
    <path
       style="fill:#0052a5;fill-opacity:1;fill-rule:evenodd;stroke:none;stroke-width:1.1098"
       d="m 83.084144,153.12484 152.956126,4.85391 H 85.089897 Z"
       id="path4793" />
    <path
       style="fill:#0052a5;fill-opacity:1;fill-rule:evenodd;stroke:none;stroke-width:1.1098"
       d="M 83.084144,153.12484 H 242.98004 l -6.93977,4.85391 z"
       id="path4795" />
    <path
       style="fill:#0052a5;fill-opacity:1;fill-rule:evenodd;stroke:none;stroke-width:1.1098"
       d="m 85.089897,157.97875 143.569313,5.22726 H 92.27033 Z"
       id="path4797" />
    <path
       style="fill:#0052a5;fill-opacity:1;fill-rule:evenodd;stroke:none;stroke-width:1.1098"
       d="M 85.089897,157.97875 H 236.04027 l -7.38106,5.22726 z"
       id="path4799" />
    <path
       style="fill:#0052a5;fill-opacity:1;fill-rule:evenodd;stroke:none;stroke-width:1.1098"
       d="m 92.27033,163.20601 116.29158,10.02786 h -102.4922 z"
       id="path4801" />
    <path
       style="fill:#0052a5;fill-opacity:1;fill-rule:evenodd;stroke:none;stroke-width:1.1098"
       d="m 92.27033,163.20601 h 136.38888 l -20.0973,10.02786 z"
       id="path4803" />
    <path
       style="fill:#0052a5;fill-opacity:1;fill-rule:evenodd;stroke:none;stroke-width:1.1098"
       d="m 106.06971,173.23387 87.48941,8.96107 h -75.1342 z"
       id="path4805" />
    <path
       style="fill:#0052a5;fill-opacity:1;fill-rule:evenodd;stroke:none;stroke-width:1.1098"
       d="m 106.06971,173.23387 h 102.4922 l -15.00279,8.96107 z"
       id="path4807" />
    <path
       style="fill:#0052a5;fill-opacity:1;fill-rule:evenodd;stroke:none;stroke-width:1.1098"
       d="m 132.42485,185.50197 h 55.5985 l -35.66166,4.74721 z"
       id="path4809" />
    <path
       style="fill:#0052a5;fill-opacity:1;fill-rule:evenodd;stroke:none;stroke-width:1.1098"
       d="m 118.42492,182.19494 69.59843,3.30703 h -55.5985 z"
       id="path4811" />
    <path
       style="fill:#0052a5;fill-opacity:1;fill-rule:evenodd;stroke:none;stroke-width:1.1098"
       d="m 118.42492,182.19494 h 75.1342 l -5.53577,3.30703 z"
       id="path4813" />
    <path
       style="fill:none;stroke:#0052a5;stroke-width:0.0461867px;stroke-linecap:round;stroke-linejoin:round;stroke-miterlimit:4;stroke-dasharray:none;stroke-opacity:1"
       d="m 247.27229,91.197589 -3.53008,3.413764 -18.13169,10.507857 -13.3982,9.44112 -18.89385,9.44113 -15.76498,9.44107 -23.62737,3.14703 -22.06288,-5.28059 L 114.53382,118.72083 105.10697,95.678132 101.93792,69.435048 98.768875,48.4726 97.003857,38.871478 95.63997,26.443349 93.15286,10.654832 91.227375,2.1738375 91.067079,1.9071547 H 48.305133 V 21.482782 l 3.530078,4.960582 3.93121,3.947128 0.481385,5.44064 1.484219,13.334895 2.005711,10.881279 2.727803,17.815421 4.252128,35.257473 18.372372,44.85855 33.335021,24.21621 33.93678,8.05424 35.66165,-4.74721 20.53856,-12.2681 20.0973,-10.02786 14.32085,-10.08117 4.29223,-2.50695 z"
       id="path4815" />
  </g>
</svg>
