<?xml version="1.0" encoding="UTF-8" standalone="no"?>
<svg
   xmlns:dc="http://purl.org/dc/elements/1.1/"
   xmlns:cc="http://creativecommons.org/ns#"
   xmlns:rdf="http://www.w3.org/1999/02/22-rdf-syntax-ns#"
   xmlns:svg="http://www.w3.org/2000/svg"
   xmlns="http://www.w3.org/2000/svg"
   xmlns:sodipodi="http://sodipodi.sourceforge.net/DTD/sodipodi-0.dtd"
   xmlns:inkscape="http://www.inkscape.org/namespaces/inkscape"
   width="297mm"
   height="210mm"
   viewBox="0 0 297 210"
   version="1.1"
   id="svg8"
   inkscape:version="1.0.2-2 (e86c870879, 2021-01-15)"
   sodipodi:docname="boia_sinalizacao.svg">
  <defs
     id="defs2">
    <pattern
       id="EMFhbasepattern"
       patternUnits="userSpaceOnUse"
       width="6"
       height="6"
       x="0"
       y="0" />
    <pattern
       id="EMFhbasepattern-0"
       patternUnits="userSpaceOnUse"
       width="6"
       height="6"
       x="0"
       y="0" />
    <pattern
       id="EMFhbasepattern-07"
       patternUnits="userSpaceOnUse"
       width="6"
       height="6"
       x="0"
       y="0" />
    <pattern
       id="EMFhbasepattern-5"
       patternUnits="userSpaceOnUse"
       width="6"
       height="6"
       x="0"
       y="0" />
    <pattern
       id="EMFhbasepattern-01"
       patternUnits="userSpaceOnUse"
       width="6"
       height="6"
       x="0"
       y="0" />
    <pattern
       id="EMFhbasepattern-1"
       patternUnits="userSpaceOnUse"
       width="6"
       height="6"
       x="0"
       y="0" />
    <pattern
       id="EMFhbasepattern-2"
       patternUnits="userSpaceOnUse"
       width="6"
       height="6"
       x="0"
       y="0" />
    <pattern
       id="EMFhbasepattern-3"
       patternUnits="userSpaceOnUse"
       width="6"
       height="6"
       x="0"
       y="0" />
    <pattern
       id="EMFhbasepattern-21"
       patternUnits="userSpaceOnUse"
       width="6"
       height="6"
       x="0"
       y="0" />
    <pattern
       id="EMFhbasepattern-51"
       patternUnits="userSpaceOnUse"
       width="6"
       height="6"
       x="0"
       y="0" />
    <pattern
       id="EMFhbasepattern-7"
       patternUnits="userSpaceOnUse"
       width="6"
       height="6"
       x="0"
       y="0" />
    <pattern
       id="EMFhbasepattern-6"
       patternUnits="userSpaceOnUse"
       width="6"
       height="6"
       x="0"
       y="0" />
    <pattern
       id="EMFhbasepattern-61"
       patternUnits="userSpaceOnUse"
       width="6"
       height="6"
       x="0"
       y="0" />
    <pattern
       id="EMFhbasepattern-612"
       patternUnits="userSpaceOnUse"
       width="6"
       height="6"
       x="0"
       y="0" />
    <pattern
       id="EMFhbasepattern-39"
       patternUnits="userSpaceOnUse"
       width="6"
       height="6"
       x="0"
       y="0" />
    <pattern
       id="EMFhbasepattern-25"
       patternUnits="userSpaceOnUse"
       width="6"
       height="6"
       x="0"
       y="0" />
    <pattern
       id="EMFhbasepattern-16"
       patternUnits="userSpaceOnUse"
       width="6"
       height="6"
       x="0"
       y="0" />
    <pattern
       id="EMFhbasepattern-22"
       patternUnits="userSpaceOnUse"
       width="6"
       height="6"
       x="0"
       y="0" />
    <pattern
       id="EMFhbasepattern-4"
       patternUnits="userSpaceOnUse"
       width="6"
       height="6"
       x="0"
       y="0" />
    <pattern
       id="EMFhbasepattern-06"
       patternUnits="userSpaceOnUse"
       width="6"
       height="6"
       x="0"
       y="0" />
    <pattern
       id="EMFhbasepattern-31"
       patternUnits="userSpaceOnUse"
       width="6"
       height="6"
       x="0"
       y="0" />
    <pattern
       id="EMFhbasepattern-37"
       patternUnits="userSpaceOnUse"
       width="6"
       height="6"
       x="0"
       y="0" />
    <pattern
       id="EMFhbasepattern-55"
       patternUnits="userSpaceOnUse"
       width="6"
       height="6"
       x="0"
       y="0" />
    <pattern
       id="EMFhbasepattern-8"
       patternUnits="userSpaceOnUse"
       width="6"
       height="6"
       x="0"
       y="0" />
    <pattern
       id="EMFhbasepattern-9"
       patternUnits="userSpaceOnUse"
       width="6"
       height="6"
       x="0"
       y="0" />
    <pattern
       id="EMFhbasepattern-40"
       patternUnits="userSpaceOnUse"
       width="6"
       height="6"
       x="0"
       y="0" />
    <pattern
       id="EMFhbasepattern-12"
       patternUnits="userSpaceOnUse"
       width="6"
       height="6"
       x="0"
       y="0" />
    <pattern
       id="EMFhbasepattern-76"
       patternUnits="userSpaceOnUse"
       width="6"
       height="6"
       x="0"
       y="0" />
    <pattern
       id="EMFhbasepattern-05"
       patternUnits="userSpaceOnUse"
       width="6"
       height="6"
       x="0"
       y="0" />
    <pattern
       id="EMFhbasepattern-518"
       patternUnits="userSpaceOnUse"
       width="6"
       height="6"
       x="0"
       y="0" />
    <pattern
       id="EMFhbasepattern-41"
       patternUnits="userSpaceOnUse"
       width="6"
       height="6"
       x="0"
       y="0" />
    <pattern
       id="EMFhbasepattern-90"
       patternUnits="userSpaceOnUse"
       width="6"
       height="6"
       x="0"
       y="0" />
    <pattern
       id="EMFhbasepattern-09"
       patternUnits="userSpaceOnUse"
       width="6"
       height="6"
       x="0"
       y="0" />
    <pattern
       id="EMFhbasepattern-79"
       patternUnits="userSpaceOnUse"
       width="6"
       height="6"
       x="0"
       y="0" />
    <pattern
       id="EMFhbasepattern-96"
       patternUnits="userSpaceOnUse"
       width="6"
       height="6"
       x="0"
       y="0" />
    <pattern
       id="EMFhbasepattern-83"
       patternUnits="userSpaceOnUse"
       width="6"
       height="6"
       x="0"
       y="0" />
    <pattern
       id="EMFhbasepattern-164"
       patternUnits="userSpaceOnUse"
       width="6"
       height="6"
       x="0"
       y="0" />
    <pattern
       id="EMFhbasepattern-60"
       patternUnits="userSpaceOnUse"
       width="6"
       height="6"
       x="0"
       y="0" />
    <pattern
       id="EMFhbasepattern-99"
       patternUnits="userSpaceOnUse"
       width="6"
       height="6"
       x="0"
       y="0" />
    <pattern
       id="EMFhbasepattern-72"
       patternUnits="userSpaceOnUse"
       width="6"
       height="6"
       x="0"
       y="0" />
    <pattern
       id="EMFhbasepattern-63"
       patternUnits="userSpaceOnUse"
       width="6"
       height="6"
       x="0"
       y="0" />
    <pattern
       id="EMFhbasepattern-84"
       patternUnits="userSpaceOnUse"
       width="6"
       height="6"
       x="0"
       y="0" />
    <pattern
       id="EMFhbasepattern-062"
       patternUnits="userSpaceOnUse"
       width="6"
       height="6"
       x="0"
       y="0" />
    <pattern
       id="EMFhbasepattern-10"
       patternUnits="userSpaceOnUse"
       width="6"
       height="6"
       x="0"
       y="0" />
    <pattern
       id="EMFhbasepattern-396"
       patternUnits="userSpaceOnUse"
       width="6"
       height="6"
       x="0"
       y="0" />
    <pattern
       id="EMFhbasepattern-65"
       patternUnits="userSpaceOnUse"
       width="6"
       height="6"
       x="0"
       y="0" />
    <pattern
       id="EMFhbasepattern-92"
       patternUnits="userSpaceOnUse"
       width="6"
       height="6"
       x="0"
       y="0" />
    <pattern
       id="EMFhbasepattern-93"
       patternUnits="userSpaceOnUse"
       width="6"
       height="6"
       x="0"
       y="0" />
    <pattern
       id="EMFhbasepattern-74"
       patternUnits="userSpaceOnUse"
       width="6"
       height="6"
       x="0"
       y="0" />
    <pattern
       id="EMFhbasepattern-71"
       patternUnits="userSpaceOnUse"
       width="6"
       height="6"
       x="0"
       y="0" />
    <pattern
       id="EMFhbasepattern-20"
       patternUnits="userSpaceOnUse"
       width="6"
       height="6"
       x="0"
       y="0" />
    <pattern
       id="EMFhbasepattern-766"
       patternUnits="userSpaceOnUse"
       width="6"
       height="6"
       x="0"
       y="0" />
    <pattern
       id="EMFhbasepattern-53"
       patternUnits="userSpaceOnUse"
       width="6"
       height="6"
       x="0"
       y="0" />
    <pattern
       id="EMFhbasepattern-29"
       patternUnits="userSpaceOnUse"
       width="6"
       height="6"
       x="0"
       y="0" />
    <pattern
       id="EMFhbasepattern-88"
       patternUnits="userSpaceOnUse"
       width="6"
       height="6"
       x="0"
       y="0" />
  </defs>
  <sodipodi:namedview
     id="base"
     pagecolor="#ffffff"
     bordercolor="#666666"
     borderopacity="1.0"
     inkscape:pageopacity="0.0"
     inkscape:pageshadow="2"
     inkscape:zoom="0.7"
     inkscape:cx="594.76036"
     inkscape:cy="274.72931"
     inkscape:document-units="mm"
     inkscape:current-layer="layer1"
     inkscape:document-rotation="0"
     showgrid="false"
     inkscape:window-width="1680"
     inkscape:window-height="987"
     inkscape:window-x="-8"
     inkscape:window-y="-8"
     inkscape:window-maximized="1" />
  <metadata
     id="metadata5">
    <rdf:RDF>
      <cc:Work
         rdf:about="">
        <dc:format>image/svg+xml</dc:format>
        <dc:type
           rdf:resource="http://purl.org/dc/dcmitype/StillImage" />
        <dc:title></dc:title>
      </cc:Work>
    </rdf:RDF>
  </metadata>
  <g
     inkscape:label="Layer 1"
     inkscape:groupmode="layer"
     id="layer1">
    <path
       style="fill:none;stroke:#212830;stroke-width:0.0483166px;stroke-linecap:round;stroke-linejoin:round;stroke-miterlimit:4;stroke-dasharray:none;stroke-opacity:1"
       d="M 179.49325,3.333539 H 118.7801 L 69.948807,137.5073 118.7801,154.39603 v 21.14593 l -26.320769,11.60216 2.205923,1.96488 2.857665,2.29239 4.411891,3.18125 6.41724,3.83622 7.57032,3.64906 9.3251,3.27481 5.36441,1.3567 9.72613,1.54387 10.72885,0.46779 12.93476,-1.26309 9.22483,-2.15206 7.77088,-2.66658 9.17464,-4.35085 7.06902,-4.35082 5.01346,-3.6959 3.55957,-3.08767 -26.32077,-11.60216 v -21.14593 l 48.78116,-16.88873 z"
       id="path431589" />
    <path
       style="fill:none;stroke:#ffffff;stroke-width:0.0483166px;stroke-linecap:round;stroke-linejoin:round;stroke-miterlimit:4;stroke-dasharray:none;stroke-opacity:1"
       d="m 115.92237,80.151312 13.58652,-56.934974 h 39.70675 l 13.13534,56.934974"
       id="path431591" />
    <path
       style="fill:none;stroke:#ff0000;stroke-width:0.0483166px;stroke-linecap:round;stroke-linejoin:round;stroke-miterlimit:4;stroke-dasharray:none;stroke-opacity:1"
       d="M 179.49325,3.333539 H 118.7801 L 69.948807,137.5073 118.7801,154.39603 v 21.14593 l -26.320769,11.60216 2.205923,1.96488 2.857665,2.29239 4.411891,3.18125 6.41724,3.83622 7.57032,3.64906 9.3251,3.27481 5.36441,1.3567 9.72613,1.54387 10.72885,0.46779 12.93476,-1.26309 9.22483,-2.15206 7.77088,-2.66658 9.17464,-4.35085 7.06902,-4.35082 5.01346,-3.6959 3.55957,-3.08767 -26.32077,-11.60216 v -21.14593 l 48.78116,-16.88873"
       id="path431593" />
    <path
       style="fill:none;stroke:#ff0000;stroke-width:0.0483166px;stroke-linecap:round;stroke-linejoin:round;stroke-miterlimit:4;stroke-dasharray:none;stroke-opacity:1"
       d="M 228.27441,137.5073 179.49325,3.333539"
       id="path431595" />
    <path
       style="fill:#ff0000;fill-opacity:1;fill-rule:evenodd;stroke:none;stroke-width:1.16126"
       d="M 118.7801,3.333539 228.27441,137.5073 H 69.948807 Z"
       id="path431597" />
    <path
       style="fill:#ff0000;fill-opacity:1;fill-rule:evenodd;stroke:none;stroke-width:1.16126"
       d="m 118.7801,3.333539 h 60.71315 L 228.27441,137.5073 Z"
       id="path431599" />
    <path
       style="fill:#ff0000;fill-opacity:1;fill-rule:evenodd;stroke:none;stroke-width:1.16126"
       d="M 69.948807,137.5073 179.49325,154.39603 H 118.7801 Z"
       id="path431601" />
    <path
       style="fill:#ff0000;fill-opacity:1;fill-rule:evenodd;stroke:none;stroke-width:1.16126"
       d="M 69.948807,137.5073 H 228.27441 l -48.78116,16.88873 z"
       id="path431603" />
    <path
       style="fill:#ff0000;fill-opacity:1;fill-rule:evenodd;stroke:none;stroke-width:1.16126"
       d="m 118.7801,154.39603 60.71315,21.14593 H 118.7801 Z"
       id="path431605" />
    <path
       style="fill:#ff0000;fill-opacity:1;fill-rule:evenodd;stroke:none;stroke-width:1.16126"
       d="m 118.7801,154.39603 h 60.71315 v 21.14593 z"
       id="path431607" />
    <path
       style="fill:#ff0000;fill-opacity:1;fill-rule:evenodd;stroke:none;stroke-width:1.16126"
       d="m 118.7801,175.54196 87.03392,11.60216 H 92.459331 Z"
       id="path431609" />
    <path
       style="fill:#ff0000;fill-opacity:1;fill-rule:evenodd;stroke:none;stroke-width:1.16126"
       d="m 118.7801,175.54196 h 60.71315 l 26.32077,11.60216 z"
       id="path431611" />
    <path
       style="fill:#ff0000;fill-opacity:1;fill-rule:evenodd;stroke:none;stroke-width:1.16126"
       d="M 92.459331,187.14412 203.50781,189.109 H 94.665254 Z"
       id="path431613" />
    <path
       style="fill:#ff0000;fill-opacity:1;fill-rule:evenodd;stroke:none;stroke-width:1.16126"
       d="M 92.459331,187.14412 H 205.81402 l -2.30621,1.96488 z"
       id="path431615" />
    <path
       style="fill:#ff0000;fill-opacity:1;fill-rule:evenodd;stroke:none;stroke-width:1.16126"
       d="m 94.665254,189.109 107.589196,1.12279 H 96.069043 Z"
       id="path431617" />
    <path
       style="fill:#ff0000;fill-opacity:1;fill-rule:evenodd;stroke:none;stroke-width:1.16126"
       d="M 94.665254,189.109 H 203.50781 l -1.25336,1.12279 z"
       id="path431619" />
    <path
       style="fill:#ff0000;fill-opacity:1;fill-rule:evenodd;stroke:none;stroke-width:1.16126"
       d="m 96.069043,190.23179 104.581097,1.1696 H 97.522919 Z"
       id="path431621" />
    <path
       style="fill:#ff0000;fill-opacity:1;fill-rule:evenodd;stroke:none;stroke-width:1.16126"
       d="M 96.069043,190.23179 H 202.25445 l -1.60431,1.1696 z"
       id="path431623" />
    <path
       style="fill:#ff0000;fill-opacity:1;fill-rule:evenodd;stroke:none;stroke-width:1.16126"
       d="m 97.522919,191.40139 99.718071,2.5263 h -96.1585 z"
       id="path431625" />
    <path
       style="fill:#ff0000;fill-opacity:1;fill-rule:evenodd;stroke:none;stroke-width:1.16126"
       d="M 97.522919,191.40139 H 200.65014 l -3.40915,2.5263 z"
       id="path431627" />
    <path
       style="fill:#ff0000;fill-opacity:1;fill-rule:evenodd;stroke:none;stroke-width:1.16126"
       d="m 101.08249,193.92769 95.15581,0.65495 h -94.30349 z"
       id="path431629" />
    <path
       style="fill:#ff0000;fill-opacity:1;fill-rule:evenodd;stroke:none;stroke-width:1.16126"
       d="m 101.08249,193.92769 h 96.1585 l -1.00269,0.65495 z"
       id="path431631" />
    <path
       style="fill:#ff0000;fill-opacity:1;fill-rule:evenodd;stroke:none;stroke-width:1.16126"
       d="m 101.93481,194.58264 88.23716,3.69587 h -82.07058 z"
       id="path431633" />
    <path
       style="fill:#ff0000;fill-opacity:1;fill-rule:evenodd;stroke:none;stroke-width:1.16126"
       d="m 101.93481,194.58264 h 94.30349 l -6.06633,3.69587 z"
       id="path431635" />
    <path
       style="fill:#ff0000;fill-opacity:1;fill-rule:evenodd;stroke:none;stroke-width:1.16126"
       d="m 108.10139,198.27851 81.76977,0.14043 h -81.51911 z"
       id="path431637" />
    <path
       style="fill:#ff0000;fill-opacity:1;fill-rule:evenodd;stroke:none;stroke-width:1.16126"
       d="m 108.10139,198.27851 h 82.07058 l -0.30059,0.14043 z"
       id="path431639" />
    <path
       style="fill:#ff0000;fill-opacity:1;fill-rule:evenodd;stroke:none;stroke-width:1.16126"
       d="m 108.35205,198.41886 73.79835,3.64906 h -66.22803 z"
       id="path431641" />
    <path
       style="fill:#ff0000;fill-opacity:1;fill-rule:evenodd;stroke:none;stroke-width:1.16126"
       d="m 108.35205,198.41886 h 81.51911 l -7.72076,3.64906 z"
       id="path431643" />
    <path
       style="fill:#ff0000;fill-opacity:1;fill-rule:evenodd;stroke:none;stroke-width:1.16126"
       d="m 115.92237,202.06792 65.07496,0.56144 h -63.52075 z"
       id="path431645" />
    <path
       style="fill:#ff0000;fill-opacity:1;fill-rule:evenodd;stroke:none;stroke-width:1.16126"
       d="m 115.92237,202.06792 h 66.22803 l -1.15307,0.56144 z"
       id="path431647" />
    <path
       style="fill:#ff0000;fill-opacity:1;fill-rule:evenodd;stroke:none;stroke-width:1.16126"
       d="m 117.47658,202.62936 55.74987,2.66658 h -48.1294 z"
       id="path431649" />
    <path
       style="fill:#ff0000;fill-opacity:1;fill-rule:evenodd;stroke:none;stroke-width:1.16126"
       d="m 117.47658,202.62936 h 63.52075 l -7.77088,2.66658 z"
       id="path431651" />
    <path
       style="fill:#ff0000;fill-opacity:1;fill-rule:evenodd;stroke:none;stroke-width:1.16126"
       d="m 125.09705,205.29594 47.87868,0.0469 h -47.72826 z"
       id="path431653" />
    <path
       style="fill:#ff0000;fill-opacity:1;fill-rule:evenodd;stroke:none;stroke-width:1.16126"
       d="m 125.09705,205.29594 h 48.1294 l -0.25048,0.0469 z"
       id="path431655" />
    <path
       style="fill:#ff0000;fill-opacity:1;fill-rule:evenodd;stroke:none;stroke-width:1.16126"
       d="m 125.24747,205.34273 41.86253,1.3567 h -36.49812 z"
       id="path431657" />
    <path
       style="fill:#ff0000;fill-opacity:1;fill-rule:evenodd;stroke:none;stroke-width:1.16126"
       d="m 125.24747,205.34273 h 47.72826 l -5.86573,1.3567 z"
       id="path431659" />
    <path
       style="fill:#ff0000;fill-opacity:1;fill-rule:evenodd;stroke:none;stroke-width:1.16126"
       d="m 130.61188,206.69943 33.38974,0.74857 H 135.124 Z"
       id="path431661" />
    <path
       style="fill:#ff0000;fill-opacity:1;fill-rule:evenodd;stroke:none;stroke-width:1.16126"
       d="M 130.61188,206.69943 H 167.11 l -3.10838,0.74857 z"
       id="path431663" />
    <path
       style="fill:#ff0000;fill-opacity:1;fill-rule:evenodd;stroke:none;stroke-width:1.16126"
       d="m 140.33801,208.2433 h 15.04045 l -4.3116,0.46779 z"
       id="path431665" />
    <path
       style="fill:#ff0000;fill-opacity:1;fill-rule:evenodd;stroke:none;stroke-width:1.16126"
       d="m 135.124,207.448 20.25446,0.7953 h -15.04045 z"
       id="path431667" />
    <path
       style="fill:#ff0000;fill-opacity:1;fill-rule:evenodd;stroke:none;stroke-width:1.16126"
       d="m 135.124,207.448 h 28.87762 l -8.62316,0.7953 z"
       id="path431669" />
    <path
       style="fill:none;stroke:#ff0000;stroke-width:0.0483166px;stroke-linecap:round;stroke-linejoin:round;stroke-miterlimit:4;stroke-dasharray:none;stroke-opacity:1"
       d="M 179.49325,3.333539 H 118.7801 L 69.948807,137.5073 118.7801,154.39603 v 21.14593 l -26.320769,11.60216 2.205923,1.96488 2.857665,2.29239 4.411891,3.18125 6.41724,3.83622 7.57032,3.64906 9.3251,3.27481 5.36441,1.3567 9.72613,1.54387 10.72885,0.46779 12.93476,-1.26309 9.22483,-2.15206 7.77088,-2.66658 9.17464,-4.35085 7.06902,-4.35082 5.01346,-3.6959 3.55957,-3.08767 -26.32077,-11.60216 v -21.14593 l 48.78116,-16.88873 z"
       id="path431671" />
    <path
       style="fill:none;stroke:#ffffff;stroke-width:0.0483166px;stroke-linecap:round;stroke-linejoin:round;stroke-miterlimit:4;stroke-dasharray:none;stroke-opacity:1"
       d="m 115.92237,80.151312 13.58652,-56.934974 h 39.70675 l 13.13534,56.934974"
       id="path431673" />
    <path
       style="fill:none;stroke:#ffffff;stroke-width:0.0483166px;stroke-linecap:round;stroke-linejoin:round;stroke-miterlimit:4;stroke-dasharray:none;stroke-opacity:1"
       d="M 182.35098,80.151312 H 115.92237"
       id="path431675" />
    <path
       style="fill:#ffffff;fill-opacity:1;fill-rule:evenodd;stroke:none;stroke-width:1.16126"
       d="m 129.50889,23.216338 52.84209,56.934974 h -66.42861 z"
       id="path431677" />
    <path
       style="fill:#ffffff;fill-opacity:1;fill-rule:evenodd;stroke:none;stroke-width:1.16126"
       d="m 129.50889,23.216338 h 39.70675 l 13.13534,56.934974 z"
       id="path431679" />
    <path
       style="fill:none;stroke:#ffffff;stroke-width:0.0483166px;stroke-linecap:round;stroke-linejoin:round;stroke-miterlimit:4;stroke-dasharray:none;stroke-opacity:1"
       d="m 115.92237,80.151312 13.58652,-56.934974 h 39.70675 l 13.13534,56.934974 z"
       id="path431681" />
  </g>
</svg>
