<?xml version="1.0" encoding="UTF-8" standalone="no"?>
<svg
   xmlns:dc="http://purl.org/dc/elements/1.1/"
   xmlns:cc="http://creativecommons.org/ns#"
   xmlns:rdf="http://www.w3.org/1999/02/22-rdf-syntax-ns#"
   xmlns:svg="http://www.w3.org/2000/svg"
   xmlns="http://www.w3.org/2000/svg"
   xmlns:sodipodi="http://sodipodi.sourceforge.net/DTD/sodipodi-0.dtd"
   xmlns:inkscape="http://www.inkscape.org/namespaces/inkscape"
   width="297mm"
   height="210mm"
   viewBox="0 0 297 210"
   version="1.1"
   id="svg8"
   inkscape:version="1.0.2-2 (e86c870879, 2021-01-15)"
   sodipodi:docname="captacao_domestica.svg">
  <defs
     id="defs2">
    <pattern
       id="EMFhbasepattern"
       patternUnits="userSpaceOnUse"
       width="6"
       height="6"
       x="0"
       y="0" />
    <pattern
       id="EMFhbasepattern-0"
       patternUnits="userSpaceOnUse"
       width="6"
       height="6"
       x="0"
       y="0" />
    <pattern
       id="EMFhbasepattern-07"
       patternUnits="userSpaceOnUse"
       width="6"
       height="6"
       x="0"
       y="0" />
    <pattern
       id="EMFhbasepattern-5"
       patternUnits="userSpaceOnUse"
       width="6"
       height="6"
       x="0"
       y="0" />
    <pattern
       id="EMFhbasepattern-01"
       patternUnits="userSpaceOnUse"
       width="6"
       height="6"
       x="0"
       y="0" />
    <pattern
       id="EMFhbasepattern-1"
       patternUnits="userSpaceOnUse"
       width="6"
       height="6"
       x="0"
       y="0" />
    <pattern
       id="EMFhbasepattern-2"
       patternUnits="userSpaceOnUse"
       width="6"
       height="6"
       x="0"
       y="0" />
    <pattern
       id="EMFhbasepattern-3"
       patternUnits="userSpaceOnUse"
       width="6"
       height="6"
       x="0"
       y="0" />
    <pattern
       id="EMFhbasepattern-21"
       patternUnits="userSpaceOnUse"
       width="6"
       height="6"
       x="0"
       y="0" />
    <pattern
       id="EMFhbasepattern-51"
       patternUnits="userSpaceOnUse"
       width="6"
       height="6"
       x="0"
       y="0" />
    <pattern
       id="EMFhbasepattern-7"
       patternUnits="userSpaceOnUse"
       width="6"
       height="6"
       x="0"
       y="0" />
    <pattern
       id="EMFhbasepattern-6"
       patternUnits="userSpaceOnUse"
       width="6"
       height="6"
       x="0"
       y="0" />
    <pattern
       id="EMFhbasepattern-61"
       patternUnits="userSpaceOnUse"
       width="6"
       height="6"
       x="0"
       y="0" />
    <pattern
       id="EMFhbasepattern-612"
       patternUnits="userSpaceOnUse"
       width="6"
       height="6"
       x="0"
       y="0" />
    <pattern
       id="EMFhbasepattern-39"
       patternUnits="userSpaceOnUse"
       width="6"
       height="6"
       x="0"
       y="0" />
    <pattern
       id="EMFhbasepattern-25"
       patternUnits="userSpaceOnUse"
       width="6"
       height="6"
       x="0"
       y="0" />
    <pattern
       id="EMFhbasepattern-16"
       patternUnits="userSpaceOnUse"
       width="6"
       height="6"
       x="0"
       y="0" />
    <pattern
       id="EMFhbasepattern-22"
       patternUnits="userSpaceOnUse"
       width="6"
       height="6"
       x="0"
       y="0" />
    <pattern
       id="EMFhbasepattern-4"
       patternUnits="userSpaceOnUse"
       width="6"
       height="6"
       x="0"
       y="0" />
  </defs>
  <sodipodi:namedview
     id="base"
     pagecolor="#ffffff"
     bordercolor="#666666"
     borderopacity="1.0"
     inkscape:pageopacity="0.0"
     inkscape:pageshadow="2"
     inkscape:zoom="0.98994949"
     inkscape:cx="586.47058"
     inkscape:cy="402.44761"
     inkscape:document-units="mm"
     inkscape:current-layer="layer1"
     inkscape:document-rotation="0"
     showgrid="false"
     inkscape:window-width="1680"
     inkscape:window-height="987"
     inkscape:window-x="-8"
     inkscape:window-y="-8"
     inkscape:window-maximized="1" />
  <metadata
     id="metadata5">
    <rdf:RDF>
      <cc:Work
         rdf:about="">
        <dc:format>image/svg+xml</dc:format>
        <dc:type
           rdf:resource="http://purl.org/dc/dcmitype/StillImage" />
        <dc:title></dc:title>
      </cc:Work>
    </rdf:RDF>
  </metadata>
  <g
     inkscape:label="Layer 1"
     inkscape:groupmode="layer"
     id="layer1">
    <path
       style="fill:#999999;fill-opacity:1;fill-rule:evenodd;stroke:none;stroke-width:1.02681"
       d="m 142.33405,3.3806638 16.62564,3.3435555 h -19.94106 z"
       id="path223568" />
    <path
       style="fill:#999999;fill-opacity:1;fill-rule:evenodd;stroke:none;stroke-width:1.02681"
       d="m 142.33405,3.3806638 h 12.77397 l 3.85167,3.3435555 z"
       id="path223570" />
    <path
       style="fill:#999999;fill-opacity:1;fill-rule:evenodd;stroke:none;stroke-width:1.02681"
       d="m 132.63165,22.878481 3.60791,1.014338 h -7.70338 z"
       id="path223572" />
    <path
       style="fill:#999999;fill-opacity:1;fill-rule:evenodd;stroke:none;stroke-width:1.02681"
       d="M 139.01863,6.7242193 158.95969,23.892819 H 139.01863 Z"
       id="path223574" />
    <path
       style="fill:#999999;fill-opacity:1;fill-rule:evenodd;stroke:none;stroke-width:1.02681"
       d="m 139.01863,6.7242193 h 19.94106 V 23.892819 Z"
       id="path223576" />
    <path
       style="fill:#999999;fill-opacity:1;fill-rule:evenodd;stroke:none;stroke-width:1.02681"
       d="m 139.01863,23.892819 19.94106,1.765697 h -19.94106 z"
       id="path223578" />
    <path
       style="fill:#999999;fill-opacity:1;fill-rule:evenodd;stroke:none;stroke-width:1.02681"
       d="m 139.01863,23.892819 h 19.94106 v 1.765697 z"
       id="path223580" />
    <path
       style="fill:#999999;fill-opacity:1;fill-rule:evenodd;stroke:none;stroke-width:1.02681"
       d="m 128.53618,23.892819 10.48245,1.765697 h -12.33519 z"
       id="path223582" />
    <path
       style="fill:#999999;fill-opacity:1;fill-rule:evenodd;stroke:none;stroke-width:1.02681"
       d="m 128.53618,23.892819 h 7.70338 l 2.77907,1.765697 z"
       id="path223584" />
    <path
       style="fill:#999999;fill-opacity:1;fill-rule:evenodd;stroke:none;stroke-width:1.02681"
       d="m 126.68344,25.658516 32.27625,0.375683 h -32.71503 z"
       id="path223586" />
    <path
       style="fill:#999999;fill-opacity:1;fill-rule:evenodd;stroke:none;stroke-width:1.02681"
       d="m 126.68344,25.658516 h 32.27625 v 0.375683 z"
       id="path223588" />
    <path
       style="fill:#999999;fill-opacity:1;fill-rule:evenodd;stroke:none;stroke-width:1.02681"
       d="m 126.24466,26.034199 32.71503,2.967875 h -33.20257 z"
       id="path223590" />
    <path
       style="fill:#999999;fill-opacity:1;fill-rule:evenodd;stroke:none;stroke-width:1.02681"
       d="m 126.24466,26.034199 h 32.71503 v 2.967875 z"
       id="path223592" />
    <path
       style="fill:#999999;fill-opacity:1;fill-rule:evenodd;stroke:none;stroke-width:1.02681"
       d="m 125.75712,29.002074 33.20257,1.765699 H 126.3422 Z"
       id="path223594" />
    <path
       style="fill:#999999;fill-opacity:1;fill-rule:evenodd;stroke:none;stroke-width:1.02681"
       d="m 125.75712,29.002074 h 33.20257 v 1.765699 z"
       id="path223596" />
    <path
       style="fill:#999999;fill-opacity:1;fill-rule:evenodd;stroke:none;stroke-width:1.02681"
       d="m 126.3422,30.767773 33.83638,0.601088 h -33.69012 z"
       id="path223598" />
    <path
       style="fill:#999999;fill-opacity:1;fill-rule:evenodd;stroke:none;stroke-width:1.02681"
       d="m 126.3422,30.767773 h 32.61749 l 1.21889,0.601088 z"
       id="path223600" />
    <path
       style="fill:#999999;fill-opacity:1;fill-rule:evenodd;stroke:none;stroke-width:1.02681"
       d="m 126.48846,31.368861 38.56571,2.366789 h -37.00553 z"
       id="path223602" />
    <path
       style="fill:#999999;fill-opacity:1;fill-rule:evenodd;stroke:none;stroke-width:1.02681"
       d="m 126.48846,31.368861 h 33.69012 l 4.87559,2.366789 z"
       id="path223604" />
    <path
       style="fill:#999999;fill-opacity:1;fill-rule:evenodd;stroke:none;stroke-width:1.02681"
       d="m 128.04864,33.73565 39.19952,1.051904 h -38.41944 z"
       id="path223606" />
    <path
       style="fill:#999999;fill-opacity:1;fill-rule:evenodd;stroke:none;stroke-width:1.02681"
       d="m 128.04864,33.73565 h 37.00553 l 2.19399,1.051904 z"
       id="path223608" />
    <path
       style="fill:#999999;fill-opacity:1;fill-rule:evenodd;stroke:none;stroke-width:1.02681"
       d="m 128.82872,34.787554 54.75258,7.88929 h -69.23301 z"
       id="path223610" />
    <path
       style="fill:#999999;fill-opacity:1;fill-rule:evenodd;stroke:none;stroke-width:1.02681"
       d="m 128.82872,34.787554 h 38.41944 l 16.33314,7.88929 z"
       id="path223612" />
    <path
       style="fill:#999999;fill-opacity:1;fill-rule:evenodd;stroke:none;stroke-width:1.02681"
       d="m 102.20814,42.676844 82.05575,0.300555 h -82.05575 z"
       id="path223614" />
    <path
       style="fill:#999999;fill-opacity:1;fill-rule:evenodd;stroke:none;stroke-width:1.02681"
       d="m 102.20814,42.676844 h 81.37316 l 0.68259,0.300555 z"
       id="path223616" />
    <path
       style="fill:#999999;fill-opacity:1;fill-rule:evenodd;stroke:none;stroke-width:1.02681"
       d="m 102.20814,42.97739 95.07348,3.568964 h -95.07348 z"
       id="path223618" />
    <path
       style="fill:#999999;fill-opacity:1;fill-rule:evenodd;stroke:none;stroke-width:1.02681"
       d="m 102.20814,42.97739 h 91.75811 l 3.31537,3.568964 z"
       id="path223620" />
    <path
       style="fill:#999999;fill-opacity:1;fill-rule:evenodd;stroke:none;stroke-width:1.02681"
       d="m 102.20814,46.546354 95.07348,66.082196 h -95.07348 z"
       id="path223622" />
    <path
       style="fill:#999999;fill-opacity:1;fill-rule:evenodd;stroke:none;stroke-width:1.02681"
       d="m 102.20814,46.546354 h 95.07348 v 66.082196 z"
       id="path223624" />
    <path
       style="fill:#999999;fill-opacity:1;fill-rule:evenodd;stroke:none;stroke-width:1.02681"
       d="m 102.20814,112.62855 95.07348,1.69057 H 99.380323 Z"
       id="path223626" />
    <path
       style="fill:#999999;fill-opacity:1;fill-rule:evenodd;stroke:none;stroke-width:1.02681"
       d="m 102.20814,112.62855 h 95.07348 v 1.69057 z"
       id="path223628" />
    <path
       style="fill:#999999;fill-opacity:1;fill-rule:evenodd;stroke:none;stroke-width:1.02681"
       d="m 99.380323,114.31912 100.680397,2.40433 H 95.382358 Z"
       id="path223630" />
    <path
       style="fill:#999999;fill-opacity:1;fill-rule:evenodd;stroke:none;stroke-width:1.02681"
       d="m 99.380323,114.31912 h 97.901297 l 2.7791,2.40433 z"
       id="path223632" />
    <path
       style="fill:#999999;fill-opacity:1;fill-rule:evenodd;stroke:none;stroke-width:1.02681"
       d="m 95.382358,116.72345 106.238512,1.35247 H 95.382358 Z"
       id="path223634" />
    <path
       style="fill:#999999;fill-opacity:1;fill-rule:evenodd;stroke:none;stroke-width:1.02681"
       d="M 95.382358,116.72345 H 200.06072 l 1.56015,1.35247 z"
       id="path223636" />
    <path
       style="fill:#999999;fill-opacity:1;fill-rule:evenodd;stroke:none;stroke-width:1.02681"
       d="m 88.264031,120.59298 0.390088,0.15035 h -2.09648 z"
       id="path223638" />
    <path
       style="fill:#999999;fill-opacity:1;fill-rule:evenodd;stroke:none;stroke-width:1.02681"
       d="m 208.78795,120.59298 1.70648,0.15035 h -2.09653 z"
       id="path223640" />
    <path
       style="fill:#999999;fill-opacity:1;fill-rule:evenodd;stroke:none;stroke-width:1.02681"
       d="m 208.3979,120.74326 3.51041,0.33811 h -4.583 z"
       id="path223642" />
    <path
       style="fill:#999999;fill-opacity:1;fill-rule:evenodd;stroke:none;stroke-width:1.02681"
       d="m 208.3979,120.74326 h 2.09653 l 1.41388,0.33811 z"
       id="path223644" />
    <path
       style="fill:#999999;fill-opacity:1;fill-rule:evenodd;stroke:none;stroke-width:1.02681"
       d="m 86.557595,120.74326 3.169118,0.33811 H 85.14366 Z"
       id="path223646" />
    <path
       style="fill:#999999;fill-opacity:1;fill-rule:evenodd;stroke:none;stroke-width:1.02681"
       d="m 86.557595,120.74326 h 2.09648 l 1.072638,0.33811 z"
       id="path223648" />
    <path
       style="fill:#999999;fill-opacity:1;fill-rule:evenodd;stroke:none;stroke-width:1.02681"
       d="m 85.14366,121.08137 4.924348,0.11259 h -5.265643 z"
       id="path223650" />
    <path
       style="fill:#999999;fill-opacity:1;fill-rule:evenodd;stroke:none;stroke-width:1.02681"
       d="m 85.14366,121.08137 h 4.583053 l 0.341385,0.11259 z"
       id="path223652" />
    <path
       style="fill:#999999;fill-opacity:1;fill-rule:evenodd;stroke:none;stroke-width:1.02681"
       d="m 207.32531,121.08137 4.92431,0.11259 h -5.11935 z"
       id="path223654" />
    <path
       style="fill:#999999;fill-opacity:1;fill-rule:evenodd;stroke:none;stroke-width:1.02681"
       d="m 207.32531,121.08137 h 4.583 l 0.3414,0.11259 z"
       id="path223656" />
    <path
       style="fill:#999999;fill-opacity:1;fill-rule:evenodd;stroke:none;stroke-width:1.02681"
       d="m 84.802365,121.19406 7.06958,0.56352 h -8.629764 z"
       id="path223658" />
    <path
       style="fill:#999999;fill-opacity:1;fill-rule:evenodd;stroke:none;stroke-width:1.02681"
       d="m 84.802365,121.19406 h 5.265643 l 1.803937,0.56352 z"
       id="path223660" />
    <path
       style="fill:#999999;fill-opacity:1;fill-rule:evenodd;stroke:none;stroke-width:1.02681"
       d="m 83.242181,121.75758 9.01981,0.11259 H 82.90093 Z"
       id="path223662" />
    <path
       style="fill:#999999;fill-opacity:1;fill-rule:evenodd;stroke:none;stroke-width:1.02681"
       d="m 83.242181,121.75758 h 8.629764 l 0.39009,0.11259 z"
       id="path223664" />
    <path
       style="fill:#999999;fill-opacity:1;fill-rule:evenodd;stroke:none;stroke-width:1.02681"
       d="m 207.13027,121.19406 7.02082,0.67625 h -8.33722 z"
       id="path223666" />
    <path
       style="fill:#999999;fill-opacity:1;fill-rule:evenodd;stroke:none;stroke-width:1.02681"
       d="m 207.13027,121.19406 h 5.11935 l 1.90147,0.67625 z"
       id="path223668" />
    <path
       style="fill:#999999;fill-opacity:1;fill-rule:evenodd;stroke:none;stroke-width:1.02681"
       d="m 205.81387,121.87031 8.67852,0.18776 h -9.01982 z"
       id="path223670" />
    <path
       style="fill:#999999;fill-opacity:1;fill-rule:evenodd;stroke:none;stroke-width:1.02681"
       d="m 205.81387,121.87031 h 8.33722 l 0.34138,0.18776 z"
       id="path223672" />
    <path
       style="fill:#999999;fill-opacity:1;fill-rule:evenodd;stroke:none;stroke-width:1.02681"
       d="m 82.90093,121.87031 10.384948,0.37566 h -11.01879 z"
       id="path223674" />
    <path
       style="fill:#999999;fill-opacity:1;fill-rule:evenodd;stroke:none;stroke-width:1.02681"
       d="m 82.90093,121.87031 h 9.361061 l 1.023887,0.37566 z"
       id="path223676" />
    <path
       style="fill:#999999;fill-opacity:1;fill-rule:evenodd;stroke:none;stroke-width:1.02681"
       d="m 205.47257,122.05813 9.75111,0.48839 h -11.89633 z"
       id="path223678" />
    <path
       style="fill:#999999;fill-opacity:1;fill-rule:evenodd;stroke:none;stroke-width:1.02681"
       d="m 205.47257,122.05813 h 9.01982 l 0.73129,0.48839 z"
       id="path223680" />
    <path
       style="fill:#999999;fill-opacity:1;fill-rule:evenodd;stroke:none;stroke-width:1.02681"
       d="m 95.382358,118.07592 106.238512,4.4706 H 95.382358 Z"
       id="path223682" />
    <path
       style="fill:#999999;fill-opacity:1;fill-rule:evenodd;stroke:none;stroke-width:1.02681"
       d="M 95.382358,118.07592 H 201.62087 v 4.4706 z"
       id="path223684" />
    <path
       style="fill:#999999;fill-opacity:1;fill-rule:evenodd;stroke:none;stroke-width:1.02681"
       d="m 82.267088,122.24597 12.725224,0.30069 h -13.16402 z"
       id="path223686" />
    <path
       style="fill:#999999;fill-opacity:1;fill-rule:evenodd;stroke:none;stroke-width:1.02681"
       d="m 82.267088,122.24597 h 11.01879 l 1.706434,0.30069 z"
       id="path223688" />
    <path
       style="fill:#999999;fill-opacity:1;fill-rule:evenodd;stroke:none;stroke-width:1.02681"
       d="m 95.382358,122.54652 106.238512,0.0752 H 95.382358 Z"
       id="path223690" />
    <path
       style="fill:#999999;fill-opacity:1;fill-rule:evenodd;stroke:none;stroke-width:1.02681"
       d="M 95.382358,122.54652 H 201.62087 v 0.0752 z"
       id="path223692" />
    <path
       style="fill:#999999;fill-opacity:1;fill-rule:evenodd;stroke:none;stroke-width:1.02681"
       d="m 81.828292,122.54652 13.554066,0.0752 H 81.730791 Z"
       id="path223694" />
    <path
       style="fill:#999999;fill-opacity:1;fill-rule:evenodd;stroke:none;stroke-width:1.02681"
       d="m 81.828292,122.54652 h 13.16402 l 0.390091,0.0752 z"
       id="path223696" />
    <path
       style="fill:#999999;fill-opacity:1;fill-rule:evenodd;stroke:none;stroke-width:1.02681"
       d="m 203.32735,122.54652 12.04263,0.11259 H 202.6935 Z"
       id="path223698" />
    <path
       style="fill:#999999;fill-opacity:1;fill-rule:evenodd;stroke:none;stroke-width:1.02681"
       d="m 203.32735,122.54652 h 11.89633 l 0.14603,0.11259 z"
       id="path223700" />
    <path
       style="fill:#999999;fill-opacity:1;fill-rule:evenodd;stroke:none;stroke-width:1.02681"
       d="m 81.730791,122.62166 119.890079,0.0374 H 81.682042 Z"
       id="path223702" />
    <path
       style="fill:#999999;fill-opacity:1;fill-rule:evenodd;stroke:none;stroke-width:1.02681"
       d="M 81.730791,122.62166 H 201.62087 v 0.0374 z"
       id="path223704" />
    <path
       style="fill:#999999;fill-opacity:1;fill-rule:evenodd;stroke:none;stroke-width:1.02681"
       d="m 202.6935,122.65921 12.67648,0.18776 h -13.74911 z"
       id="path223706" />
    <path
       style="fill:#999999;fill-opacity:1;fill-rule:evenodd;stroke:none;stroke-width:1.02681"
       d="m 202.6935,122.65921 h 12.67648 v 0.18776 z"
       id="path223708" />
    <path
       style="fill:#999999;fill-opacity:1;fill-rule:evenodd;stroke:none;stroke-width:1.02681"
       d="m 81.682042,122.65921 119.938828,0.18776 H 81.682042 Z"
       id="path223710" />
    <path
       style="fill:#999999;fill-opacity:1;fill-rule:evenodd;stroke:none;stroke-width:1.02681"
       d="M 81.682042,122.65921 H 201.62087 v 0.18776 z"
       id="path223712" />
    <path
       style="fill:#999999;fill-opacity:1;fill-rule:evenodd;stroke:none;stroke-width:1.02681"
       d="M 81.682042,122.84708 215.36998,135.80805 H 81.682042 Z"
       id="path223714" />
    <path
       style="fill:#999999;fill-opacity:1;fill-rule:evenodd;stroke:none;stroke-width:1.02681"
       d="M 81.682042,122.84708 H 215.36998 v 12.96097 z"
       id="path223716" />
    <path
       style="fill:#999999;fill-opacity:1;fill-rule:evenodd;stroke:none;stroke-width:1.02681"
       d="m 81.682042,135.80805 131.396418,2.21651 H 83.973524 Z"
       id="path223718" />
    <path
       style="fill:#999999;fill-opacity:1;fill-rule:evenodd;stroke:none;stroke-width:1.02681"
       d="M 81.682042,135.80805 H 215.36998 l -2.29152,2.21651 z"
       id="path223720" />
    <path
       style="fill:#999999;fill-opacity:1;fill-rule:evenodd;stroke:none;stroke-width:1.02681"
       d="m 83.973524,138.02456 126.277106,1.72812 H 86.801345 Z"
       id="path223722" />
    <path
       style="fill:#999999;fill-opacity:1;fill-rule:evenodd;stroke:none;stroke-width:1.02681"
       d="M 83.973524,138.02456 H 213.07846 l -2.82783,1.72812 z"
       id="path223724" />
    <path
       style="fill:#999999;fill-opacity:1;fill-rule:evenodd;stroke:none;stroke-width:1.02681"
       d="m 86.801345,139.75268 119.305085,1.72813 H 90.945601 Z"
       id="path223726" />
    <path
       style="fill:#999999;fill-opacity:1;fill-rule:evenodd;stroke:none;stroke-width:1.02681"
       d="M 86.801345,139.75268 H 210.25063 l -4.1442,1.72813 z"
       id="path223728" />
    <path
       style="fill:#999999;fill-opacity:1;fill-rule:evenodd;stroke:none;stroke-width:1.02681"
       d="m 90.945601,141.48081 111.942949,0.90163 H 94.163471 Z"
       id="path223730" />
    <path
       style="fill:#999999;fill-opacity:1;fill-rule:evenodd;stroke:none;stroke-width:1.02681"
       d="M 90.945601,141.48081 H 206.10643 l -3.21788,0.90163 z"
       id="path223732" />
    <path
       style="fill:#999999;fill-opacity:1;fill-rule:evenodd;stroke:none;stroke-width:1.02681"
       d="m 94.163471,142.38244 107.506189,0.30069 H 95.382358 Z"
       id="path223734" />
    <path
       style="fill:#999999;fill-opacity:1;fill-rule:evenodd;stroke:none;stroke-width:1.02681"
       d="M 94.163471,142.38244 H 202.88855 l -1.21889,0.30069 z"
       id="path223736" />
    <path
       style="fill:#999999;fill-opacity:1;fill-rule:evenodd;stroke:none;stroke-width:1.02681"
       d="m 95.382358,142.68299 106.141012,0.0378 H 95.382358 Z"
       id="path223738" />
    <path
       style="fill:#999999;fill-opacity:1;fill-rule:evenodd;stroke:none;stroke-width:1.02681"
       d="M 95.382358,142.68299 H 201.66966 l -0.14603,0.0374 z"
       id="path223740" />
    <path
       style="fill:#999999;fill-opacity:1;fill-rule:evenodd;stroke:none;stroke-width:1.02681"
       d="M 95.382358,142.72058 201.37712,147.0409 H 95.382358 Z"
       id="path223742" />
    <path
       style="fill:#999999;fill-opacity:1;fill-rule:evenodd;stroke:none;stroke-width:1.02681"
       d="M 95.382358,142.72058 H 201.52337 l -0.14621,4.32032 z"
       id="path223744" />
    <path
       style="fill:#999999;fill-opacity:1;fill-rule:evenodd;stroke:none;stroke-width:1.02681"
       d="m 95.382358,147.0409 105.945952,1.72813 H 95.382358 Z"
       id="path223746" />
    <path
       style="fill:#999999;fill-opacity:1;fill-rule:evenodd;stroke:none;stroke-width:1.02681"
       d="M 95.382358,147.0409 H 201.37712 l -0.0487,1.72813 z"
       id="path223748" />
    <path
       style="fill:#999999;fill-opacity:1;fill-rule:evenodd;stroke:none;stroke-width:1.02681"
       d="M 95.382358,148.76903 200.35322,180.96485 H 96.796248 Z"
       id="path223750" />
    <path
       style="fill:#999999;fill-opacity:1;fill-rule:evenodd;stroke:none;stroke-width:1.02681"
       d="M 95.382358,148.76903 H 201.32831 l -0.97509,32.19582 z"
       id="path223752" />
    <path
       style="fill:#999999;fill-opacity:1;fill-rule:evenodd;stroke:none;stroke-width:1.02681"
       d="m 96.796248,180.96485 99.412772,1.95353 H 96.893792 Z"
       id="path223754" />
    <path
       style="fill:#999999;fill-opacity:1;fill-rule:evenodd;stroke:none;stroke-width:1.02681"
       d="M 96.796248,180.96485 H 200.35322 l -4.1442,1.95353 z"
       id="path223756" />
    <path
       style="fill:#999999;fill-opacity:1;fill-rule:evenodd;stroke:none;stroke-width:1.02681"
       d="m 96.893792,182.91838 93.464538,2.74245 h -88.39398 z"
       id="path223758" />
    <path
       style="fill:#999999;fill-opacity:1;fill-rule:evenodd;stroke:none;stroke-width:1.02681"
       d="m 96.893792,182.91838 h 99.315228 l -5.85069,2.74245 z"
       id="path223760" />
    <path
       style="fill:#999999;fill-opacity:1;fill-rule:evenodd;stroke:none;stroke-width:1.02681"
       d="m 101.96435,185.66083 88.39398,1.84084 h -84.98107 z"
       id="path223762" />
    <path
       style="fill:#999999;fill-opacity:1;fill-rule:evenodd;stroke:none;stroke-width:1.02681"
       d="m 101.96435,185.66083 h 88.39398 v 1.84084 z"
       id="path223764" />
    <path
       style="fill:#999999;fill-opacity:1;fill-rule:evenodd;stroke:none;stroke-width:1.02681"
       d="m 105.37726,187.50167 84.98107,7.62634 h -85.07857 z"
       id="path223766" />
    <path
       style="fill:#999999;fill-opacity:1;fill-rule:evenodd;stroke:none;stroke-width:1.02681"
       d="m 105.37726,187.50167 h 84.98107 v 7.62634 z"
       id="path223768" />
    <path
       style="fill:#999999;fill-opacity:1;fill-rule:evenodd;stroke:none;stroke-width:1.02681"
       d="m 105.18221,198.13346 h 78.25284 l -20.13611,8.64064 z"
       id="path223770" />
    <path
       style="fill:#999999;fill-opacity:1;fill-rule:evenodd;stroke:none;stroke-width:1.02681"
       d="m 105.27976,195.12801 78.15529,3.00545 h -78.25284 z"
       id="path223772" />
    <path
       style="fill:#999999;fill-opacity:1;fill-rule:evenodd;stroke:none;stroke-width:1.02681"
       d="m 105.27976,195.12801 h 85.07857 l -6.92328,3.00545 z"
       id="path223774" />
    <path
       style="fill:none;stroke:#999999;stroke-width:0.042733px;stroke-linecap:round;stroke-linejoin:round;stroke-miterlimit:4;stroke-dasharray:none;stroke-opacity:1"
       d="m 95.382358,142.68299 v 6.08604 l 1.511434,34.14935 8.483468,4.58329 -0.19482,10.63179 58.11674,8.64064 27.05937,-11.64609 v -9.46718 l 9.99491,-4.69598 1.02388,-33.92395 0.14603,-4.32032 1.36514,-0.33811 3.21786,-0.90166 4.14426,-1.72813 2.82783,-1.72812 2.29147,-2.21651 v -13.14884 l -1.21889,-0.7889 -1.90142,-0.67622 -1.75524,-0.45083 -1.70643,-0.15035 -1.46269,0.48838 -1.85269,0.97677 -2.14526,0.48839 -1.70644,0.30069 v -4.77116 l -4.33927,-3.7568 V 46.546354 l -3.31535,-3.568964 h -9.70236 L 158.95978,30.767773 V 6.7242193 l -3.85167,-3.3435555 h -12.77397 l -3.31543,3.3435555 V 25.658516 l -2.77906,-1.765697 -3.60791,-1.014338 -4.09547,1.014338 -2.29152,2.14138 -0.48755,2.967875 0.73135,2.366787 1.56018,2.366789 0.78008,1.051904 -14.48044,7.88929 h -12.14014 v 69.951706 l -6.825782,4.0949 v 5.89821 l -2.09648,-0.37569 -1.413935,-0.48839 -2.14523,-0.67621 -1.462686,-0.48839 -1.706434,0.15035 -1.755228,0.4508 -1.901437,0.67625 -1.218888,0.78891 v 13.14883 l 2.291481,2.21651 2.827824,1.72813 4.144255,1.72812 3.21787,0.90163 z"
       id="path223776" />
    <path
       style="fill:none;stroke:#999999;stroke-width:0.042733px;stroke-linecap:round;stroke-linejoin:round;stroke-miterlimit:4;stroke-dasharray:none;stroke-opacity:1"
       d="m 95.382358,142.68299 v 6.08604 l 1.511434,34.14935 8.483468,4.58329 -0.19482,10.63179 58.11674,8.64064 27.05937,-11.64609 v -9.46718 l 9.99491,-4.69598 1.02388,-33.92395 0.14603,-4.32032 1.36514,-0.33811 3.21786,-0.90166 4.14426,-1.72813 2.82783,-1.72812 2.29147,-2.21651 v -13.14884 l -1.21889,-0.7889 -1.90142,-0.67622 -1.75524,-0.45083 -1.70643,-0.15035"
       id="path223778" />
    <path
       style="fill:none;stroke:#999999;stroke-width:0.042733px;stroke-linecap:round;stroke-linejoin:round;stroke-miterlimit:4;stroke-dasharray:none;stroke-opacity:1"
       d="m 208.78795,120.59298 -1.46264,0.48839 -1.85274,0.97676 -2.14522,0.48839 -1.70648,0.30069 v -4.77116 l -4.33925,-3.7568 V 46.546354 l -3.31537,-3.568964 h -9.70236 L 158.95969,30.767773 V 6.7242193 l -3.85167,-3.3435555 h -12.77397 l -3.31542,3.3435555 V 25.658516 l -2.77907,-1.765697 -3.60791,-1.014338 -4.09547,1.014338 -2.29152,2.14138 -0.48754,2.967875 0.73134,2.366787 1.56018,2.366789 0.78008,1.051904 -14.48043,7.88929 h -12.14015 v 69.951706 l -6.825782,4.0949 v 5.89821 l -2.09648,-0.37569 -1.413933,-0.48839 -2.145232,-0.67621 -1.462682,-0.48839 -1.706436,0.15035 -1.75523,0.4508 -1.901435,0.67625 -1.218888,0.78891 v 13.14883 l 2.291482,2.21651 2.827821,1.72813 4.144256,1.72812 3.21787,0.90163 1.218887,0.30069"
       id="path223780" />
    <path
       style="fill:none;stroke:#999999;stroke-width:0.042733px;stroke-linecap:round;stroke-linejoin:round;stroke-miterlimit:4;stroke-dasharray:none;stroke-opacity:1"
       d="m 208.78795,120.59298 h 0.0975"
       id="path223782" />
    <path
       style="fill:none;stroke:#212830;stroke-width:0.042733px;stroke-linecap:round;stroke-linejoin:round;stroke-miterlimit:4;stroke-dasharray:none;stroke-opacity:1"
       d="m 95.382358,126.07791 v -9.35446 l 6.825782,-4.0949 V 42.676844 h 12.14015 l 14.48043,-7.88929 -0.78008,-1.051904 -1.56018,-2.366789 -0.73134,-2.366787 0.48754,-2.967875 2.29152,-2.14138 4.09547,-1.014338 3.60791,1.014338 2.77907,1.765697 V 6.7242193 l 3.31542,-3.3435555 h 12.77397 l 3.85167,3.3435555 V 30.767773 l 25.3042,12.209617 h 9.70236 l 3.31537,3.568964 v 67.772766 l 4.33925,3.7568 v 8.00199"
       id="path223784" />
    <path
       style="fill:none;stroke:#212830;stroke-width:0.042733px;stroke-linecap:round;stroke-linejoin:round;stroke-miterlimit:4;stroke-dasharray:none;stroke-opacity:1"
       d="m 131.99784,32.15779 -1.80397,-1.089475 -0.53629,-1.69056 0.29267,-1.57786 1.65768,-1.014336 2.04772,-0.07514 2.14525,0.713792 0.43879,1.878403 -0.19481,1.915972 -1.7552,0.864064 z"
       id="path223786" />
    <path
       style="fill:none;stroke:#212830;stroke-width:0.042733px;stroke-linecap:round;stroke-linejoin:round;stroke-miterlimit:4;stroke-dasharray:none;stroke-opacity:1"
       d="m 111.27671,50.829113 0.24396,27.612517 8.09346,0.976769 16.8207,0.638656 15.50429,0.18783 10.87249,-0.18783 3.02287,-0.225416 1.70644,-28.100904 -10.48246,-0.901631 H 139.16514 118.7365 Z"
       id="path223788" />
    <path
       style="fill:none;stroke:#212830;stroke-width:0.042733px;stroke-linecap:round;stroke-linejoin:round;stroke-miterlimit:4;stroke-dasharray:none;stroke-opacity:1"
       d="m 190.35833,185.66083 -27.2544,9.88042 -57.72667,-8.03958"
       id="path223790" />
    <path
       style="fill:none;stroke:#212830;stroke-width:0.042733px;stroke-linecap:round;stroke-linejoin:round;stroke-miterlimit:4;stroke-dasharray:none;stroke-opacity:1"
       d="m 163.10393,195.54125 0.19483,11.23285"
       id="path223792" />
    <path
       style="fill:none;stroke:#212830;stroke-width:0.042733px;stroke-linecap:round;stroke-linejoin:round;stroke-miterlimit:4;stroke-dasharray:none;stroke-opacity:1"
       d="m 102.20814,112.62855 95.07348,1.69057"
       id="path223794" />
    <path
       style="fill:none;stroke:#212830;stroke-width:0.042733px;stroke-linecap:round;stroke-linejoin:round;stroke-miterlimit:4;stroke-dasharray:none;stroke-opacity:1"
       d="m 88.264031,120.59298 1.462682,0.48839 2.145232,0.67621 1.413933,0.48839 2.09648,0.37569"
       id="path223796" />
    <path
       style="fill:none;stroke:#212830;stroke-width:0.042733px;stroke-linecap:round;stroke-linejoin:round;stroke-miterlimit:4;stroke-dasharray:none;stroke-opacity:1"
       d="m 208.78795,120.59298 -1.46264,0.48839 -1.85274,0.97676 -2.14522,0.48839 -1.70648,0.30069"
       id="path223798" />
    <path
       style="fill:none;stroke:#212830;stroke-width:0.042733px;stroke-linecap:round;stroke-linejoin:round;stroke-miterlimit:4;stroke-dasharray:none;stroke-opacity:1"
       d="m 100.84301,143.7349 -2.73033,-0.33811 -3.949209,-1.01435 -3.21787,-0.90163 -4.144256,-1.72813 -2.827821,-1.72812 -2.291482,-2.21651 v -13.14884 l 1.218888,-0.7889 1.901435,-0.67625 1.75523,-0.4508 1.706436,-0.15035 1.023885,1.54029 1.560185,1.69057 1.608934,1.20215 1.706436,0.75139 6.679539,1.54026"
       id="path223800" />
    <path
       style="fill:none;stroke:#212830;stroke-width:0.042733px;stroke-linecap:round;stroke-linejoin:round;stroke-miterlimit:4;stroke-dasharray:none;stroke-opacity:1"
       d="m 201.52337,142.72058 -0.14621,4.32032 -1.02384,33.92395 -9.99494,4.69598 v 9.46718 l -27.05938,11.64609 -58.11674,-8.64064 0.19482,-10.63179 -8.483466,-4.58329 -1.511433,-34.14935 v -6.08604"
       id="path223802" />
    <path
       style="fill:none;stroke:#212830;stroke-width:0.042733px;stroke-linecap:round;stroke-linejoin:round;stroke-miterlimit:4;stroke-dasharray:none;stroke-opacity:1"
       d="m 100.84301,124.53761 h 7.06953 v 23.85572 h -7.06953 z"
       id="path223804" />
    <path
       style="fill:none;stroke:#212830;stroke-width:0.042733px;stroke-linecap:round;stroke-linejoin:round;stroke-miterlimit:4;stroke-dasharray:none;stroke-opacity:1"
       d="m 128.53618,127.12982 h 7.06958 v 23.85571 h -7.06958 z"
       id="path223806" />
    <path
       style="fill:none;stroke:#212830;stroke-width:0.042733px;stroke-linecap:round;stroke-linejoin:round;stroke-miterlimit:4;stroke-dasharray:none;stroke-opacity:1"
       d="m 159.54479,128.332 h 7.06958 v 23.89327 h -7.06958 z"
       id="path223808" />
    <path
       style="fill:none;stroke:#212830;stroke-width:0.042733px;stroke-linecap:round;stroke-linejoin:round;stroke-miterlimit:4;stroke-dasharray:none;stroke-opacity:1"
       d="m 189.72453,124.87575 h 7.06953 v 23.85569 h -7.06953 z"
       id="path223810" />
    <path
       style="fill:none;stroke:#212830;stroke-width:0.042733px;stroke-linecap:round;stroke-linejoin:round;stroke-miterlimit:4;stroke-dasharray:none;stroke-opacity:1"
       d="m 107.91254,128.44469 8.53226,1.20219 12.09138,0.52597"
       id="path223812" />
    <path
       style="fill:none;stroke:#212830;stroke-width:0.042733px;stroke-linecap:round;stroke-linejoin:round;stroke-miterlimit:4;stroke-dasharray:none;stroke-opacity:1"
       d="m 128.53618,146.28952 -1.56018,-0.0374 -14.38291,-1.08949 -4.68055,-0.5635"
       id="path223814" />
    <path
       style="fill:none;stroke:#212830;stroke-width:0.042733px;stroke-linecap:round;stroke-linejoin:round;stroke-miterlimit:4;stroke-dasharray:none;stroke-opacity:1"
       d="m 135.60576,130.32309 12.53018,0.26294 h 0.3901 0.43879 l 10.57999,-0.22552"
       id="path223816" />
    <path
       style="fill:none;stroke:#212830;stroke-width:0.042733px;stroke-linecap:round;stroke-linejoin:round;stroke-miterlimit:4;stroke-dasharray:none;stroke-opacity:1"
       d="m 166.61437,130.2104 1.85268,-0.0374 12.14017,-0.52598 9.11731,-1.27728"
       id="path223818" />
    <path
       style="fill:none;stroke:#212830;stroke-width:0.042733px;stroke-linecap:round;stroke-linejoin:round;stroke-miterlimit:4;stroke-dasharray:none;stroke-opacity:1"
       d="m 159.54479,146.55252 -7.89842,0.22552 -3.12038,-0.11259 -3.12037,0.11259 -9.79986,-0.26294"
       id="path223820" />
    <path
       style="fill:none;stroke:#212830;stroke-width:0.042733px;stroke-linecap:round;stroke-linejoin:round;stroke-miterlimit:4;stroke-dasharray:none;stroke-opacity:1"
       d="m 189.72453,144.52384 -5.26564,0.63863 -14.38292,1.08949 -3.4616,0.1126"
       id="path223822" />
    <path
       style="fill:none;stroke:#212830;stroke-width:0.042733px;stroke-linecap:round;stroke-linejoin:round;stroke-miterlimit:4;stroke-dasharray:none;stroke-opacity:1"
       d="m 196.79406,127.20495 6.09449,-1.42757 1.70643,-0.75138 1.60894,-1.20215 1.56018,-1.69058 1.02385,-1.54029 1.70648,0.15035 1.75519,0.4508 1.90147,0.67625 1.21889,0.78891 v 13.14883 l -2.29152,2.21651 -2.82783,1.72813 -4.1442,1.72812 -3.21788,0.90163 -3.94922,1.01436 -2.14527,0.26293"
       id="path223824" />
    <path
       style="fill:none;stroke:#212830;stroke-width:0.042733px;stroke-linecap:round;stroke-linejoin:round;stroke-miterlimit:4;stroke-dasharray:none;stroke-opacity:1"
       d="m 155.64433,50.829113 v 29.340646 h -9.65361 l -4.53431,-0.03756 -2.24274,-0.03756 -2.14527,-0.03756 h -1.36514 l -0.68259,-0.03756 -15.40675,-0.60109 -0.0487,-28.589286 z"
       id="path223826" />
    <path
       style="fill:none;stroke:#212830;stroke-width:0.042733px;stroke-linecap:round;stroke-linejoin:round;stroke-miterlimit:4;stroke-dasharray:none;stroke-opacity:1"
       d="m 131.99784,32.15779 -1.80397,-1.089475 -0.53629,-1.69056 0.29267,-1.57786 1.65768,-1.014336 2.04772,-0.07514 2.14525,0.713792 0.43879,1.878403 -0.19481,1.915972 -1.7552,0.864064 z"
       id="path223828" />
    <path
       style="fill:none;stroke:#212830;stroke-width:0.042733px;stroke-linecap:round;stroke-linejoin:round;stroke-miterlimit:4;stroke-dasharray:none;stroke-opacity:1"
       d="m 138.48233,66.307149 -1.36514,-2.517059 -3.26665,-1.01434 -3.21787,1.01434 -1.36514,2.517059 1.36514,2.51706 3.21787,1.051906 3.26665,-1.051906 z"
       id="path223830" />
    <path
       style="fill:#ffffff;fill-opacity:1;fill-rule:evenodd;stroke:none;stroke-width:1.02681"
       d="m 133.65553,26.71042 0.24398,0.07514 h -2.29153 z"
       id="path223832" />
    <path
       style="fill:#ffffff;fill-opacity:1;fill-rule:evenodd;stroke:none;stroke-width:1.02681"
       d="m 131.60781,26.785559 4.19296,0.638655 h -5.21687 z"
       id="path223834" />
    <path
       style="fill:#ffffff;fill-opacity:1;fill-rule:evenodd;stroke:none;stroke-width:1.02681"
       d="m 131.60781,26.785559 h 2.29152 l 1.90144,0.638655 z"
       id="path223836" />
    <path
       style="fill:#ffffff;fill-opacity:1;fill-rule:evenodd;stroke:none;stroke-width:1.02681"
       d="m 130.5839,27.424214 5.3144,0.375681 h -5.94819 z"
       id="path223838" />
    <path
       style="fill:#ffffff;fill-opacity:1;fill-rule:evenodd;stroke:none;stroke-width:1.02681"
       d="m 130.5839,27.424214 h 5.21687 l 0.0975,0.375681 z"
       id="path223840" />
    <path
       style="fill:#ffffff;fill-opacity:1;fill-rule:evenodd;stroke:none;stroke-width:1.02681"
       d="m 129.95011,27.799895 6.28945,1.502725 h -6.58198 z"
       id="path223842" />
    <path
       style="fill:#ffffff;fill-opacity:1;fill-rule:evenodd;stroke:none;stroke-width:1.02681"
       d="m 129.95011,27.799895 h 5.94819 l 0.34139,1.502725 z"
       id="path223844" />
    <path
       style="fill:#ffffff;fill-opacity:1;fill-rule:evenodd;stroke:none;stroke-width:1.02681"
       d="m 129.65758,29.30262 6.58198,0.07514 h -6.58198 z"
       id="path223846" />
    <path
       style="fill:#ffffff;fill-opacity:1;fill-rule:evenodd;stroke:none;stroke-width:1.02681"
       d="m 129.65758,29.30262 h 6.58198 v 0.07514 z"
       id="path223848" />
    <path
       style="fill:#ffffff;fill-opacity:1;fill-rule:evenodd;stroke:none;stroke-width:1.02681"
       d="m 129.65758,29.377755 6.38698,1.69056 h -5.85069 z"
       id="path223850" />
    <path
       style="fill:#ffffff;fill-opacity:1;fill-rule:evenodd;stroke:none;stroke-width:1.02681"
       d="m 129.65758,29.377755 h 6.58198 l -0.19483,1.69056 z"
       id="path223852" />
    <path
       style="fill:#ffffff;fill-opacity:1;fill-rule:evenodd;stroke:none;stroke-width:1.02681"
       d="m 130.19387,31.068315 5.85069,0.150273 h -5.6069 z"
       id="path223854" />
    <path
       style="fill:#ffffff;fill-opacity:1;fill-rule:evenodd;stroke:none;stroke-width:1.02681"
       d="m 130.19387,31.068315 h 5.85069 v 0.150273 z"
       id="path223856" />
    <path
       style="fill:#ffffff;fill-opacity:1;fill-rule:evenodd;stroke:none;stroke-width:1.02681"
       d="m 131.90034,32.082655 h 2.38904 l -2.29154,0.07514 z"
       id="path223858" />
    <path
       style="fill:#ffffff;fill-opacity:1;fill-rule:evenodd;stroke:none;stroke-width:1.02681"
       d="m 130.43766,31.218589 3.85172,0.864066 h -2.38904 z"
       id="path223860" />
    <path
       style="fill:#ffffff;fill-opacity:1;fill-rule:evenodd;stroke:none;stroke-width:1.02681"
       d="m 130.43766,31.218589 h 5.6069 l -1.75518,0.864066 z"
       id="path223862" />
    <path
       style="fill:none;stroke:#ffffff;stroke-width:0.042733px;stroke-linecap:round;stroke-linejoin:round;stroke-miterlimit:4;stroke-dasharray:none;stroke-opacity:1"
       d="m 131.99784,32.15779 -1.80397,-1.089475 -0.53629,-1.69056 0.29267,-1.57786 1.65768,-1.014336 2.04772,-0.07514 2.14525,0.713792 0.43879,1.878403 -0.19481,1.915972 -1.7552,0.864064 z"
       id="path223864" />
  </g>
</svg>
