<?xml version="1.0" encoding="iso-8859-1"?>
<!-- Generator: Adobe Illustrator 19.0.0, SVG Export Plug-In . SVG Version: 6.00 Build 0)  -->
<svg version="1.1" id="Layer_1" xmlns="http://www.w3.org/2000/svg" xmlns:xlink="http://www.w3.org/1999/xlink" x="0px" y="0px"
	 viewBox="0 0 511.989 511.989" style="enable-background:new 0 0 511.989 511.989;" xml:space="preserve">
<path style="fill:#7F4545;" d="M234.658,149.346c-17.64,0-31.999,14.343-31.999,31.999c0,17.64,14.358,31.983,31.999,31.983
	c17.648,0,32-14.343,32-31.983C266.657,163.688,252.305,149.346,234.658,149.346z"/>
<path style="fill:#965353;" d="M309.475,203.328c-19.952-32.452-46.217-51.249-47.318-52.03c-3.664-2.594-8.547-2.609-12.234-0.062
	s-5.383,7.14-4.25,11.468c0.078,0.297,7.438,28.858,6.969,63.404c-0.273,19.891-3.055,37.843-8.266,53.374
	c-6.328,18.812-16.289,34.077-29.608,45.373c-3.359,2.859-4.625,7.484-3.18,11.641c1.438,4.156,5.297,7,9.695,7.156l85.286,3.031
	c0.125,0,0.25,0,0.375,0c4.078,0,7.812-2.328,9.609-6.016C338.835,294.605,336.382,247.107,309.475,203.328z"/>
<path style="fill:#FFCE54;" d="M439.08,429.523c-14.812-30.218-35.045-54.779-60.17-72.998
	c-33.436-24.232-74.794-36.528-122.917-36.528s-89.474,12.296-122.918,36.528c-25.116,18.219-45.357,42.78-60.162,72.998
	c-1.617,3.312-1.414,7.219,0.531,10.328c1.945,3.125,5.367,5.031,9.046,5.031h346.995c3.688,0,7.109-1.906,9.062-5.031
	C440.486,436.742,440.689,432.836,439.08,429.523z"/>
<rect x="0.549" y="430.206" style="fill:#5D9CEC;" width="511.44" height="71.11"/>
<path style="fill:#8CC153;" d="M287.273,17.491c-1.625-4.218-5.734-6.952-10.266-6.812c-1.734,0.062-42.756,1.593-65.49,29.061
	c-12.483,15.078-16.921,34.577-13.202,57.951c8.211,51.498,51.342,71.248,53.17,72.06c1.406,0.625,2.883,0.922,4.336,0.922
	c3.602,0,7.094-1.828,9.086-5.078c0.273-0.453,6.812-11.156,10.585-26.03c5.219-20.562,2.797-39.467-7.015-54.67
	c-7.016-10.89-6.82-22.75,0.594-36.28c6.187-11.281,15.14-19.109,15.202-19.171C287.711,26.49,288.914,21.709,287.273,17.491z"/>
<g>
	<path style="fill:#F6BB42;" d="M231.533,355.12c4.172,4.171,4.172,10.921,0,15.077c-4.164,4.172-10.914,4.172-15.078,0
		c-4.172-4.156-4.172-10.906,0-15.077C220.619,350.948,227.368,350.948,231.533,355.12z"/>
	<path style="fill:#F6BB42;" d="M274.212,397.79c4.155,4.156,4.155,10.906,0,15.077c-4.18,4.172-10.93,4.172-15.094,0
		c-4.164-4.171-4.164-10.921,0-15.077C263.282,393.618,270.032,393.618,274.212,397.79z"/>
	<path style="fill:#F6BB42;" d="M167.535,355.12c4.172,4.171,4.172,10.921,0,15.077c-4.164,4.172-10.914,4.172-15.078,0
		c-4.172-4.156-4.172-10.906,0-15.077C156.621,350.948,163.371,350.948,167.535,355.12z"/>
	<path style="fill:#F6BB42;" d="M210.205,397.79c4.164,4.156,4.164,10.906,0,15.077c-4.163,4.172-10.921,4.172-15.085,0
		c-4.164-4.171-4.164-10.921,0-15.077C199.284,393.618,206.042,393.618,210.205,397.79z"/>
	<path style="fill:#F6BB42;" d="M146.207,397.79c4.164,4.156,4.164,10.906,0,15.077c-4.164,4.172-10.921,4.172-15.085,0
		c-4.164-4.171-4.164-10.921,0-15.077C135.286,393.618,142.043,393.618,146.207,397.79z"/>
	<path style="fill:#F6BB42;" d="M295.538,355.12c4.156,4.171,4.156,10.921,0,15.077c-4.171,4.172-10.921,4.172-15.093,0
		c-4.156-4.156-4.156-10.906,0-15.077C284.617,350.948,291.367,350.948,295.538,355.12z"/>
	<path style="fill:#F6BB42;" d="M338.21,397.79c4.155,4.156,4.155,10.906,0,15.077c-4.172,4.172-10.922,4.172-15.094,0
		c-4.156-4.171-4.156-10.921,0-15.077C327.288,393.618,334.038,393.618,338.21,397.79z"/>
	<path style="fill:#F6BB42;" d="M359.535,355.12c4.156,4.171,4.156,10.921,0,15.077c-4.171,4.172-10.92,4.172-15.092,0
		c-4.155-4.156-4.155-10.906,0-15.077C348.615,350.948,355.364,350.948,359.535,355.12z"/>
	<path style="fill:#F6BB42;" d="M402.207,397.79c4.156,4.156,4.156,10.906,0,15.077c-4.172,4.172-10.922,4.172-15.094,0
		c-4.172-4.171-4.172-10.921,0-15.077C391.285,393.618,398.035,393.618,402.207,397.79z"/>
</g>
<path style="fill:#A0D468;" d="M434.236,109.832c-1.625-1.641-40.264-40.062-87.793-40.062c-11.562,0-22.765,2.297-33.296,6.844
	c-31.483,13.546-49.154,38.498-58.443,57.138c-0.773-1.062-1.586-2.125-2.453-3.188c-9.953-12.203-28.46-26.842-60.107-27.295
	c-0.328-0.016-0.664-0.016-1-0.016c-66.686,0-93.63,92.731-94.747,96.684c-1.367,4.859,0.852,10,5.32,12.343
	c1.57,0.812,3.266,1.219,4.945,1.219c3.101,0,6.148-1.359,8.234-3.875c0.335-0.406,33.561-40.045,74.318-40.045
	c3.585,0,7.187,0.312,10.695,0.938c9.694,1.688,19.718,2.547,29.78,2.547h0.008c14.945,0,25.5-1.906,28.015-2.406
	c0.57,0,1.234,0.016,2.016,0.016c7.578,0,22.702-0.562,38.779-4.266c21.359-4.906,37.172-13.671,47.015-26.046
	c9.53-11.984,24.467-18.078,44.373-18.078c17.922,0,33.171,5.093,33.296,5.14c4.687,1.609,9.874-0.219,12.499-4.421
	C438.33,118.8,437.721,113.347,434.236,109.832z"/>
<path style="fill:#4A89DC;" d="M341.319,447.992c-1.625,0-3.266-0.375-4.766-1.125l-16.562-8.281l-16.562,8.281
	c-3,1.5-6.531,1.5-9.547,0l-16.562-8.281l-16.562,8.281c-3,1.5-6.531,1.5-9.539,0l-16.562-8.281l-16.562,8.281
	c-3,1.5-6.539,1.5-9.539,0l-16.562-8.281l-16.562,8.281c-3.007,1.5-6.539,1.5-9.539,0l-16.562-8.281l-16.562,8.281
	c-3.008,1.5-6.539,1.5-9.546,0l-16.562-8.281l-16.562,8.281c-3,1.5-6.531,1.5-9.539,0l-16.562-8.281l-16.562,8.281
	c-2.531,1.266-5.461,1.469-8.14,0.578L7.299,436.773c-5.594-1.859-8.609-7.906-6.75-13.484c1.867-5.594,7.906-8.609,13.491-6.75
	l27.812,9.266l17.375-8.688c3.008-1.5,6.539-1.5,9.547,0l16.562,8.281l16.562-8.281c3-1.5,6.539-1.5,9.539,0l16.562,8.281
	l16.562-8.281c3.008-1.5,6.539-1.5,9.539,0l16.562,8.281l16.562-8.281c3.008-1.5,6.539-1.5,9.539,0l16.569,8.281l16.562-8.281
	c3-1.5,6.531-1.5,9.539,0l16.56,8.281l16.562-8.281c2.999-1.5,6.546-1.5,9.546,0l16.562,8.281l16.562-8.281c3-1.5,6.531-1.5,9.531,0
	l16.562,8.281l16.576-8.281c2.999-1.5,6.53-1.5,9.53,0l16.562,8.281l16.562-8.281c3-1.5,6.547-1.5,9.546,0l16.562,8.281
	l16.562-8.281c3-1.5,6.531-1.5,9.531,0l17.391,8.688l27.795-9.266c5.594-1.859,11.641,1.156,13.5,6.75
	c1.859,5.578-1.156,11.625-6.75,13.484l-31.998,10.672c-2.672,0.891-5.609,0.688-8.141-0.578l-16.562-8.281l-16.562,8.281
	c-3,1.5-6.531,1.5-9.546,0l-16.562-8.281l-16.562,8.281c-3,1.5-6.531,1.5-9.531,0l-16.562-8.281l-16.561,8.281
	C344.599,447.617,342.959,447.992,341.319,447.992z"/>
<g>
	<path style="fill:#7F4545;" d="M277.336,287.997h-36.194c-3.289,7.828-7.289,14.953-11.969,21.328h48.163
		c5.891,0,10.656-4.766,10.656-10.656S283.226,287.997,277.336,287.997z"/>
	<path style="fill:#7F4545;" d="M327.538,245.326h-28.875c-5.891,0-10.671,4.781-10.671,10.672c0,5.89,4.78,10.671,10.671,10.671
		h32.484C330.538,259.514,329.335,252.404,327.538,245.326z"/>
</g>
<g>
</g>
<g>
</g>
<g>
</g>
<g>
</g>
<g>
</g>
<g>
</g>
<g>
</g>
<g>
</g>
<g>
</g>
<g>
</g>
<g>
</g>
<g>
</g>
<g>
</g>
<g>
</g>
<g>
</g>
</svg>
