<?xml version="1.0" encoding="UTF-8" standalone="no"?>
<svg
   xmlns:dc="http://purl.org/dc/elements/1.1/"
   xmlns:cc="http://creativecommons.org/ns#"
   xmlns:rdf="http://www.w3.org/1999/02/22-rdf-syntax-ns#"
   xmlns:svg="http://www.w3.org/2000/svg"
   xmlns="http://www.w3.org/2000/svg"
   xmlns:sodipodi="http://sodipodi.sourceforge.net/DTD/sodipodi-0.dtd"
   xmlns:inkscape="http://www.inkscape.org/namespaces/inkscape"
   width="297mm"
   height="210mm"
   viewBox="0 0 297 210"
   version="1.1"
   id="svg8"
   inkscape:version="1.0.2-2 (e86c870879, 2021-01-15)"
   sodipodi:docname="itaipava.svg">
  <defs
     id="defs2">
    <pattern
       id="EMFhbasepattern"
       patternUnits="userSpaceOnUse"
       width="6"
       height="6"
       x="0"
       y="0" />
    <pattern
       id="EMFhbasepattern-6"
       patternUnits="userSpaceOnUse"
       width="6"
       height="6"
       x="0"
       y="0" />
    <pattern
       id="EMFhbasepattern-0"
       patternUnits="userSpaceOnUse"
       width="6"
       height="6"
       x="0"
       y="0" />
    <pattern
       id="EMFhbasepattern-1"
       patternUnits="userSpaceOnUse"
       width="6"
       height="6"
       x="0"
       y="0" />
    <pattern
       id="EMFhbasepattern-4"
       patternUnits="userSpaceOnUse"
       width="6"
       height="6"
       x="0"
       y="0" />
    <pattern
       id="EMFhbasepattern-02"
       patternUnits="userSpaceOnUse"
       width="6"
       height="6"
       x="0"
       y="0" />
    <pattern
       id="EMFhbasepattern-2"
       patternUnits="userSpaceOnUse"
       width="6"
       height="6"
       x="0"
       y="0" />
    <pattern
       id="EMFhbasepattern-7"
       patternUnits="userSpaceOnUse"
       width="6"
       height="6"
       x="0"
       y="0" />
    <pattern
       id="EMFhbasepattern-3"
       patternUnits="userSpaceOnUse"
       width="6"
       height="6"
       x="0"
       y="0" />
    <pattern
       id="EMFhbasepattern-29"
       patternUnits="userSpaceOnUse"
       width="6"
       height="6"
       x="0"
       y="0" />
  </defs>
  <sodipodi:namedview
     id="base"
     pagecolor="#ffffff"
     bordercolor="#666666"
     borderopacity="1.0"
     inkscape:pageopacity="0.0"
     inkscape:pageshadow="2"
     inkscape:zoom="0.7"
     inkscape:cx="541.17226"
     inkscape:cy="400.02025"
     inkscape:document-units="mm"
     inkscape:current-layer="layer1"
     inkscape:document-rotation="0"
     showgrid="false"
     inkscape:window-width="1680"
     inkscape:window-height="987"
     inkscape:window-x="-8"
     inkscape:window-y="-8"
     inkscape:window-maximized="1" />
  <metadata
     id="metadata5">
    <rdf:RDF>
      <cc:Work
         rdf:about="">
        <dc:format>image/svg+xml</dc:format>
        <dc:type
           rdf:resource="http://purl.org/dc/dcmitype/StillImage" />
        <dc:title></dc:title>
      </cc:Work>
    </rdf:RDF>
  </metadata>
  <g
     inkscape:label="Layer 1"
     inkscape:groupmode="layer"
     id="layer1">
    <path
       style="fill:none;stroke:#cccccc;stroke-width:0.0530262px;stroke-linecap:round;stroke-linejoin:round;stroke-miterlimit:4;stroke-dasharray:none;stroke-opacity:1"
       d="m 247.31363,202.57555 -66.87632,-22.09391 -1.97422,-18.25891 -12.48689,10.64624 -19.64337,-16.71352 41.95195,-47.96553 9.18006,6.86857 41.31034,-31.252017 42.59359,70.803527 z"
       id="path14530" />
    <path
       style="fill:none;stroke:#cccccc;stroke-width:0.0530262px;stroke-linecap:round;stroke-linejoin:round;stroke-miterlimit:4;stroke-dasharray:none;stroke-opacity:1"
       d="M 125.75169,188.1516 56.901053,177.16187 52.755199,159.3608 41.699608,171.95319 20.180742,158.55948 l 35.782562,-54.319 9.920397,5.32315 37.164489,-37.605444 50.68789,63.190894 z"
       id="path14532" />
    <path
       style="fill:none;stroke:#cccccc;stroke-width:0.0530262px;stroke-linecap:round;stroke-linejoin:round;stroke-miterlimit:4;stroke-dasharray:none;stroke-opacity:1"
       d="M 155.06869,118.32107 105.76276,58.392754 109.71118,45.914833 94.460368,48.776746 83.552861,23.477495 139.71921,3.0434858 145.19764,14.033203 194.20742,8.1949171 204.27587,93.765903 Z"
       id="path14534" />
    <path
       style="fill:none;stroke:#212830;stroke-width:0.0530262px;stroke-linecap:round;stroke-linejoin:round;stroke-miterlimit:4;stroke-dasharray:none;stroke-opacity:1"
       d="m 247.31363,202.57555 -66.87632,-22.09391 -1.97422,-18.25891 -12.48689,10.64624 -19.64337,-16.71352 41.95195,-47.96553 9.18006,6.86857 41.31034,-31.252017 42.59359,70.803527 z"
       id="path14536" />
    <path
       style="fill:none;stroke:#212830;stroke-width:0.0530262px;stroke-linecap:round;stroke-linejoin:round;stroke-miterlimit:4;stroke-dasharray:none;stroke-opacity:1"
       d="M 125.75169,188.1516 56.901053,177.16187 52.755199,159.3608 41.699608,171.95319 20.180742,158.55948 l 35.782562,-54.319 9.920397,5.32315 37.164489,-37.605444 50.68789,63.190894 z"
       id="path14538" />
    <path
       style="fill:none;stroke:#212830;stroke-width:0.0530262px;stroke-linecap:round;stroke-linejoin:round;stroke-miterlimit:4;stroke-dasharray:none;stroke-opacity:1"
       d="M 155.06869,118.32107 105.76276,58.392754 109.71118,45.914833 94.460368,48.776746 83.552861,23.477495 139.71921,3.0434858 145.19764,14.033203 194.20742,8.1949171 204.27587,93.765903 Z"
       id="path14540" />
    <path
       style="fill:none;stroke:#cccccc;stroke-width:0.0530262px;stroke-linecap:round;stroke-linejoin:round;stroke-miterlimit:4;stroke-dasharray:none;stroke-opacity:1"
       d="m 247.31363,202.57555 -66.87632,-22.09391 -1.97422,-18.25891 -12.48689,10.64624 -19.64337,-16.71352 41.95195,-47.96553 9.18006,6.86857 41.31034,-31.252017 42.59359,70.803527"
       id="path14542" />
    <path
       style="fill:none;stroke:#cccccc;stroke-width:0.0530262px;stroke-linecap:round;stroke-linejoin:round;stroke-miterlimit:4;stroke-dasharray:none;stroke-opacity:1"
       d="m 281.36877,154.61 -34.05514,47.96555"
       id="path14544" />
    <path
       style="fill:#cccccc;fill-opacity:1;fill-rule:evenodd;stroke:none;stroke-width:1.27445"
       d="m 238.77518,83.806473 14.6585,24.383447 h -46.88746 z"
       id="path14546" />
    <path
       style="fill:#cccccc;fill-opacity:1;fill-rule:evenodd;stroke:none;stroke-width:1.27445"
       d="m 188.28478,108.18992 9.18006,6.86857 H 182.3128 Z"
       id="path14548" />
    <path
       style="fill:#cccccc;fill-opacity:1;fill-rule:evenodd;stroke:none;stroke-width:1.27445"
       d="m 206.54622,108.18992 51.03332,6.86857 h -60.1147 z"
       id="path14550" />
    <path
       style="fill:#cccccc;fill-opacity:1;fill-rule:evenodd;stroke:none;stroke-width:1.27445"
       d="m 206.54622,108.18992 h 46.88746 l 4.14586,6.86857 z"
       id="path14552" />
    <path
       style="fill:#cccccc;fill-opacity:1;fill-rule:evenodd;stroke:none;stroke-width:1.27445"
       d="M 182.3128,115.05849 281.36877,154.61 H 147.66539 Z"
       id="path14554" />
    <path
       style="fill:#cccccc;fill-opacity:1;fill-rule:evenodd;stroke:none;stroke-width:1.27445"
       d="m 182.3128,115.05849 h 75.26674 L 281.36877,154.61 Z"
       id="path14556" />
    <path
       style="fill:#cccccc;fill-opacity:1;fill-rule:evenodd;stroke:none;stroke-width:1.27445"
       d="m 147.66539,154.61 132.66693,1.54545 H 146.33283 Z"
       id="path14558" />
    <path
       style="fill:#cccccc;fill-opacity:1;fill-rule:evenodd;stroke:none;stroke-width:1.27445"
       d="m 147.66539,154.61 h 133.70338 l -1.03645,1.54545 z"
       id="path14560" />
    <path
       style="fill:#cccccc;fill-opacity:1;fill-rule:evenodd;stroke:none;stroke-width:1.27445"
       d="m 153.48933,162.22273 h 24.97376 l -12.48689,10.64624 z"
       id="path14562" />
    <path
       style="fill:#cccccc;fill-opacity:1;fill-rule:evenodd;stroke:none;stroke-width:1.27445"
       d="m 146.33283,156.15545 129.65619,6.06728 H 153.48933 Z"
       id="path14564" />
    <path
       style="fill:#cccccc;fill-opacity:1;fill-rule:evenodd;stroke:none;stroke-width:1.27445"
       d="m 146.33283,156.15545 h 133.99949 l -4.3433,6.06728 z"
       id="path14566" />
    <path
       style="fill:#cccccc;fill-opacity:1;fill-rule:evenodd;stroke:none;stroke-width:1.27445"
       d="m 180.43731,180.48164 h 82.57129 l -15.69497,22.09391 z"
       id="path14568" />
    <path
       style="fill:#cccccc;fill-opacity:1;fill-rule:evenodd;stroke:none;stroke-width:1.27445"
       d="m 178.46309,162.22273 84.54551,18.25891 h -82.57129 z"
       id="path14570" />
    <path
       style="fill:#cccccc;fill-opacity:1;fill-rule:evenodd;stroke:none;stroke-width:1.27445"
       d="m 178.46309,162.22273 h 97.52593 l -12.98042,18.25891 z"
       id="path14572" />
    <path
       style="fill:none;stroke:#cccccc;stroke-width:0.0530262px;stroke-linecap:round;stroke-linejoin:round;stroke-miterlimit:4;stroke-dasharray:none;stroke-opacity:1"
       d="m 247.31363,202.57555 -66.87632,-22.09391 -1.97422,-18.25891 -12.48689,10.64624 -19.64337,-16.71352 41.95195,-47.96553 9.18006,6.86857 41.31034,-31.252017 42.59359,70.803527 z"
       id="path14574" />
    <path
       style="fill:none;stroke:#cccccc;stroke-width:0.0530262px;stroke-linecap:round;stroke-linejoin:round;stroke-miterlimit:4;stroke-dasharray:none;stroke-opacity:1"
       d="M 125.75169,188.1516 56.901053,177.16187 52.755199,159.3608 41.699608,171.95319 20.180742,158.55948 l 35.782562,-54.319 9.920397,5.32315 37.164489,-37.605444 50.68789,63.190894"
       id="path14576" />
    <path
       style="fill:none;stroke:#cccccc;stroke-width:0.0530262px;stroke-linecap:round;stroke-linejoin:round;stroke-miterlimit:4;stroke-dasharray:none;stroke-opacity:1"
       d="M 153.73608,135.14908 125.75169,188.1516"
       id="path14578" />
    <path
       style="fill:#cccccc;fill-opacity:1;fill-rule:evenodd;stroke:none;stroke-width:1.27445"
       d="m 103.04819,71.958186 25.91158,32.282294 H 71.115335 Z"
       id="path14580" />
    <path
       style="fill:#cccccc;fill-opacity:1;fill-rule:evenodd;stroke:none;stroke-width:1.27445"
       d="m 55.963304,104.24048 9.920397,5.32315 H 52.508444 Z"
       id="path14582" />
    <path
       style="fill:#cccccc;fill-opacity:1;fill-rule:evenodd;stroke:none;stroke-width:1.27445"
       d="m 71.115335,104.24048 62.089015,5.32315 H 65.883701 Z"
       id="path14584" />
    <path
       style="fill:#cccccc;fill-opacity:1;fill-rule:evenodd;stroke:none;stroke-width:1.27445"
       d="m 71.115335,104.24048 h 57.844435 l 4.24458,5.32315 z"
       id="path14586" />
    <path
       style="fill:#cccccc;fill-opacity:1;fill-rule:evenodd;stroke:none;stroke-width:1.27445"
       d="M 52.508444,109.56363 153.73608,135.14908 H 35.628912 Z"
       id="path14588" />
    <path
       style="fill:#cccccc;fill-opacity:1;fill-rule:evenodd;stroke:none;stroke-width:1.27445"
       d="m 52.508444,109.56363 h 80.695906 l 20.53173,25.58545 z"
       id="path14590" />
    <path
       style="fill:#cccccc;fill-opacity:1;fill-rule:evenodd;stroke:none;stroke-width:1.27445"
       d="M 35.628912,135.14908 141.3973,158.55948 H 20.180742 Z"
       id="path14592" />
    <path
       style="fill:#cccccc;fill-opacity:1;fill-rule:evenodd;stroke:none;stroke-width:1.27445"
       d="M 35.628912,135.14908 H 153.73608 l -12.33878,23.4104 z"
       id="path14594" />
    <path
       style="fill:#cccccc;fill-opacity:1;fill-rule:evenodd;stroke:none;stroke-width:1.27445"
       d="M 21.51335,159.3608 H 52.755199 L 41.699608,171.95319 Z"
       id="path14596" />
    <path
       style="fill:#cccccc;fill-opacity:1;fill-rule:evenodd;stroke:none;stroke-width:1.27445"
       d="M 20.180742,158.55948 140.95313,159.3608 H 21.51335 Z"
       id="path14598" />
    <path
       style="fill:#cccccc;fill-opacity:1;fill-rule:evenodd;stroke:none;stroke-width:1.27445"
       d="M 20.180742,158.55948 H 141.3973 l -0.44431,0.80132 z"
       id="path14600" />
    <path
       style="fill:#cccccc;fill-opacity:1;fill-rule:evenodd;stroke:none;stroke-width:1.27445"
       d="m 56.901053,177.16187 h 74.674557 l -5.82392,10.98973 z"
       id="path14602" />
    <path
       style="fill:#cccccc;fill-opacity:1;fill-rule:evenodd;stroke:none;stroke-width:1.27445"
       d="m 52.755199,159.3608 78.820411,17.80107 H 56.901053 Z"
       id="path14604" />
    <path
       style="fill:#cccccc;fill-opacity:1;fill-rule:evenodd;stroke:none;stroke-width:1.27445"
       d="m 52.755199,159.3608 h 88.197931 l -9.37752,17.80107 z"
       id="path14606" />
    <path
       style="fill:none;stroke:#cccccc;stroke-width:0.0530262px;stroke-linecap:round;stroke-linejoin:round;stroke-miterlimit:4;stroke-dasharray:none;stroke-opacity:1"
       d="M 125.75169,188.1516 56.901053,177.16187 52.755199,159.3608 41.699608,171.95319 20.180742,158.55948 l 35.782562,-54.319 9.920397,5.32315 37.164489,-37.605444 50.68789,63.190894 z"
       id="path14608" />
    <path
       style="fill:none;stroke:#cccccc;stroke-width:0.0530262px;stroke-linecap:round;stroke-linejoin:round;stroke-miterlimit:4;stroke-dasharray:none;stroke-opacity:1"
       d="M 155.06869,118.32107 105.76276,58.392754 109.71118,45.914833 94.460368,48.776746 83.552861,23.477495 139.71921,3.0434858 145.19764,14.033203 194.20742,8.1949171 204.27587,93.765903"
       id="path14610" />
    <path
       style="fill:none;stroke:#cccccc;stroke-width:0.0530262px;stroke-linecap:round;stroke-linejoin:round;stroke-miterlimit:4;stroke-dasharray:none;stroke-opacity:1"
       d="M 204.27587,93.765903 155.06869,118.32107"
       id="path14612" />
    <path
       style="fill:#cccccc;fill-opacity:1;fill-rule:evenodd;stroke:none;stroke-width:1.27445"
       d="m 139.71921,3.0434858 2.56648,5.1514313 h -16.63273 z"
       id="path14614" />
    <path
       style="fill:#cccccc;fill-opacity:1;fill-rule:evenodd;stroke:none;stroke-width:1.27445"
       d="m 194.20742,8.1949171 0.69098,5.8382859 h -49.70076 z"
       id="path14616" />
    <path
       style="fill:#cccccc;fill-opacity:1;fill-rule:evenodd;stroke:none;stroke-width:1.27445"
       d="m 125.65296,8.1949171 19.54468,5.8382859 h -35.68386 z"
       id="path14618" />
    <path
       style="fill:#cccccc;fill-opacity:1;fill-rule:evenodd;stroke:none;stroke-width:1.27445"
       d="m 125.65296,8.1949171 h 16.63273 l 2.91195,5.8382859 z"
       id="path14620" />
    <path
       style="fill:#cccccc;fill-opacity:1;fill-rule:evenodd;stroke:none;stroke-width:1.27445"
       d="m 109.51378,14.033203 86.51978,9.444292 H 83.552861 Z"
       id="path14622" />
    <path
       style="fill:#cccccc;fill-opacity:1;fill-rule:evenodd;stroke:none;stroke-width:1.27445"
       d="m 109.51378,14.033203 h 85.38462 l 1.13516,9.444292 z"
       id="path14624" />
    <path
       style="fill:#cccccc;fill-opacity:1;fill-rule:evenodd;stroke:none;stroke-width:1.27445"
       d="M 93.226502,45.914833 H 109.71118 L 94.460368,48.776746 Z"
       id="path14626" />
    <path
       style="fill:#cccccc;fill-opacity:1;fill-rule:evenodd;stroke:none;stroke-width:1.27445"
       d="M 83.552861,23.477495 198.64939,45.914833 H 93.226502 Z"
       id="path14628" />
    <path
       style="fill:#cccccc;fill-opacity:1;fill-rule:evenodd;stroke:none;stroke-width:1.27445"
       d="M 83.552861,23.477495 H 196.03356 l 2.61583,22.437338 z"
       id="path14630" />
    <path
       style="fill:#cccccc;fill-opacity:1;fill-rule:evenodd;stroke:none;stroke-width:1.27445"
       d="m 109.71118,45.914833 90.41885,12.477921 h -94.36727 z"
       id="path14632" />
    <path
       style="fill:#cccccc;fill-opacity:1;fill-rule:evenodd;stroke:none;stroke-width:1.27445"
       d="m 109.71118,45.914833 h 88.93821 l 1.48064,12.477921 z"
       id="path14634" />
    <path
       style="fill:#cccccc;fill-opacity:1;fill-rule:evenodd;stroke:none;stroke-width:1.27445"
       d="m 134.88238,93.765903 h 69.39349 l -49.20718,24.555167 z"
       id="path14636" />
    <path
       style="fill:#cccccc;fill-opacity:1;fill-rule:evenodd;stroke:none;stroke-width:1.27445"
       d="m 105.76276,58.392754 98.51311,35.373149 h -69.39349 z"
       id="path14638" />
    <path
       style="fill:#cccccc;fill-opacity:1;fill-rule:evenodd;stroke:none;stroke-width:1.27445"
       d="m 105.76276,58.392754 h 94.36727 l 4.14584,35.373149 z"
       id="path14640" />
    <path
       style="fill:none;stroke:#cccccc;stroke-width:0.0530262px;stroke-linecap:round;stroke-linejoin:round;stroke-miterlimit:4;stroke-dasharray:none;stroke-opacity:1"
       d="M 155.06869,118.32107 105.76276,58.392754 109.71118,45.914833 94.460368,48.776746 83.552861,23.477495 139.71921,3.0434858 145.19764,14.033203 194.20742,8.1949171 204.27587,93.765903 Z"
       id="path14642" />
  </g>
</svg>
