<?xml version="1.0" encoding="UTF-8" standalone="no"?>
<svg
   xmlns:dc="http://purl.org/dc/elements/1.1/"
   xmlns:cc="http://creativecommons.org/ns#"
   xmlns:rdf="http://www.w3.org/1999/02/22-rdf-syntax-ns#"
   xmlns:svg="http://www.w3.org/2000/svg"
   xmlns="http://www.w3.org/2000/svg"
   xmlns:sodipodi="http://sodipodi.sourceforge.net/DTD/sodipodi-0.dtd"
   xmlns:inkscape="http://www.inkscape.org/namespaces/inkscape"
   width="297mm"
   height="210mm"
   viewBox="0 0 297 210"
   version="1.1"
   id="svg8"
   inkscape:version="1.0.2-2 (e86c870879, 2021-01-15)"
   sodipodi:docname="oleos_graxas.svg">
  <defs
     id="defs2">
    <pattern
       id="EMFhbasepattern"
       patternUnits="userSpaceOnUse"
       width="6"
       height="6"
       x="0"
       y="0" />
    <pattern
       id="EMFhbasepattern-6"
       patternUnits="userSpaceOnUse"
       width="6"
       height="6"
       x="0"
       y="0" />
    <pattern
       id="EMFhbasepattern-0"
       patternUnits="userSpaceOnUse"
       width="6"
       height="6"
       x="0"
       y="0" />
    <pattern
       id="EMFhbasepattern-1"
       patternUnits="userSpaceOnUse"
       width="6"
       height="6"
       x="0"
       y="0" />
    <pattern
       id="EMFhbasepattern-4"
       patternUnits="userSpaceOnUse"
       width="6"
       height="6"
       x="0"
       y="0" />
    <pattern
       id="EMFhbasepattern-02"
       patternUnits="userSpaceOnUse"
       width="6"
       height="6"
       x="0"
       y="0" />
    <pattern
       id="EMFhbasepattern-2"
       patternUnits="userSpaceOnUse"
       width="6"
       height="6"
       x="0"
       y="0" />
    <pattern
       id="EMFhbasepattern-7"
       patternUnits="userSpaceOnUse"
       width="6"
       height="6"
       x="0"
       y="0" />
    <pattern
       id="EMFhbasepattern-3"
       patternUnits="userSpaceOnUse"
       width="6"
       height="6"
       x="0"
       y="0" />
    <pattern
       id="EMFhbasepattern-29"
       patternUnits="userSpaceOnUse"
       width="6"
       height="6"
       x="0"
       y="0" />
    <pattern
       id="EMFhbasepattern-5"
       patternUnits="userSpaceOnUse"
       width="6"
       height="6"
       x="0"
       y="0" />
    <pattern
       id="EMFhbasepattern-33"
       patternUnits="userSpaceOnUse"
       width="6"
       height="6"
       x="0"
       y="0" />
    <pattern
       id="EMFhbasepattern-07"
       patternUnits="userSpaceOnUse"
       width="6"
       height="6"
       x="0"
       y="0" />
  </defs>
  <sodipodi:namedview
     id="base"
     pagecolor="#ffffff"
     bordercolor="#666666"
     borderopacity="1.0"
     inkscape:pageopacity="0.0"
     inkscape:pageshadow="2"
     inkscape:zoom="0.7"
     inkscape:cx="541.17226"
     inkscape:cy="400.02025"
     inkscape:document-units="mm"
     inkscape:current-layer="layer1"
     inkscape:document-rotation="0"
     showgrid="false"
     inkscape:window-width="1680"
     inkscape:window-height="987"
     inkscape:window-x="-8"
     inkscape:window-y="-8"
     inkscape:window-maximized="1" />
  <metadata
     id="metadata5">
    <rdf:RDF>
      <cc:Work
         rdf:about="">
        <dc:format>image/svg+xml</dc:format>
        <dc:type
           rdf:resource="http://purl.org/dc/dcmitype/StillImage" />
        <dc:title></dc:title>
      </cc:Work>
    </rdf:RDF>
  </metadata>
  <g
     inkscape:label="Layer 1"
     inkscape:groupmode="layer"
     id="layer1">
    <path
       style="fill:none;stroke:#000000;stroke-width:0.0670637px;stroke-linecap:round;stroke-linejoin:round;stroke-miterlimit:4;stroke-dasharray:none;stroke-opacity:1"
       d="m 149.15257,12.3899 h 67.29521 V 4.8881999 L 149.15257,4.8256849 H 81.929675 v 7.5017021 z"
       id="path26830" />
    <path
       style="fill:none;stroke:#2d2d2d;stroke-width:0.0670637px;stroke-linecap:round;stroke-linejoin:round;stroke-miterlimit:4;stroke-dasharray:none;stroke-opacity:1"
       d="m 149.15257,12.3899 h 67.29521 V 4.8881999 L 149.15257,4.8256849 H 81.929675 v 7.5017021"
       id="path26832" />
    <path
       style="fill:none;stroke:#2d2d2d;stroke-width:0.0670637px;stroke-linecap:round;stroke-linejoin:round;stroke-miterlimit:4;stroke-dasharray:none;stroke-opacity:1"
       d="m 81.929675,12.327382 67.222895,0.06251"
       id="path26834" />
    <path
       style="fill:#2d2d2d;fill-opacity:1;fill-rule:evenodd;stroke:none;stroke-width:1.61184"
       d="M 216.44778,4.8881999 V 7.7638494 L 149.15257,4.8256812 Z"
       id="path26836" />
    <path
       style="fill:#2d2d2d;fill-opacity:1;fill-rule:evenodd;stroke:none;stroke-width:1.61184"
       d="M 149.15257,4.8256812 216.44778,10.639501 81.929675,4.8256812 Z"
       id="path26838" />
    <path
       style="fill:#2d2d2d;fill-opacity:1;fill-rule:evenodd;stroke:none;stroke-width:1.61184"
       d="m 149.15257,4.8256812 67.29521,2.9381682 v 2.8756516 z"
       id="path26840" />
    <path
       style="fill:#2d2d2d;fill-opacity:1;fill-rule:evenodd;stroke:none;stroke-width:1.61184"
       d="M 81.929675,4.8256812 216.44778,12.3899 81.929675,6.5760808 Z"
       id="path26842" />
    <path
       style="fill:#2d2d2d;fill-opacity:1;fill-rule:evenodd;stroke:none;stroke-width:1.61184"
       d="M 81.929675,4.8256812 216.44778,10.639501 V 12.3899 Z"
       id="path26844" />
    <path
       style="fill:#2d2d2d;fill-opacity:1;fill-rule:evenodd;stroke:none;stroke-width:1.61184"
       d="M 81.929675,9.4517304 149.15257,12.3899 81.929675,12.32738 Z"
       id="path26846" />
    <path
       style="fill:#2d2d2d;fill-opacity:1;fill-rule:evenodd;stroke:none;stroke-width:1.61184"
       d="M 81.929675,6.5760808 149.15257,12.3899 81.929675,9.4517304 Z"
       id="path26848" />
    <path
       style="fill:#2d2d2d;fill-opacity:1;fill-rule:evenodd;stroke:none;stroke-width:1.61184"
       d="M 81.929675,6.5760808 216.44778,12.3899 h -67.29521 z"
       id="path26850" />
    <path
       style="fill:none;stroke:#2d2d2d;stroke-width:0.0670637px;stroke-linecap:round;stroke-linejoin:round;stroke-miterlimit:4;stroke-dasharray:none;stroke-opacity:1"
       d="m 149.15257,12.3899 h 67.29521 V 4.8881999 L 149.15257,4.8256849 H 81.929675 v 7.5017021 z"
       id="path26852" />
    <path
       style="fill:#000000;fill-opacity:1;fill-rule:evenodd;stroke:none;stroke-width:1.61184"
       d="m 205.74995,12.3899 h -1.73484 -1.73477 l 0.0722,182.79144 h 1.73477 1.73484 z"
       id="path26854" />
    <path
       style="fill:none;stroke:#000000;stroke-width:0.0670637px;stroke-linecap:round;stroke-linejoin:round;stroke-miterlimit:4;stroke-dasharray:none;stroke-opacity:1"
       d="m 205.74995,12.3899 h -1.73484 -1.73477 l 0.0722,182.79144 h 1.73477 1.73484 z"
       id="path26856" />
    <path
       style="fill:#000000;fill-opacity:1;fill-rule:evenodd;stroke:none;stroke-width:1.61184"
       d="m 204.08741,195.18134 h 1.73477 v 0.24982 l -0.0722,0.24983 -0.14445,0.18765 -0.14446,0.24982 -0.21668,0.18765 -0.21669,0.12496 -0.21667,0.12496 -0.28892,0.0627 -0.43336,0.0627 z"
       id="path26858" />
    <path
       style="fill:none;stroke:#000000;stroke-width:0.0670637px;stroke-linecap:round;stroke-linejoin:round;stroke-miterlimit:4;stroke-dasharray:none;stroke-opacity:1"
       d="m 205.82218,195.18134 v 0.24982 l -0.0722,0.24983 -0.14445,0.18765 -0.14446,0.24982 -0.21668,0.18765 -0.21669,0.12496 -0.21667,0.12496 -0.28892,0.0627 -0.43336,0.0627"
       id="path26860" />
    <path
       style="fill:#000000;fill-opacity:1;fill-rule:evenodd;stroke:none;stroke-width:1.61184"
       d="m 204.08741,196.68169 v -1.50035 -1.50031 L 94.506853,193.55607 v 1.50031 1.50035 z"
       id="path26862" />
    <path
       style="fill:none;stroke:#000000;stroke-width:0.0670637px;stroke-linecap:round;stroke-linejoin:round;stroke-miterlimit:4;stroke-dasharray:none;stroke-opacity:1"
       d="m 204.08741,196.68169 v -1.50035 -1.50031 L 94.506853,193.55607 v 1.50031 1.50035 z"
       id="path26864" />
    <path
       style="fill:#000000;fill-opacity:1;fill-rule:evenodd;stroke:none;stroke-width:1.61184"
       d="m 94.506853,195.05631 v 1.50037 h -0.28891 l -0.288897,-0.0627 -0.21669,-0.12496 -0.288897,-0.12496 -0.21669,-0.18765 -0.144447,-0.18765 -0.14445,-0.18765 -0.0722,-0.24981 -0.0722,-0.3753 z"
       id="path26866" />
    <path
       style="fill:none;stroke:#000000;stroke-width:0.0670637px;stroke-linecap:round;stroke-linejoin:round;stroke-miterlimit:4;stroke-dasharray:none;stroke-opacity:1"
       d="m 94.506853,196.55668 h -0.28891 l -0.288897,-0.0627 -0.21669,-0.12496 -0.288897,-0.12496 -0.21669,-0.18765 -0.144447,-0.18765 -0.14445,-0.18765 -0.0722,-0.24981 -0.0722,-0.3753"
       id="path26868" />
    <path
       style="fill:#000000;fill-opacity:1;fill-rule:evenodd;stroke:none;stroke-width:1.61184"
       d="m 92.772042,195.05631 h 1.734811 1.734761 L 96.097164,12.327382 h -1.734761 -1.734761 z"
       id="path26870" />
    <path
       style="fill:none;stroke:#000000;stroke-width:0.0670637px;stroke-linecap:round;stroke-linejoin:round;stroke-miterlimit:4;stroke-dasharray:none;stroke-opacity:1"
       d="m 92.772042,195.05631 h 1.734811 1.734761 L 96.097164,12.327382 h -1.734761 -1.734761 z"
       id="path26872" />
    <path
       style="fill:#000000;fill-opacity:1;fill-rule:evenodd;stroke:none;stroke-width:1.61184"
       d="m 94.362273,12.327382 h -1.734751 v -0.250049 l 0.0722,-0.25005 0.14446,-0.187538 0.14445,-0.250049 0.216677,-0.187538 0.21668,-0.12503 0.21669,-0.125031 0.288897,-0.06251 0.433357,-0.06252 z"
       id="path26874" />
    <path
       style="fill:none;stroke:#000000;stroke-width:0.0670637px;stroke-linecap:round;stroke-linejoin:round;stroke-miterlimit:4;stroke-dasharray:none;stroke-opacity:1"
       d="m 92.627522,12.327382 v -0.250049 l 0.0722,-0.25005 0.14446,-0.187538 0.14445,-0.250049 0.216677,-0.187538 0.21668,-0.12503 0.21669,-0.125031 0.288897,-0.06251 0.433357,-0.06252"
       id="path26876" />
    <path
       style="fill:#000000;fill-opacity:1;fill-rule:evenodd;stroke:none;stroke-width:1.61184"
       d="m 94.362273,10.827044 v 1.500338 1.500344 l 109.652837,0.06251 v -1.500339 -1.500344 z"
       id="path26878" />
    <path
       style="fill:none;stroke:#000000;stroke-width:0.0670637px;stroke-linecap:round;stroke-linejoin:round;stroke-miterlimit:4;stroke-dasharray:none;stroke-opacity:1"
       d="m 94.362273,10.827044 v 1.500338 1.500344 l 109.652837,0.06251 v -1.500339 -1.500344 z"
       id="path26880" />
    <path
       style="fill:#000000;fill-opacity:1;fill-rule:evenodd;stroke:none;stroke-width:1.61184"
       d="m 204.01511,12.3899 v -1.500344 h 0.28891 l 0.28892,0.06251 0.21667,0.12503 0.28892,0.125031 0.21667,0.187536 0.14445,0.187537 0.14447,0.187539 0.0722,0.25005 0.0722,0.375073 z"
       id="path26882" />
    <path
       style="fill:none;stroke:#000000;stroke-width:0.0670637px;stroke-linecap:round;stroke-linejoin:round;stroke-miterlimit:4;stroke-dasharray:none;stroke-opacity:1"
       d="m 204.01511,10.889556 h 0.28891 l 0.28892,0.06251 0.21667,0.12503 0.28892,0.125031 0.21667,0.187536 0.14445,0.187537 0.14447,0.187539 0.0722,0.25005 0.0722,0.375073"
       id="path26884" />
    <path
       style="fill:#b7b7b7;fill-opacity:1;fill-rule:evenodd;stroke:none;stroke-width:1.61184"
       d="m 204.01511,12.3899 h -1.73477 l 0.0722,-0.437586 0.28891,-0.437587 0.36114,-0.312562 0.50625,-0.25005 0.50624,-0.06251 0.50625,0.06251 0.50625,0.25005 0.36113,0.312562 0.28892,0.437587 0.0722,0.437586 z"
       id="path26886" />
    <path
       style="fill:none;stroke:#b7b7b7;stroke-width:0.0670637px;stroke-linecap:round;stroke-linejoin:round;stroke-miterlimit:4;stroke-dasharray:none;stroke-opacity:1"
       d="m 202.28034,12.3899 0.0722,-0.437586 0.28891,-0.437587 0.36114,-0.312562 0.50625,-0.25005 0.50624,-0.06251 0.50625,0.06251 0.50625,0.25005 0.36113,0.312562 0.28892,0.437587 0.0722,0.437586"
       id="path26888" />
    <path
       style="fill:#b7b7b7;fill-opacity:1;fill-rule:evenodd;stroke:none;stroke-width:1.61184"
       d="m 205.74995,12.3899 h -1.73484 -1.73477 l 0.0722,182.79144 h 1.73477 1.73484 z"
       id="path26890" />
    <path
       style="fill:none;stroke:#b7b7b7;stroke-width:0.0670637px;stroke-linecap:round;stroke-linejoin:round;stroke-miterlimit:4;stroke-dasharray:none;stroke-opacity:1"
       d="m 205.74995,12.3899 h -1.73484 -1.73477 l 0.0722,182.79144 h 1.73477 1.73484 z"
       id="path26892" />
    <path
       style="fill:#b7b7b7;fill-opacity:1;fill-rule:evenodd;stroke:none;stroke-width:1.61184"
       d="m 204.08741,195.18134 h 1.73477 v 0.24982 l -0.0722,0.24983 -0.14445,0.18765 -0.14446,0.24982 -0.21668,0.18765 -0.21669,0.12496 -0.21667,0.12496 -0.28892,0.0627 -0.43336,0.0627 z"
       id="path26894" />
    <path
       style="fill:none;stroke:#b7b7b7;stroke-width:0.0670637px;stroke-linecap:round;stroke-linejoin:round;stroke-miterlimit:4;stroke-dasharray:none;stroke-opacity:1"
       d="m 205.82218,195.18134 v 0.24982 l -0.0722,0.24983 -0.14445,0.18765 -0.14446,0.24982 -0.21668,0.18765 -0.21669,0.12496 -0.21667,0.12496 -0.28892,0.0627 -0.43336,0.0627"
       id="path26896" />
    <path
       style="fill:#b7b7b7;fill-opacity:1;fill-rule:evenodd;stroke:none;stroke-width:1.61184"
       d="m 204.08741,196.68169 v -1.50035 -1.50031 L 94.506853,193.55607 v 1.50031 1.50035 z"
       id="path26898" />
    <path
       style="fill:none;stroke:#b7b7b7;stroke-width:0.0670637px;stroke-linecap:round;stroke-linejoin:round;stroke-miterlimit:4;stroke-dasharray:none;stroke-opacity:1"
       d="m 204.08741,196.68169 v -1.50035 -1.50031 L 94.506853,193.55607 v 1.50031 1.50035 z"
       id="path26900" />
    <path
       style="fill:#b7b7b7;fill-opacity:1;fill-rule:evenodd;stroke:none;stroke-width:1.61184"
       d="m 94.506853,195.05631 v 1.50037 h -0.28891 l -0.288897,-0.0627 -0.21669,-0.12496 -0.288897,-0.12496 -0.21669,-0.18765 -0.144447,-0.18765 -0.14445,-0.18765 -0.0722,-0.24981 -0.0722,-0.3753 z"
       id="path26902" />
    <path
       style="fill:none;stroke:#b7b7b7;stroke-width:0.0670637px;stroke-linecap:round;stroke-linejoin:round;stroke-miterlimit:4;stroke-dasharray:none;stroke-opacity:1"
       d="m 94.506853,196.55668 h -0.28891 l -0.288897,-0.0627 -0.21669,-0.12496 -0.288897,-0.12496 -0.21669,-0.18765 -0.144447,-0.18765 -0.14445,-0.18765 -0.0722,-0.24981 -0.0722,-0.3753"
       id="path26904" />
    <path
       style="fill:#b7b7b7;fill-opacity:1;fill-rule:evenodd;stroke:none;stroke-width:1.61184"
       d="m 92.772042,195.05631 h 1.734811 1.734761 L 96.097164,12.327382 h -1.734761 -1.734761 z"
       id="path26906" />
    <path
       style="fill:none;stroke:#b7b7b7;stroke-width:0.0670637px;stroke-linecap:round;stroke-linejoin:round;stroke-miterlimit:4;stroke-dasharray:none;stroke-opacity:1"
       d="m 92.772042,195.05631 h 1.734811 1.734761 L 96.097164,12.327382 h -1.734761 -1.734761 z"
       id="path26908" />
    <path
       style="fill:#b7b7b7;fill-opacity:1;fill-rule:evenodd;stroke:none;stroke-width:1.61184"
       d="m 94.362273,12.327382 h -1.734751 l 0.0722,-0.437587 0.28891,-0.437587 0.361127,-0.312562 0.506247,-0.25005 0.506247,-0.06251 0.506237,0.06251 0.506247,0.25005 0.36114,0.312562 0.288907,0.437587 0.0722,0.437587 z"
       id="path26910" />
    <path
       style="fill:none;stroke:#b7b7b7;stroke-width:0.0670637px;stroke-linecap:round;stroke-linejoin:round;stroke-miterlimit:4;stroke-dasharray:none;stroke-opacity:1"
       d="m 92.627522,12.327382 0.0722,-0.437587 0.28891,-0.437587 0.361127,-0.312562 0.506247,-0.25005 0.506247,-0.06251 0.506237,0.06251 0.506247,0.25005 0.36114,0.312562 0.288907,0.437587 0.0722,0.437587"
       id="path26912" />
    <path
       style="fill:#b7b7b7;fill-opacity:1;fill-rule:evenodd;stroke:none;stroke-width:1.61184"
       d="m 94.362273,12.327382 v 1.500344 l -0.506247,-0.06251 -0.506247,-0.25005 -0.361127,-0.312562 -0.28891,-0.437589 -0.0722,-0.437586 0.0722,-0.437587 0.28891,-0.437587 0.361127,-0.312562 0.506247,-0.25005 0.506247,-0.06251 z"
       id="path26914" />
    <path
       style="fill:none;stroke:#b7b7b7;stroke-width:0.0670637px;stroke-linecap:round;stroke-linejoin:round;stroke-miterlimit:4;stroke-dasharray:none;stroke-opacity:1"
       d="m 94.362273,13.827726 -0.506247,-0.06251 -0.506247,-0.25005 -0.361127,-0.312562 -0.28891,-0.437589 -0.0722,-0.437586 0.0722,-0.437587 0.28891,-0.437587 0.361127,-0.312562 0.506247,-0.25005 0.506247,-0.06251"
       id="path26916" />
    <path
       style="fill:#b7b7b7;fill-opacity:1;fill-rule:evenodd;stroke:none;stroke-width:1.61184"
       d="m 94.362273,10.827044 v 1.500338 1.500344 l 109.652837,0.06251 v -1.500339 -1.500344 z"
       id="path26918" />
    <path
       style="fill:none;stroke:#b7b7b7;stroke-width:0.0670637px;stroke-linecap:round;stroke-linejoin:round;stroke-miterlimit:4;stroke-dasharray:none;stroke-opacity:1"
       d="m 94.362273,10.827044 v 1.500338 1.500344 l 109.652837,0.06251 v -1.500339 -1.500344 z"
       id="path26920" />
    <path
       style="fill:#b7b7b7;fill-opacity:1;fill-rule:evenodd;stroke:none;stroke-width:1.61184"
       d="m 204.01511,12.3899 v -1.500344 l 0.50625,0.06251 0.50625,0.25005 0.36113,0.312562 0.28892,0.437587 0.0722,0.437587 -0.0722,0.437586 -0.28892,0.437589 -0.36113,0.312562 -0.50625,0.25005 -0.50625,0.06252 z"
       id="path26922" />
    <path
       style="fill:none;stroke:#b7b7b7;stroke-width:0.0670637px;stroke-linecap:round;stroke-linejoin:round;stroke-miterlimit:4;stroke-dasharray:none;stroke-opacity:1"
       d="m 204.01511,10.889556 0.50625,0.06251 0.50625,0.25005 0.36113,0.312562 0.28892,0.437587 0.0722,0.437587 -0.0722,0.437586 -0.28892,0.437589 -0.36113,0.312562 -0.50625,0.25005 -0.50625,0.06252"
       id="path26924" />
    <path
       style="fill:#b7b7b7;fill-opacity:1;fill-rule:evenodd;stroke:none;stroke-width:1.61184"
       d="m 204.01511,12.3899 v 4.688563 L 94.362273,12.327382 Z"
       id="path26926" />
    <path
       style="fill:#b7b7b7;fill-opacity:1;fill-rule:evenodd;stroke:none;stroke-width:1.61184"
       d="M 94.434563,190.36776 204.08741,195.18134 94.506853,195.05638 Z"
       id="path26928" />
    <path
       style="fill:#b7b7b7;fill-opacity:1;fill-rule:evenodd;stroke:none;stroke-width:1.61184"
       d="M 94.362273,12.327382 204.08741,195.18134 94.434563,190.36776 Z"
       id="path26930" />
    <path
       style="fill:#b7b7b7;fill-opacity:1;fill-rule:evenodd;stroke:none;stroke-width:1.61184"
       d="m 94.362273,12.327382 109.652837,4.751081 0.0722,178.102877 z"
       id="path26932" />
    <path
       style="fill:none;stroke:#b7b7b7;stroke-width:0.0670637px;stroke-linecap:round;stroke-linejoin:round;stroke-miterlimit:4;stroke-dasharray:none;stroke-opacity:1"
       d="m 204.01511,12.3899 0.0722,182.79144 -109.580547,-0.12496 -0.14445,-182.728937 z"
       id="path26934" />
    <path
       style="fill:none;stroke:#000000;stroke-width:0.0670637px;stroke-linecap:round;stroke-linejoin:round;stroke-miterlimit:4;stroke-dasharray:none;stroke-opacity:1"
       d="m 149.29709,202.62054 67.22298,0.0627 v -7.50171 l -67.22298,-0.0627 -67.295115,-0.0627 v 7.56422 z"
       id="path26936" />
    <path
       style="fill:none;stroke:#2d2d2d;stroke-width:0.0670637px;stroke-linecap:round;stroke-linejoin:round;stroke-miterlimit:4;stroke-dasharray:none;stroke-opacity:1"
       d="m 149.29709,202.62054 67.22298,0.0627 v -7.50171 l -67.22298,-0.0627 -67.295115,-0.0627 v 7.56422"
       id="path26938" />
    <path
       style="fill:none;stroke:#2d2d2d;stroke-width:0.0670637px;stroke-linecap:round;stroke-linejoin:round;stroke-miterlimit:4;stroke-dasharray:none;stroke-opacity:1"
       d="M 82.001975,202.62054 H 149.29709"
       id="path26940" />
    <path
       style="fill:#2d2d2d;fill-opacity:1;fill-rule:evenodd;stroke:none;stroke-width:1.61184"
       d="m 216.52007,195.18134 v 2.87568 l -67.22298,-2.93819 z"
       id="path26942" />
    <path
       style="fill:#2d2d2d;fill-opacity:1;fill-rule:evenodd;stroke:none;stroke-width:1.61184"
       d="m 149.29709,195.11883 67.22298,5.81382 -134.518095,-5.87634 z"
       id="path26944" />
    <path
       style="fill:#2d2d2d;fill-opacity:1;fill-rule:evenodd;stroke:none;stroke-width:1.61184"
       d="m 149.29709,195.11883 67.22298,2.93819 v 2.87563 z"
       id="path26946" />
    <path
       style="fill:#2d2d2d;fill-opacity:1;fill-rule:evenodd;stroke:none;stroke-width:1.61184"
       d="M 82.001975,195.05631 216.52007,202.68306 82.001975,196.80672 Z"
       id="path26948" />
    <path
       style="fill:#2d2d2d;fill-opacity:1;fill-rule:evenodd;stroke:none;stroke-width:1.61184"
       d="m 82.001975,195.05631 134.518095,5.87634 v 1.75041 z"
       id="path26950" />
    <path
       style="fill:#2d2d2d;fill-opacity:1;fill-rule:evenodd;stroke:none;stroke-width:1.61184"
       d="m 82.001975,199.74491 67.295115,2.87563 H 82.001975 Z"
       id="path26952" />
    <path
       style="fill:#2d2d2d;fill-opacity:1;fill-rule:evenodd;stroke:none;stroke-width:1.61184"
       d="m 82.001975,196.80672 67.295115,5.81382 -67.295115,-2.87563 z"
       id="path26954" />
    <path
       style="fill:#2d2d2d;fill-opacity:1;fill-rule:evenodd;stroke:none;stroke-width:1.61184"
       d="m 82.001975,196.80672 134.518095,5.87634 -67.22298,-0.0628 z"
       id="path26956" />
    <path
       style="fill:none;stroke:#2d2d2d;stroke-width:0.0670637px;stroke-linecap:round;stroke-linejoin:round;stroke-miterlimit:4;stroke-dasharray:none;stroke-opacity:1"
       d="m 149.29709,202.62054 67.22298,0.0627 v -7.50171 l -67.22298,-0.0627 -67.295115,-0.0627 v 7.56422 z"
       id="path26958" />
    <path
       style="fill:none;stroke:#000000;stroke-width:0.0670637px;stroke-linecap:round;stroke-linejoin:round;stroke-miterlimit:4;stroke-dasharray:none;stroke-opacity:1"
       d="m 149.22486,164.61191 -64.62069,-0.0627 v -6.81401 l 64.62069,0.0627 64.693,0.0627 v 6.81403 z"
       id="path26960" />
    <path
       style="fill:none;stroke:#898989;stroke-width:0.0670637px;stroke-linecap:round;stroke-linejoin:round;stroke-miterlimit:4;stroke-dasharray:none;stroke-opacity:1"
       d="m 149.22486,164.61191 -64.62069,-0.0627 v -6.81401 l 64.62069,0.0627 64.693,0.0627 v 6.81403"
       id="path26962" />
    <path
       style="fill:none;stroke:#898989;stroke-width:0.0670637px;stroke-linecap:round;stroke-linejoin:round;stroke-miterlimit:4;stroke-dasharray:none;stroke-opacity:1"
       d="m 213.91786,164.67442 -64.693,-0.0627"
       id="path26964" />
    <path
       style="fill:#898989;fill-opacity:1;fill-rule:evenodd;stroke:none;stroke-width:1.61184"
       d="m 213.91786,157.8604 v 2.75061 l -64.693,-2.81313 z"
       id="path26966" />
    <path
       style="fill:#898989;fill-opacity:1;fill-rule:evenodd;stroke:none;stroke-width:1.61184"
       d="m 149.22486,157.79788 64.693,5.56378 -129.31369,-5.62629 z"
       id="path26968" />
    <path
       style="fill:#898989;fill-opacity:1;fill-rule:evenodd;stroke:none;stroke-width:1.61184"
       d="m 149.22486,157.79788 64.693,2.81313 v 2.75065 z"
       id="path26970" />
    <path
       style="fill:#898989;fill-opacity:1;fill-rule:evenodd;stroke:none;stroke-width:1.61184"
       d="m 84.60417,157.73537 129.31369,6.93905 -129.31369,-5.62629 z"
       id="path26972" />
    <path
       style="fill:#898989;fill-opacity:1;fill-rule:evenodd;stroke:none;stroke-width:1.61184"
       d="m 84.60417,157.73537 129.31369,5.62629 v 1.31276 z"
       id="path26974" />
    <path
       style="fill:#898989;fill-opacity:1;fill-rule:evenodd;stroke:none;stroke-width:1.61184"
       d="m 84.60417,161.7988 64.62069,2.81311 -64.62069,-0.0627 z"
       id="path26976" />
    <path
       style="fill:#898989;fill-opacity:1;fill-rule:evenodd;stroke:none;stroke-width:1.61184"
       d="m 84.60417,159.04813 64.62069,5.56378 -64.62069,-2.81311 z"
       id="path26978" />
    <path
       style="fill:#898989;fill-opacity:1;fill-rule:evenodd;stroke:none;stroke-width:1.61184"
       d="m 84.60417,159.04813 129.31369,5.62629 -64.693,-0.0627 z"
       id="path26980" />
    <path
       style="fill:none;stroke:#898989;stroke-width:0.0670637px;stroke-linecap:round;stroke-linejoin:round;stroke-miterlimit:4;stroke-dasharray:none;stroke-opacity:1"
       d="m 149.22486,164.61191 -64.62069,-0.0627 v -6.81401 l 64.62069,0.0627 64.693,0.0627 v 6.81403 z"
       id="path26982" />
    <path
       style="fill:none;stroke:#000000;stroke-width:0.0670637px;stroke-linecap:round;stroke-linejoin:round;stroke-miterlimit:4;stroke-dasharray:none;stroke-opacity:1"
       d="M 149.22486,108.66176 H 84.60417 v -6.81408 h 64.62069 l 64.62071,0.0627 v 6.81408 z"
       id="path26984" />
    <path
       style="fill:none;stroke:#898989;stroke-width:0.0670637px;stroke-linecap:round;stroke-linejoin:round;stroke-miterlimit:4;stroke-dasharray:none;stroke-opacity:1"
       d="M 149.22486,108.66176 H 84.60417 v -6.81408 h 64.62069 l 64.62071,0.0627 v 6.81408"
       id="path26986" />
    <path
       style="fill:none;stroke:#898989;stroke-width:0.0670637px;stroke-linecap:round;stroke-linejoin:round;stroke-miterlimit:4;stroke-dasharray:none;stroke-opacity:1"
       d="m 213.84557,108.72426 -64.62071,-0.0627"
       id="path26988" />
    <path
       style="fill:#898989;fill-opacity:1;fill-rule:evenodd;stroke:none;stroke-width:1.61184"
       d="m 213.84557,101.91018 v 2.75066 l -64.62071,-2.81316 z"
       id="path26990" />
    <path
       style="fill:#898989;fill-opacity:1;fill-rule:evenodd;stroke:none;stroke-width:1.61184"
       d="m 149.22486,101.84768 64.62071,5.62628 -129.2414,-5.62628 z"
       id="path26992" />
    <path
       style="fill:#898989;fill-opacity:1;fill-rule:evenodd;stroke:none;stroke-width:1.61184"
       d="m 149.22486,101.84768 64.62071,2.81316 v 2.81312 z"
       id="path26994" />
    <path
       style="fill:#898989;fill-opacity:1;fill-rule:evenodd;stroke:none;stroke-width:1.61184"
       d="m 84.60417,101.84768 129.2414,6.87658 -129.2414,-5.62628 z"
       id="path26996" />
    <path
       style="fill:#898989;fill-opacity:1;fill-rule:evenodd;stroke:none;stroke-width:1.61184"
       d="m 84.60417,101.84768 129.2414,5.62628 v 1.2503 z"
       id="path26998" />
    <path
       style="fill:#898989;fill-opacity:1;fill-rule:evenodd;stroke:none;stroke-width:1.61184"
       d="m 84.60417,105.84858 64.62069,2.81318 H 84.60417 Z"
       id="path27000" />
    <path
       style="fill:#898989;fill-opacity:1;fill-rule:evenodd;stroke:none;stroke-width:1.61184"
       d="m 84.60417,103.09798 64.62069,5.56378 -64.62069,-2.81318 z"
       id="path27002" />
    <path
       style="fill:#898989;fill-opacity:1;fill-rule:evenodd;stroke:none;stroke-width:1.61184"
       d="m 84.60417,103.09798 129.2414,5.62628 -64.62071,-0.0627 z"
       id="path27004" />
    <path
       style="fill:none;stroke:#898989;stroke-width:0.0670637px;stroke-linecap:round;stroke-linejoin:round;stroke-miterlimit:4;stroke-dasharray:none;stroke-opacity:1"
       d="M 149.22486,108.66176 H 84.60417 v -6.81408 h 64.62069 l 64.62071,0.0627 v 6.81408 z"
       id="path27006" />
    <path
       style="fill:none;stroke:#000000;stroke-width:0.0670637px;stroke-linecap:round;stroke-linejoin:round;stroke-miterlimit:4;stroke-dasharray:none;stroke-opacity:1"
       d="m 149.22486,53.086635 -64.69299,-0.06257 v -6.814047 l 64.69299,0.06257 h 64.62071 v 6.814046 z"
       id="path27008" />
    <path
       style="fill:none;stroke:#898989;stroke-width:0.0670637px;stroke-linecap:round;stroke-linejoin:round;stroke-miterlimit:4;stroke-dasharray:none;stroke-opacity:1"
       d="m 149.22486,53.086635 -64.69299,-0.06257 v -6.814047 l 64.69299,0.06257 h 64.62071 v 6.814046"
       id="path27010" />
    <path
       style="fill:none;stroke:#898989;stroke-width:0.0670637px;stroke-linecap:round;stroke-linejoin:round;stroke-miterlimit:4;stroke-dasharray:none;stroke-opacity:1"
       d="M 213.84557,53.086635 H 149.22486"
       id="path27012" />
    <path
       style="fill:#898989;fill-opacity:1;fill-rule:evenodd;stroke:none;stroke-width:1.61184"
       d="m 213.84557,46.272589 v 2.813129 l -64.62071,-2.813129 z"
       id="path27014" />
    <path
       style="fill:#898989;fill-opacity:1;fill-rule:evenodd;stroke:none;stroke-width:1.61184"
       d="M 149.22486,46.272589 213.84557,51.83635 84.53187,46.210074 Z"
       id="path27016" />
    <path
       style="fill:#898989;fill-opacity:1;fill-rule:evenodd;stroke:none;stroke-width:1.61184"
       d="m 149.22486,46.272589 64.62071,2.813129 v 2.750632 z"
       id="path27018" />
    <path
       style="fill:#898989;fill-opacity:1;fill-rule:evenodd;stroke:none;stroke-width:1.61184"
       d="m 84.53187,46.210074 129.3137,6.876561 -129.3137,-5.626276 z"
       id="path27020" />
    <path
       style="fill:#898989;fill-opacity:1;fill-rule:evenodd;stroke:none;stroke-width:1.61184"
       d="m 84.53187,46.210074 129.3137,5.626276 v 1.250285 z"
       id="path27022" />
    <path
       style="fill:#898989;fill-opacity:1;fill-rule:evenodd;stroke:none;stroke-width:1.61184"
       d="m 84.53187,50.273488 64.69299,2.813147 -64.69299,-0.06257 z"
       id="path27024" />
    <path
       style="fill:#898989;fill-opacity:1;fill-rule:evenodd;stroke:none;stroke-width:1.61184"
       d="m 84.53187,47.460359 64.69299,5.626276 -64.69299,-2.813147 z"
       id="path27026" />
    <path
       style="fill:#898989;fill-opacity:1;fill-rule:evenodd;stroke:none;stroke-width:1.61184"
       d="m 84.53187,47.460359 129.3137,5.626276 h -64.62071 z"
       id="path27028" />
    <path
       style="fill:none;stroke:#898989;stroke-width:0.0670637px;stroke-linecap:round;stroke-linejoin:round;stroke-miterlimit:4;stroke-dasharray:none;stroke-opacity:1"
       d="m 149.22486,53.086635 -64.69299,-0.06257 v -6.814047 l 64.69299,0.06257 h 64.62071 v 6.814046 z"
       id="path27030" />
  </g>
</svg>
