<?xml version="1.0" encoding="UTF-8" standalone="no"?>
<svg
   xmlns:dc="http://purl.org/dc/elements/1.1/"
   xmlns:cc="http://creativecommons.org/ns#"
   xmlns:rdf="http://www.w3.org/1999/02/22-rdf-syntax-ns#"
   xmlns:svg="http://www.w3.org/2000/svg"
   xmlns="http://www.w3.org/2000/svg"
   xmlns:sodipodi="http://sodipodi.sourceforge.net/DTD/sodipodi-0.dtd"
   xmlns:inkscape="http://www.inkscape.org/namespaces/inkscape"
   width="297mm"
   height="210mm"
   viewBox="0 0 297 210"
   version="1.1"
   id="svg8"
   inkscape:version="1.0.2-2 (e86c870879, 2021-01-15)"
   sodipodi:docname="placa_diversas.svg">
  <defs
     id="defs2">
    <pattern
       id="EMFhbasepattern"
       patternUnits="userSpaceOnUse"
       width="6"
       height="6"
       x="0"
       y="0" />
    <pattern
       id="EMFhbasepattern-0"
       patternUnits="userSpaceOnUse"
       width="6"
       height="6"
       x="0"
       y="0" />
    <pattern
       id="EMFhbasepattern-07"
       patternUnits="userSpaceOnUse"
       width="6"
       height="6"
       x="0"
       y="0" />
    <pattern
       id="EMFhbasepattern-5"
       patternUnits="userSpaceOnUse"
       width="6"
       height="6"
       x="0"
       y="0" />
    <pattern
       id="EMFhbasepattern-01"
       patternUnits="userSpaceOnUse"
       width="6"
       height="6"
       x="0"
       y="0" />
    <pattern
       id="EMFhbasepattern-1"
       patternUnits="userSpaceOnUse"
       width="6"
       height="6"
       x="0"
       y="0" />
    <pattern
       id="EMFhbasepattern-2"
       patternUnits="userSpaceOnUse"
       width="6"
       height="6"
       x="0"
       y="0" />
    <pattern
       id="EMFhbasepattern-3"
       patternUnits="userSpaceOnUse"
       width="6"
       height="6"
       x="0"
       y="0" />
    <pattern
       id="EMFhbasepattern-21"
       patternUnits="userSpaceOnUse"
       width="6"
       height="6"
       x="0"
       y="0" />
    <pattern
       id="EMFhbasepattern-51"
       patternUnits="userSpaceOnUse"
       width="6"
       height="6"
       x="0"
       y="0" />
    <pattern
       id="EMFhbasepattern-7"
       patternUnits="userSpaceOnUse"
       width="6"
       height="6"
       x="0"
       y="0" />
    <pattern
       id="EMFhbasepattern-6"
       patternUnits="userSpaceOnUse"
       width="6"
       height="6"
       x="0"
       y="0" />
    <pattern
       id="EMFhbasepattern-61"
       patternUnits="userSpaceOnUse"
       width="6"
       height="6"
       x="0"
       y="0" />
    <pattern
       id="EMFhbasepattern-612"
       patternUnits="userSpaceOnUse"
       width="6"
       height="6"
       x="0"
       y="0" />
    <pattern
       id="EMFhbasepattern-39"
       patternUnits="userSpaceOnUse"
       width="6"
       height="6"
       x="0"
       y="0" />
    <pattern
       id="EMFhbasepattern-25"
       patternUnits="userSpaceOnUse"
       width="6"
       height="6"
       x="0"
       y="0" />
    <pattern
       id="EMFhbasepattern-16"
       patternUnits="userSpaceOnUse"
       width="6"
       height="6"
       x="0"
       y="0" />
    <pattern
       id="EMFhbasepattern-22"
       patternUnits="userSpaceOnUse"
       width="6"
       height="6"
       x="0"
       y="0" />
    <pattern
       id="EMFhbasepattern-4"
       patternUnits="userSpaceOnUse"
       width="6"
       height="6"
       x="0"
       y="0" />
    <pattern
       id="EMFhbasepattern-06"
       patternUnits="userSpaceOnUse"
       width="6"
       height="6"
       x="0"
       y="0" />
    <pattern
       id="EMFhbasepattern-31"
       patternUnits="userSpaceOnUse"
       width="6"
       height="6"
       x="0"
       y="0" />
    <pattern
       id="EMFhbasepattern-37"
       patternUnits="userSpaceOnUse"
       width="6"
       height="6"
       x="0"
       y="0" />
    <pattern
       id="EMFhbasepattern-55"
       patternUnits="userSpaceOnUse"
       width="6"
       height="6"
       x="0"
       y="0" />
    <pattern
       id="EMFhbasepattern-8"
       patternUnits="userSpaceOnUse"
       width="6"
       height="6"
       x="0"
       y="0" />
    <pattern
       id="EMFhbasepattern-9"
       patternUnits="userSpaceOnUse"
       width="6"
       height="6"
       x="0"
       y="0" />
    <pattern
       id="EMFhbasepattern-40"
       patternUnits="userSpaceOnUse"
       width="6"
       height="6"
       x="0"
       y="0" />
    <pattern
       id="EMFhbasepattern-12"
       patternUnits="userSpaceOnUse"
       width="6"
       height="6"
       x="0"
       y="0" />
    <pattern
       id="EMFhbasepattern-76"
       patternUnits="userSpaceOnUse"
       width="6"
       height="6"
       x="0"
       y="0" />
    <pattern
       id="EMFhbasepattern-05"
       patternUnits="userSpaceOnUse"
       width="6"
       height="6"
       x="0"
       y="0" />
    <pattern
       id="EMFhbasepattern-518"
       patternUnits="userSpaceOnUse"
       width="6"
       height="6"
       x="0"
       y="0" />
    <pattern
       id="EMFhbasepattern-41"
       patternUnits="userSpaceOnUse"
       width="6"
       height="6"
       x="0"
       y="0" />
  </defs>
  <sodipodi:namedview
     id="base"
     pagecolor="#ffffff"
     bordercolor="#666666"
     borderopacity="1.0"
     inkscape:pageopacity="0.0"
     inkscape:pageshadow="2"
     inkscape:zoom="0.7"
     inkscape:cx="533.20488"
     inkscape:cy="392.63145"
     inkscape:document-units="mm"
     inkscape:current-layer="layer1"
     inkscape:document-rotation="0"
     showgrid="false"
     inkscape:window-width="1680"
     inkscape:window-height="987"
     inkscape:window-x="-8"
     inkscape:window-y="-8"
     inkscape:window-maximized="1" />
  <metadata
     id="metadata5">
    <rdf:RDF>
      <cc:Work
         rdf:about="">
        <dc:format>image/svg+xml</dc:format>
        <dc:type
           rdf:resource="http://purl.org/dc/dcmitype/StillImage" />
        <dc:title></dc:title>
      </cc:Work>
    </rdf:RDF>
  </metadata>
  <g
     inkscape:label="Layer 1"
     inkscape:groupmode="layer"
     id="layer1">
    <path
       style="fill:#212830;fill-opacity:1;fill-rule:evenodd;stroke:none;stroke-width:0.526452"
       d="m 144.00376,45.127996 21.74544,2.014625 h -32.51923 z"
       id="path230397" />
    <path
       style="fill:#212830;fill-opacity:1;fill-rule:evenodd;stroke:none;stroke-width:0.526452"
       d="m 144.00376,45.127996 h 10.97166 l 10.77378,2.014625 z"
       id="path230399" />
    <path
       style="fill:#212830;fill-opacity:1;fill-rule:evenodd;stroke:none;stroke-width:0.526452"
       d="m 133.22997,47.142621 42.74332,3.94166 h -52.96741 z"
       id="path230401" />
    <path
       style="fill:#212830;fill-opacity:1;fill-rule:evenodd;stroke:none;stroke-width:0.526452"
       d="m 133.22997,47.142621 h 32.51923 l 10.22409,3.94166 z"
       id="path230403" />
    <path
       style="fill:#212830;fill-opacity:1;fill-rule:evenodd;stroke:none;stroke-width:0.526452"
       d="m 123.00588,51.084281 62.31202,5.7592 h -71.63465 z"
       id="path230405" />
    <path
       style="fill:#212830;fill-opacity:1;fill-rule:evenodd;stroke:none;stroke-width:0.526452"
       d="m 123.00588,51.084281 h 52.96741 l 9.34461,5.7592 z"
       id="path230407" />
    <path
       style="fill:#212830;fill-opacity:1;fill-rule:evenodd;stroke:none;stroke-width:0.526452"
       d="m 113.68325,56.843481 79.72598,7.379657 h -87.83929 z"
       id="path230409" />
    <path
       style="fill:#212830;fill-opacity:1;fill-rule:evenodd;stroke:none;stroke-width:0.526452"
       d="m 113.68325,56.843481 h 71.63465 l 8.09133,7.379657 z"
       id="path230411" />
    <path
       style="fill:#212830;fill-opacity:1;fill-rule:evenodd;stroke:none;stroke-width:0.526452"
       d="m 105.56994,64.223138 94.45747,8.715448 H 98.951753 Z"
       id="path230413" />
    <path
       style="fill:#212830;fill-opacity:1;fill-rule:evenodd;stroke:none;stroke-width:0.526452"
       d="m 105.56994,64.223138 h 87.83929 l 6.61818,8.715448 z"
       id="path230415" />
    <path
       style="fill:#212830;fill-opacity:1;fill-rule:evenodd;stroke:none;stroke-width:0.526452"
       d="M 98.951753,72.938586 204.9086,82.727044 H 94.070581 Z"
       id="path230417" />
    <path
       style="fill:#212830;fill-opacity:1;fill-rule:evenodd;stroke:none;stroke-width:0.526452"
       d="M 98.951753,72.938586 H 200.02741 l 4.88119,9.788458 z"
       id="path230419" />
    <path
       style="fill:#212830;fill-opacity:1;fill-rule:evenodd;stroke:none;stroke-width:0.526452"
       d="M 94.070581,82.727044 207.92086,93.260039 H 91.058315 Z"
       id="path230421" />
    <path
       style="fill:#212830;fill-opacity:1;fill-rule:evenodd;stroke:none;stroke-width:0.526452"
       d="M 94.070581,82.727044 H 204.9086 l 3.01226,10.532995 z"
       id="path230423" />
    <path
       style="fill:#212830;fill-opacity:1;fill-rule:evenodd;stroke:none;stroke-width:0.526452"
       d="M 91.058315,93.260039 208.93228,104.14339 H 90.046904 Z"
       id="path230425" />
    <path
       style="fill:#212830;fill-opacity:1;fill-rule:evenodd;stroke:none;stroke-width:0.526452"
       d="M 91.058315,93.260039 H 207.92086 l 1.01142,10.883351 z"
       id="path230427" />
    <path
       style="fill:#212830;fill-opacity:1;fill-rule:evenodd;stroke:none;stroke-width:0.526452"
       d="M 90.046904,104.14339 207.92086,115.02675 H 91.058315 Z"
       id="path230429" />
    <path
       style="fill:#212830;fill-opacity:1;fill-rule:evenodd;stroke:none;stroke-width:0.526452"
       d="M 90.046904,104.14339 H 208.93228 l -1.01142,10.88336 z"
       id="path230431" />
    <path
       style="fill:#212830;fill-opacity:1;fill-rule:evenodd;stroke:none;stroke-width:0.526452"
       d="m 91.058315,115.02675 113.850285,10.533 H 94.070581 Z"
       id="path230433" />
    <path
       style="fill:#212830;fill-opacity:1;fill-rule:evenodd;stroke:none;stroke-width:0.526452"
       d="M 91.058315,115.02675 H 207.92086 l -3.01226,10.533 z"
       id="path230435" />
    <path
       style="fill:#212830;fill-opacity:1;fill-rule:evenodd;stroke:none;stroke-width:0.526452"
       d="m 94.070581,125.55975 105.956829,9.78844 H 98.951753 Z"
       id="path230437" />
    <path
       style="fill:#212830;fill-opacity:1;fill-rule:evenodd;stroke:none;stroke-width:0.526452"
       d="M 94.070581,125.55975 H 204.9086 l -4.88119,9.78844 z"
       id="path230439" />
    <path
       style="fill:#212830;fill-opacity:1;fill-rule:evenodd;stroke:none;stroke-width:0.526452"
       d="m 98.951753,135.34819 94.457477,8.71543 h -87.83929 z"
       id="path230441" />
    <path
       style="fill:#212830;fill-opacity:1;fill-rule:evenodd;stroke:none;stroke-width:0.526452"
       d="M 98.951753,135.34819 H 200.02741 l -6.61818,8.71543 z"
       id="path230443" />
    <path
       style="fill:#212830;fill-opacity:1;fill-rule:evenodd;stroke:none;stroke-width:0.526452"
       d="m 105.56994,144.06362 79.74796,7.37969 h -71.63465 z"
       id="path230445" />
    <path
       style="fill:#212830;fill-opacity:1;fill-rule:evenodd;stroke:none;stroke-width:0.526452"
       d="m 105.56994,144.06362 h 87.83929 l -8.09133,7.37969 z"
       id="path230447" />
    <path
       style="fill:#212830;fill-opacity:1;fill-rule:evenodd;stroke:none;stroke-width:0.526452"
       d="m 113.68325,151.44331 62.29004,5.75919 h -52.96741 z"
       id="path230449" />
    <path
       style="fill:#212830;fill-opacity:1;fill-rule:evenodd;stroke:none;stroke-width:0.526452"
       d="m 113.68325,151.44331 h 71.63465 l -9.34461,5.75919 z"
       id="path230451" />
    <path
       style="fill:#212830;fill-opacity:1;fill-rule:evenodd;stroke:none;stroke-width:0.526452"
       d="m 123.00588,157.2025 42.74332,3.94166 h -32.51923 z"
       id="path230453" />
    <path
       style="fill:#212830;fill-opacity:1;fill-rule:evenodd;stroke:none;stroke-width:0.526452"
       d="m 123.00588,157.2025 h 52.96741 l -10.22409,3.94166 z"
       id="path230455" />
    <path
       style="fill:#212830;fill-opacity:1;fill-rule:evenodd;stroke:none;stroke-width:0.526452"
       d="m 133.22997,161.14416 21.74545,2.01462 h -10.97166 z"
       id="path230457" />
    <path
       style="fill:#212830;fill-opacity:1;fill-rule:evenodd;stroke:none;stroke-width:0.526452"
       d="m 133.22997,161.14416 h 32.51923 l -10.77378,2.01462 z"
       id="path230459" />
    <path
       style="fill:none;stroke:#212830;stroke-width:0.0219095px;stroke-linecap:round;stroke-linejoin:round;stroke-miterlimit:4;stroke-dasharray:none;stroke-opacity:1"
       d="m 208.93228,104.14339 -1.01142,-10.883351 -3.01226,-10.532995 -4.88119,-9.788458 -6.61818,-8.715448 -8.09133,-7.379657 -9.34461,-5.7592 -10.22409,-3.94166 -10.77378,-2.014625 h -10.97166 l -10.77379,2.014625 -10.22409,3.94166 -9.32263,5.7592 -8.11331,7.379657 -6.618187,8.715448 -4.881172,9.788458 -3.012266,10.532995 -1.011411,10.883351 1.011411,10.88336 3.012266,10.533 4.881172,9.78844 6.618187,8.71543 8.11331,7.37969 9.32263,5.75919 10.22409,3.94166 10.77379,2.01462 h 10.97166 l 10.77378,-2.01462 10.22409,-3.94166 9.34461,-5.75919 8.09133,-7.37969 6.61818,-8.71543 4.88119,-9.78844 3.01226,-10.533 z"
       id="path230461" />
    <path
       style="fill:#ffff00;fill-opacity:1;fill-rule:evenodd;stroke:none;stroke-width:0.526452"
       d="m 105.7898,1.572661 147.7987,59.62855 H 45.390674 Z"
       id="path230463" />
    <path
       style="fill:#ffff00;fill-opacity:1;fill-rule:evenodd;stroke:none;stroke-width:0.526452"
       d="m 105.7898,1.572661 h 87.39956 l 60.39914,59.62855 z"
       id="path230465" />
    <path
       style="fill:#ffff00;fill-opacity:1;fill-rule:evenodd;stroke:none;stroke-width:0.526452"
       d="M 45.390674,61.201211 253.5885,147.08558 H 45.390674 Z"
       id="path230467" />
    <path
       style="fill:#ffff00;fill-opacity:1;fill-rule:evenodd;stroke:none;stroke-width:0.526452"
       d="M 45.390674,61.201211 H 253.5885 v 85.884369 z"
       id="path230469" />
    <path
       style="fill:#ffff00;fill-opacity:1;fill-rule:evenodd;stroke:none;stroke-width:0.526452"
       d="M 45.390674,147.08558 193.18936,206.69222 H 105.7898 Z"
       id="path230471" />
    <path
       style="fill:#ffff00;fill-opacity:1;fill-rule:evenodd;stroke:none;stroke-width:0.526452"
       d="M 45.390674,147.08558 H 253.5885 l -60.39914,59.60664 z"
       id="path230473" />
    <path
       style="fill:none;stroke:#ffff00;stroke-width:0.0219095px;stroke-linecap:round;stroke-linejoin:round;stroke-miterlimit:4;stroke-dasharray:none;stroke-opacity:1"
       d="m 105.7898,206.69222 h 87.39956 L 253.5885,147.08558 V 61.201211 L 193.18936,1.572661 H 105.7898 l -60.399126,59.62855 v 85.884369 z"
       id="path230475" />
    <path
       style="fill:#212830;fill-opacity:1;fill-rule:evenodd;stroke:none;stroke-width:0.526452"
       d="M 108.40631,7.9231127 247.23417,63.850876 H 51.745008 Z"
       id="path230477" />
    <path
       style="fill:#212830;fill-opacity:1;fill-rule:evenodd;stroke:none;stroke-width:0.526452"
       d="m 108.40631,7.9231127 h 82.18855 l 56.63931,55.9277633 z"
       id="path230479" />
    <path
       style="fill:#212830;fill-opacity:1;fill-rule:evenodd;stroke:none;stroke-width:0.526452"
       d="M 51.745008,63.850876 247.23417,144.4359 H 51.745008 Z"
       id="path230481" />
    <path
       style="fill:#212830;fill-opacity:1;fill-rule:evenodd;stroke:none;stroke-width:0.526452"
       d="M 51.745008,63.850876 H 247.23417 V 144.4359 Z"
       id="path230483" />
    <path
       style="fill:#212830;fill-opacity:1;fill-rule:evenodd;stroke:none;stroke-width:0.526452"
       d="M 51.745008,144.4359 190.59486,200.36367 H 108.40631 Z"
       id="path230485" />
    <path
       style="fill:#212830;fill-opacity:1;fill-rule:evenodd;stroke:none;stroke-width:0.526452"
       d="M 51.745008,144.4359 H 247.23417 l -56.63931,55.92777 z"
       id="path230487" />
    <path
       style="fill:none;stroke:#212830;stroke-width:0.0219095px;stroke-linecap:round;stroke-linejoin:round;stroke-miterlimit:4;stroke-dasharray:none;stroke-opacity:1"
       d="m 108.40631,200.36367 h 82.18855 L 247.23417,144.4359 V 63.850876 L 190.59486,7.9231127 H 108.40631 L 51.745008,63.850876 V 144.4359 Z"
       id="path230489" />
    <path
       style="fill:#ffff00;fill-opacity:1;fill-rule:evenodd;stroke:none;stroke-width:0.526452"
       d="M 110.36318,12.675001 242.46291,65.821708 H 56.516248 Z"
       id="path230491" />
    <path
       style="fill:#ffff00;fill-opacity:1;fill-rule:evenodd;stroke:none;stroke-width:0.526452"
       d="M 110.36318,12.675001 H 188.616 l 53.84691,53.146707 z"
       id="path230493" />
    <path
       style="fill:#ffff00;fill-opacity:1;fill-rule:evenodd;stroke:none;stroke-width:0.526452"
       d="M 56.516248,65.821708 242.46291,142.46508 H 56.516248 Z"
       id="path230495" />
    <path
       style="fill:#ffff00;fill-opacity:1;fill-rule:evenodd;stroke:none;stroke-width:0.526452"
       d="M 56.516248,65.821708 H 242.46291 v 76.643372 z"
       id="path230497" />
    <path
       style="fill:#ffff00;fill-opacity:1;fill-rule:evenodd;stroke:none;stroke-width:0.526452"
       d="M 56.516248,142.46508 188.616,195.61179 h -78.25282 z"
       id="path230499" />
    <path
       style="fill:#ffff00;fill-opacity:1;fill-rule:evenodd;stroke:none;stroke-width:0.526452"
       d="M 56.516248,142.46508 H 242.46291 L 188.616,195.61179 Z"
       id="path230501" />
    <path
       style="fill:none;stroke:#ffff00;stroke-width:0.0219095px;stroke-linecap:round;stroke-linejoin:round;stroke-miterlimit:4;stroke-dasharray:none;stroke-opacity:1"
       d="M 110.36318,195.61179 H 188.616 l 53.84691,-53.14671 V 65.821708 L 188.616,12.675001 H 110.36318 L 56.516248,65.821708 v 76.643372 z"
       id="path230503" />
    <path
       style="fill:none;stroke:#212830;stroke-width:0.0219095px;stroke-linecap:round;stroke-linejoin:round;stroke-miterlimit:4;stroke-dasharray:none;stroke-opacity:1"
       d="m 105.7898,206.69222 h 87.39956 L 253.5885,147.08558 V 61.201211 L 193.18936,1.572661 H 105.7898 l -60.399126,59.62855 v 85.884369 z"
       id="path230505" />
    <path
       style="fill:none;stroke:#212830;stroke-width:0.0219095px;stroke-linecap:round;stroke-linejoin:round;stroke-miterlimit:4;stroke-dasharray:none;stroke-opacity:1"
       d="m 108.40631,200.36367 h 82.18855 L 247.23417,144.4359 V 63.850876 L 190.59486,7.9231127 H 108.40631 L 51.745008,63.850876 V 144.4359 Z"
       id="path230507" />
    <path
       style="fill:none;stroke:#212830;stroke-width:0.0219095px;stroke-linecap:round;stroke-linejoin:round;stroke-miterlimit:4;stroke-dasharray:none;stroke-opacity:1"
       d="M 110.36318,195.61179 H 188.616 l 53.84691,-53.14671 V 65.821708 L 188.616,12.675001 H 110.36318 L 56.516248,65.821708 v 76.643372 z"
       id="path230509" />
    <text
       xml:space="preserve"
       style="font-style:normal;font-variant:normal;font-weight:400;font-size:111.575px;line-height:125%;font-family:Arial;text-align:start;letter-spacing:0px;word-spacing:0px;text-anchor:start;fill:#000000;fill-opacity:1;stroke:none;stroke-width:0.526452"
       transform="matrix(0.96752053,-0.26461603,0.26649955,0.96068241,0,0)"
       x="83.1726"
       y="177.83842"
       id="text230515"><tspan
         sodipodi:role="line"
         x="83.1726"
         y="177.83842"
         id="tspan230513"
         style="stroke-width:0.526452"><tspan
           dx="0"
           dy="0"
           style="font-style:normal;font-variant:normal;font-weight:400;font-size:111.575px;font-family:Arial;fill:#ffffff;stroke-width:0.526452"
           id="tspan230511">D</tspan></tspan></text>
    <path
       style="fill:none;stroke:#212830;stroke-width:0.0219095px;stroke-linecap:round;stroke-linejoin:round;stroke-miterlimit:4;stroke-dasharray:none;stroke-opacity:1"
       d="m 208.93228,104.14339 -0.90149,-10.292112 -2.68244,-9.985533 -4.37549,-9.35049 -5.95856,-8.47457 -7.32176,-7.292067 -8.4871,-5.934387 -9.38859,-4.357723 -10.00422,-2.67157 -10.31206,-0.897822 -10.33403,0.897822 -10.00423,2.67157 -9.38857,4.357723 -8.48709,5.934387 -7.32179,7.292067 -5.936571,8.47457 -4.39745,9.35049 -2.68246,9.985533 -0.901475,10.292112 0.901475,10.29212 2.68246,9.98553 4.39745,9.3505 5.936571,8.47455 7.32179,7.29208 8.48709,5.93439 9.38857,4.35771 10.00423,2.67156 10.33403,0.89783 10.31206,-0.89783 10.00422,-2.67156 9.38859,-4.35771 8.4871,-5.93439 7.32176,-7.29208 5.95856,-8.47455 4.37549,-9.3505 2.68244,-9.98553 z"
       id="path230517" />
  </g>
</svg>
