<?xml version="1.0" encoding="UTF-8" standalone="no"?>
<svg
   xmlns:dc="http://purl.org/dc/elements/1.1/"
   xmlns:cc="http://creativecommons.org/ns#"
   xmlns:rdf="http://www.w3.org/1999/02/22-rdf-syntax-ns#"
   xmlns:svg="http://www.w3.org/2000/svg"
   xmlns="http://www.w3.org/2000/svg"
   xmlns:sodipodi="http://sodipodi.sourceforge.net/DTD/sodipodi-0.dtd"
   xmlns:inkscape="http://www.inkscape.org/namespaces/inkscape"
   width="297mm"
   height="210mm"
   viewBox="0 0 297 210"
   version="1.1"
   id="svg8"
   inkscape:version="1.0.2-2 (e86c870879, 2021-01-15)"
   sodipodi:docname="protecao_taludes.svg">
  <defs
     id="defs2">
    <pattern
       id="EMFhbasepattern"
       patternUnits="userSpaceOnUse"
       width="6"
       height="6"
       x="0"
       y="0" />
    <pattern
       id="EMFhbasepattern-0"
       patternUnits="userSpaceOnUse"
       width="6"
       height="6"
       x="0"
       y="0" />
    <pattern
       id="EMFhbasepattern-07"
       patternUnits="userSpaceOnUse"
       width="6"
       height="6"
       x="0"
       y="0" />
    <pattern
       id="EMFhbasepattern-5"
       patternUnits="userSpaceOnUse"
       width="6"
       height="6"
       x="0"
       y="0" />
    <pattern
       id="EMFhbasepattern-01"
       patternUnits="userSpaceOnUse"
       width="6"
       height="6"
       x="0"
       y="0" />
    <pattern
       id="EMFhbasepattern-1"
       patternUnits="userSpaceOnUse"
       width="6"
       height="6"
       x="0"
       y="0" />
    <pattern
       id="EMFhbasepattern-2"
       patternUnits="userSpaceOnUse"
       width="6"
       height="6"
       x="0"
       y="0" />
    <pattern
       id="EMFhbasepattern-3"
       patternUnits="userSpaceOnUse"
       width="6"
       height="6"
       x="0"
       y="0" />
    <pattern
       id="EMFhbasepattern-21"
       patternUnits="userSpaceOnUse"
       width="6"
       height="6"
       x="0"
       y="0" />
    <pattern
       id="EMFhbasepattern-51"
       patternUnits="userSpaceOnUse"
       width="6"
       height="6"
       x="0"
       y="0" />
    <pattern
       id="EMFhbasepattern-7"
       patternUnits="userSpaceOnUse"
       width="6"
       height="6"
       x="0"
       y="0" />
    <pattern
       id="EMFhbasepattern-6"
       patternUnits="userSpaceOnUse"
       width="6"
       height="6"
       x="0"
       y="0" />
    <pattern
       id="EMFhbasepattern-61"
       patternUnits="userSpaceOnUse"
       width="6"
       height="6"
       x="0"
       y="0" />
    <pattern
       id="EMFhbasepattern-612"
       patternUnits="userSpaceOnUse"
       width="6"
       height="6"
       x="0"
       y="0" />
    <pattern
       id="EMFhbasepattern-39"
       patternUnits="userSpaceOnUse"
       width="6"
       height="6"
       x="0"
       y="0" />
    <pattern
       id="EMFhbasepattern-25"
       patternUnits="userSpaceOnUse"
       width="6"
       height="6"
       x="0"
       y="0" />
    <pattern
       id="EMFhbasepattern-16"
       patternUnits="userSpaceOnUse"
       width="6"
       height="6"
       x="0"
       y="0" />
    <pattern
       id="EMFhbasepattern-22"
       patternUnits="userSpaceOnUse"
       width="6"
       height="6"
       x="0"
       y="0" />
    <pattern
       id="EMFhbasepattern-4"
       patternUnits="userSpaceOnUse"
       width="6"
       height="6"
       x="0"
       y="0" />
    <pattern
       id="EMFhbasepattern-06"
       patternUnits="userSpaceOnUse"
       width="6"
       height="6"
       x="0"
       y="0" />
    <pattern
       id="EMFhbasepattern-31"
       patternUnits="userSpaceOnUse"
       width="6"
       height="6"
       x="0"
       y="0" />
    <pattern
       id="EMFhbasepattern-37"
       patternUnits="userSpaceOnUse"
       width="6"
       height="6"
       x="0"
       y="0" />
    <pattern
       id="EMFhbasepattern-55"
       patternUnits="userSpaceOnUse"
       width="6"
       height="6"
       x="0"
       y="0" />
    <pattern
       id="EMFhbasepattern-8"
       patternUnits="userSpaceOnUse"
       width="6"
       height="6"
       x="0"
       y="0" />
    <pattern
       id="EMFhbasepattern-9"
       patternUnits="userSpaceOnUse"
       width="6"
       height="6"
       x="0"
       y="0" />
    <pattern
       id="EMFhbasepattern-40"
       patternUnits="userSpaceOnUse"
       width="6"
       height="6"
       x="0"
       y="0" />
    <pattern
       id="EMFhbasepattern-12"
       patternUnits="userSpaceOnUse"
       width="6"
       height="6"
       x="0"
       y="0" />
    <pattern
       id="EMFhbasepattern-76"
       patternUnits="userSpaceOnUse"
       width="6"
       height="6"
       x="0"
       y="0" />
    <pattern
       id="EMFhbasepattern-05"
       patternUnits="userSpaceOnUse"
       width="6"
       height="6"
       x="0"
       y="0" />
    <pattern
       id="EMFhbasepattern-518"
       patternUnits="userSpaceOnUse"
       width="6"
       height="6"
       x="0"
       y="0" />
    <pattern
       id="EMFhbasepattern-41"
       patternUnits="userSpaceOnUse"
       width="6"
       height="6"
       x="0"
       y="0" />
    <pattern
       id="EMFhbasepattern-90"
       patternUnits="userSpaceOnUse"
       width="6"
       height="6"
       x="0"
       y="0" />
    <pattern
       id="EMFhbasepattern-09"
       patternUnits="userSpaceOnUse"
       width="6"
       height="6"
       x="0"
       y="0" />
    <pattern
       id="EMFhbasepattern-79"
       patternUnits="userSpaceOnUse"
       width="6"
       height="6"
       x="0"
       y="0" />
    <pattern
       id="EMFhbasepattern-96"
       patternUnits="userSpaceOnUse"
       width="6"
       height="6"
       x="0"
       y="0" />
    <pattern
       id="EMFhbasepattern-83"
       patternUnits="userSpaceOnUse"
       width="6"
       height="6"
       x="0"
       y="0" />
    <pattern
       id="EMFhbasepattern-164"
       patternUnits="userSpaceOnUse"
       width="6"
       height="6"
       x="0"
       y="0" />
    <pattern
       id="EMFhbasepattern-60"
       patternUnits="userSpaceOnUse"
       width="6"
       height="6"
       x="0"
       y="0" />
    <pattern
       id="EMFhbasepattern-99"
       patternUnits="userSpaceOnUse"
       width="6"
       height="6"
       x="0"
       y="0" />
    <pattern
       id="EMFhbasepattern-72"
       patternUnits="userSpaceOnUse"
       width="6"
       height="6"
       x="0"
       y="0" />
  </defs>
  <sodipodi:namedview
     id="base"
     pagecolor="#ffffff"
     bordercolor="#666666"
     borderopacity="1.0"
     inkscape:pageopacity="0.0"
     inkscape:pageshadow="2"
     inkscape:zoom="0.7"
     inkscape:cx="549.04608"
     inkscape:cy="331.75084"
     inkscape:document-units="mm"
     inkscape:current-layer="layer1"
     inkscape:document-rotation="0"
     showgrid="false"
     inkscape:window-width="1680"
     inkscape:window-height="987"
     inkscape:window-x="-8"
     inkscape:window-y="-8"
     inkscape:window-maximized="1" />
  <metadata
     id="metadata5">
    <rdf:RDF>
      <cc:Work
         rdf:about="">
        <dc:format>image/svg+xml</dc:format>
        <dc:type
           rdf:resource="http://purl.org/dc/dcmitype/StillImage" />
        <dc:title></dc:title>
      </cc:Work>
    </rdf:RDF>
  </metadata>
  <g
     inkscape:label="Layer 1"
     inkscape:groupmode="layer"
     id="layer1">
    <path
       style="fill:none;stroke:#666666;stroke-width:0.0650816px;stroke-linecap:round;stroke-linejoin:round;stroke-miterlimit:4;stroke-dasharray:none;stroke-opacity:1"
       d="m 144.32411,124.26397 h 22.22802 l 19.44954,5.23346 8.49895,17.49698 7.51827,9.92014"
       id="path398115" />
    <path
       style="fill:none;stroke:#666666;stroke-width:0.0650816px;stroke-linecap:round;stroke-linejoin:round;stroke-miterlimit:4;stroke-dasharray:none;stroke-opacity:1"
       d="m 195.91711,75.131863 h 7.13696 l 7.02797,4.218023 3.54123,10.076383 8.77131,7.5768 2.66956,9.373371 0.70825,13.12273 1.90683,9.45148 -3.54122,6.71759 v 5.93646 l 1.19853,13.43517 -0.2722,1.87468"
       id="path398117" />
    <path
       style="fill:none;stroke:#666666;stroke-width:0.0650816px;stroke-linecap:round;stroke-linejoin:round;stroke-miterlimit:4;stroke-dasharray:none;stroke-opacity:1"
       d="m 118.22797,149.7283 2.17922,-1.01545 10.6237,8.2017"
       id="path398119" />
    <path
       style="fill:none;stroke:#666666;stroke-width:0.0650816px;stroke-linecap:round;stroke-linejoin:round;stroke-miterlimit:4;stroke-dasharray:none;stroke-opacity:1"
       d="m 123.89394,63.337045 1.68887,-2.421457 0.76274,-1.249784"
       id="path398121" />
    <path
       style="fill:none;stroke:#666666;stroke-width:0.0650816px;stroke-linecap:round;stroke-linejoin:round;stroke-miterlimit:4;stroke-dasharray:none;stroke-opacity:1"
       d="m 123.51257,82.708677 2.94195,1.484125 13.4022,17.418848 7.24589,36.63427 2.99644,18.66863"
       id="path398123" />
    <path
       style="fill:none;stroke:#666666;stroke-width:0.0650816px;stroke-linecap:round;stroke-linejoin:round;stroke-miterlimit:4;stroke-dasharray:none;stroke-opacity:1"
       d="m 246.74734,109.73524 1.68893,-2.42146 5.06666,-8.514134"
       id="path398125" />
    <path
       style="fill:none;stroke:#666666;stroke-width:0.0650816px;stroke-linecap:round;stroke-linejoin:round;stroke-miterlimit:4;stroke-dasharray:none;stroke-opacity:1"
       d="m 246.36598,129.10688 2.94195,1.48413 13.34771,17.41884 1.74337,8.9047"
       id="path398127" />
    <path
       style="fill:none;stroke:#666666;stroke-width:0.0650816px;stroke-linecap:round;stroke-linejoin:round;stroke-miterlimit:4;stroke-dasharray:none;stroke-opacity:1"
       d="M 69.086621,88.567037 48.710947,90.910383"
       id="path398129" />
    <path
       style="fill:none;stroke:#666666;stroke-width:0.0650816px;stroke-linecap:round;stroke-linejoin:round;stroke-miterlimit:4;stroke-dasharray:none;stroke-opacity:1"
       d="m 59.171172,108.32923 17.43372,-1.24977 4.358459,8.2798 7.191434,11.16993 4.031524,12.8884 -10.351247,10.70126 -2.996452,6.7957"
       id="path398131" />
    <path
       style="fill:none;stroke:#666666;stroke-width:0.0650816px;stroke-linecap:round;stroke-linejoin:round;stroke-miterlimit:4;stroke-dasharray:none;stroke-opacity:1"
       d="m 76.604892,107.07946 4.358459,-6.24893 8.934809,4.60858 2.887423,0.78112 4.140552,-4.92102"
       id="path398133" />
    <path
       style="fill:none;stroke:#666666;stroke-width:0.0650816px;stroke-linecap:round;stroke-linejoin:round;stroke-miterlimit:4;stroke-dasharray:none;stroke-opacity:1"
       d="m 148.95496,149.57208 12.25808,7.34247"
       id="path398135" />
    <path
       style="fill:none;stroke:#666666;stroke-width:0.0650816px;stroke-linecap:round;stroke-linejoin:round;stroke-miterlimit:4;stroke-dasharray:none;stroke-opacity:1"
       d="m 114.52332,156.91455 4.3584,-3.82746 -6.04728,-29.68235 -6.10183,-5.23347 -12.149172,-20.933854 -6.973479,-8.357932"
       id="path398137" />
    <path
       style="fill:none;stroke:#666666;stroke-width:0.0650816px;stroke-linecap:round;stroke-linejoin:round;stroke-miterlimit:4;stroke-dasharray:none;stroke-opacity:1"
       d="m 251.32369,95.675169 -4.73976,11.326171 1.19858,20.93387 -13.3477,10.46693 -26.74994,-3.4369 h -15.79933 l -2.56061,1.406"
       id="path398139" />
    <path
       style="fill:none;stroke:#666666;stroke-width:0.0650816px;stroke-linecap:round;stroke-linejoin:round;stroke-miterlimit:4;stroke-dasharray:none;stroke-opacity:1"
       d="m 217.92718,59.665804 0.43602,1.171674 8.77135,7.576811 7.08246,9.29526 1.74337,13.435174 -3.54118,9.217137 -3.4868,6.7176 v 5.93646 l 1.1441,13.43517 -1.1441,9.29526 -1.79785,1.71846"
       id="path398141" />
    <path
       style="fill:none;stroke:#666666;stroke-width:0.0650816px;stroke-linecap:round;stroke-linejoin:round;stroke-miterlimit:4;stroke-dasharray:none;stroke-opacity:1"
       d="m 207.46695,59.665804 1.63441,3.983685 -5.99286,4.842908 -7.08246,5.858361"
       id="path398143" />
    <path
       style="fill:none;stroke:#666666;stroke-width:0.0650816px;stroke-linecap:round;stroke-linejoin:round;stroke-miterlimit:4;stroke-dasharray:none;stroke-opacity:1"
       d="m 193.41101,59.665804 3.21434,9.607708 -1.79786,15.153619 3.54123,9.217147 -4.08605,12.654052 -8.22652,3.3588 -4.08605,2.49957 0.5993,8.43603 -1.57995,7.57681"
       id="path398145" />
    <path
       style="fill:none;stroke:#666666;stroke-width:0.0650816px;stroke-linecap:round;stroke-linejoin:round;stroke-miterlimit:4;stroke-dasharray:none;stroke-opacity:1"
       d="m 124.16632,59.665804 -0.43599,1.015449 1.25306,20.855756 -13.40218,10.466936 -26.695413,-3.436908 H 69.086423 l 12.421555,-20.855753 -0.435996,-8.04548"
       id="path398147" />
    <path
       style="fill:none;stroke:#666666;stroke-width:0.0650816px;stroke-linecap:round;stroke-linejoin:round;stroke-miterlimit:4;stroke-dasharray:none;stroke-opacity:1"
       d="m 106.67813,59.665804 -0.59928,1.093565 v 5.858357 l 1.19853,13.435169 -1.19853,9.295258 -1.74337,1.718453"
       id="path398149" />
    <path
       style="fill:none;stroke:#666666;stroke-width:0.0650816px;stroke-linecap:round;stroke-linejoin:round;stroke-miterlimit:4;stroke-dasharray:none;stroke-opacity:1"
       d="m 46.477228,94.191067 5.665968,4.921014 7.027976,9.217149 1.797854,13.43517 -3.541228,9.29527 -3.486747,6.71757 v 5.85836 l 1.14405,13.27895"
       id="path398151" />
    <path
       style="fill:none;stroke:#666666;stroke-width:0.0650816px;stroke-linecap:round;stroke-linejoin:round;stroke-miterlimit:4;stroke-dasharray:none;stroke-opacity:1"
       d="m 17.657073,135.51201 6.592128,13.51329 5.992838,7.88925"
       id="path398153" />
    <path
       style="fill:none;stroke:#666666;stroke-width:0.0650816px;stroke-linecap:round;stroke-linejoin:round;stroke-miterlimit:4;stroke-dasharray:none;stroke-opacity:1"
       d="m 186.05615,109.65713 -7.02798,1.56223 -7.40934,-2.57769 -4.57635,-9.139025 -9.47961,-5.467811 -3.70468,-8.592258 -2.12474,-12.810267 -2.56055,-12.966505"
       id="path398155" />
    <path
       style="fill:none;stroke:#656565;stroke-width:0.0650816px;stroke-linecap:round;stroke-linejoin:round;stroke-miterlimit:4;stroke-dasharray:none;stroke-opacity:1"
       d="m 226.20824,59.665804 67.77365,97.248746 H 2.7294111 L 70.503109,59.665804 h 77.743601 z"
       id="path398157" />
  </g>
</svg>
